Amiri.glyphspackage
{
glyphname = brokenbar;
layers = (
{
layerId = "7FE84AD5-D318-40C5-A81A-3CDC73FF77D2";
paths = (
{
closed = 1;
nodes = (
"124 246 OFFCURVE",
"116 242 OFFCURVE",
"103 239 CURVE SMOOTH",
"90 236 OFFCURVE",
"82 234 OFFCURVE",
"78 234 CURVE SMOOTH",
"76 234 OFFCURVE",
"75 235 OFFCURVE",
"74 235 CURVE SMOOTH",
"73 235 OFFCURVE",
"73 237 OFFCURVE",
"73 237 CURVE SMOOTH",
"73 237 OFFCURVE",
"73 239 OFFCURVE",
"73 240 CURVE SMOOTH",
"73 241 OFFCURVE",
"73 242 OFFCURVE",
"73 242 CURVE SMOOTH",
"73 705 LINE",
"72 709 OFFCURVE",
"74 712 OFFCURVE",
"78 713 CURVE SMOOTH",
"89 716 OFFCURVE",
"102 718 OFFCURVE",
"116 718 CURVE SMOOTH",
"119 718 OFFCURVE",
"121 717 OFFCURVE",
"122 716 CURVE SMOOTH",
"123 715 OFFCURVE",
"124 714 OFFCURVE",
"124 713 CURVE SMOOTH",
"124 712 LINE",
"124 249 LINE"
);
},
{
closed = 1;
nodes = (
"73 102 LINE",
"72 106 OFFCURVE",
"74 108 OFFCURVE",
"78 109 CURVE SMOOTH",
"89 112 OFFCURVE",
"102 114 OFFCURVE",
"116 114 CURVE SMOOTH",
"119 114 OFFCURVE",
"121 114 OFFCURVE",
"122 113 CURVE SMOOTH",
"123 112 OFFCURVE",
"124 111 OFFCURVE",
"124 110 CURVE SMOOTH",
"124 108 LINE",
"124 -369 LINE",
"124 -372 OFFCURVE",
"116 -376 OFFCURVE",
"103 -379 CURVE SMOOTH",
"90 -382 OFFCURVE",
"82 -384 OFFCURVE",
"78 -384 CURVE SMOOTH",
"76 -384 OFFCURVE",
"75 -383 OFFCURVE",
"74 -383 CURVE SMOOTH",
"73 -383 OFFCURVE",
"73 -382 OFFCURVE",
"73 -382 CURVE SMOOTH",
"73 -382 OFFCURVE",
"73 -380 OFFCURVE",
"73 -379 CURVE SMOOTH",
"73 -378 OFFCURVE",
"73 -376 OFFCURVE",
"73 -376 CURVE SMOOTH"
);
}
);
width = 200;
},
{
layerId = "037FF2D3-C03F-44B0-90AB-89AFD43EFA27";
paths = (
{
closed = 1;
nodes = (
"125 236 OFFCURVE",
"118 232 OFFCURVE",
"104 229 CURVE SMOOTH",
"90 226 OFFCURVE",
"82 225 OFFCURVE",
"78 225 CURVE SMOOTH",
"76 225 OFFCURVE",
"75 225 OFFCURVE",
"74 225 CURVE SMOOTH",
"73 225 OFFCURVE",
"73 227 OFFCURVE",
"73 227 CURVE SMOOTH",
"73 227 OFFCURVE",
"73 229 OFFCURVE",
"73 230 CURVE SMOOTH",
"73 231 OFFCURVE",
"73 232 OFFCURVE",
"73 232 CURVE SMOOTH",
"73 705 LINE",
"72 709 OFFCURVE",
"74 712 OFFCURVE",
"78 713 CURVE SMOOTH",
"89 716 OFFCURVE",
"102 718 OFFCURVE",
"117 718 CURVE SMOOTH",
"120 718 OFFCURVE",
"122 717 OFFCURVE",
"123 716 CURVE SMOOTH",
"124 715 OFFCURVE",
"125 714 OFFCURVE",
"125 713 CURVE SMOOTH",
"125 712 LINE",
"125 239 LINE"
);
},
{
closed = 1;
nodes = (
"73 92 LINE",
"72 96 OFFCURVE",
"74 99 OFFCURVE",
"78 100 CURVE SMOOTH",
"89 103 OFFCURVE",
"102 104 OFFCURVE",
"117 104 CURVE SMOOTH",
"120 104 OFFCURVE",
"122 104 OFFCURVE",
"123 103 CURVE SMOOTH",
"124 102 OFFCURVE",
"125 101 OFFCURVE",
"125 100 CURVE SMOOTH",
"125 99 LINE",
"125 -369 LINE",
"125 -372 OFFCURVE",
"118 -376 OFFCURVE",
"104 -379 CURVE SMOOTH",
"90 -382 OFFCURVE",
"82 -384 OFFCURVE",
"78 -384 CURVE SMOOTH",
"76 -384 OFFCURVE",
"75 -383 OFFCURVE",
"74 -383 CURVE SMOOTH",
"73 -383 OFFCURVE",
"73 -382 OFFCURVE",
"73 -382 CURVE SMOOTH",
"73 -382 OFFCURVE",
"73 -380 OFFCURVE",
"73 -379 CURVE SMOOTH",
"73 -378 OFFCURVE",
"73 -376 OFFCURVE",
"73 -376 CURVE SMOOTH"
);
}
);
width = 205;
}
);
unicode = 00A6;
}
{
glyphname = guillemetleft;
layers = (
{
layerId = "7FE84AD5-D318-40C5-A81A-3CDC73FF77D2";
paths = (
{
closed = 1;
nodes = (
"97 98 OFFCURVE",
"127 38 OFFCURVE",
"186 -13 CURVE SMOOTH",
"192 -18 OFFCURVE",
"192 -22 OFFCURVE",
"189 -28 CURVE SMOOTH",
"185 -34 OFFCURVE",
"180 -36 OFFCURVE",
"172 -32 CURVE SMOOTH",
"133 -12 OFFCURVE",
"104 15 OFFCURVE",
"82 51 CURVE SMOOTH",
"60 87 OFFCURVE",
"49 125 OFFCURVE",
"49 166 CURVE SMOOTH",
"49 207 OFFCURVE",
"60 246 OFFCURVE",
"82 281 CURVE SMOOTH",
"104 317 OFFCURVE",
"134 345 OFFCURVE",
"172 364 CURVE SMOOTH",
"180 368 OFFCURVE",
"186 366 OFFCURVE",
"189 360 CURVE SMOOTH",
"192 354 OFFCURVE",
"192 350 OFFCURVE",
"186 345 CURVE SMOOTH",
"127 298 OFFCURVE",
"97 238 OFFCURVE",
"97 166 CURVE SMOOTH"
);
},
{
closed = 1;
nodes = (
"272 98 OFFCURVE",
"302 38 OFFCURVE",
"361 -13 CURVE SMOOTH",
"367 -18 OFFCURVE",
"367 -22 OFFCURVE",
"364 -28 CURVE SMOOTH",
"360 -34 OFFCURVE",
"355 -36 OFFCURVE",
"347 -32 CURVE SMOOTH",
"308 -12 OFFCURVE",
"278 15 OFFCURVE",
"256 51 CURVE SMOOTH",
"234 87 OFFCURVE",
"224 125 OFFCURVE",
"224 166 CURVE SMOOTH",
"224 207 OFFCURVE",
"234 246 OFFCURVE",
"256 281 CURVE SMOOTH",
"278 317 OFFCURVE",
"309 345 OFFCURVE",
"347 364 CURVE SMOOTH",
"355 368 OFFCURVE",
"361 366 OFFCURVE",
"364 360 CURVE SMOOTH",
"367 354 OFFCURVE",
"367 350 OFFCURVE",
"361 345 CURVE SMOOTH",
"302 298 OFFCURVE",
"272 238 OFFCURVE",
"272 166 CURVE SMOOTH"
);
}
);
width = 415;
},
{
layerId = "037FF2D3-C03F-44B0-90AB-89AFD43EFA27";
paths = (
{
closed = 1;
nodes = (
"140 288 OFFCURVE",
"112 234 OFFCURVE",
"112 168 CURVE SMOOTH",
"112 102 OFFCURVE",
"140 47 OFFCURVE",
"195 -1 CURVE SMOOTH",
"206 -10 OFFCURVE",
"208 -22 OFFCURVE",
"201 -36 CURVE SMOOTH",
"194 -50 OFFCURVE",
"182 -53 OFFCURVE",
"166 -45 CURVE",
"125 -24 OFFCURVE",
"92 5 OFFCURVE",
"69 43 CURVE SMOOTH",
"46 81 OFFCURVE",
"34 123 OFFCURVE",
"34 167 CURVE SMOOTH",
"34 211 OFFCURVE",
"46 252 OFFCURVE",
"70 290 CURVE SMOOTH",
"94 328 OFFCURVE",
"126 357 OFFCURVE",
"166 377 CURVE SMOOTH",
"182 385 OFFCURVE",
"195 382 OFFCURVE",
"202 369 CURVE SMOOTH",
"209 356 OFFCURVE",
"207 343 OFFCURVE",
"195 333 CURVE"
);
},
{
closed = 1;
nodes = (
"315 288 OFFCURVE",
"287 234 OFFCURVE",
"287 168 CURVE SMOOTH",
"287 102 OFFCURVE",
"315 47 OFFCURVE",
"370 -1 CURVE SMOOTH",
"381 -10 OFFCURVE",
"383 -22 OFFCURVE",
"376 -36 CURVE SMOOTH",
"369 -50 OFFCURVE",
"357 -53 OFFCURVE",
"341 -45 CURVE",
"300 -24 OFFCURVE",
"267 5 OFFCURVE",
"244 43 CURVE SMOOTH",
"221 81 OFFCURVE",
"209 123 OFFCURVE",
"209 167 CURVE SMOOTH",
"209 211 OFFCURVE",
"221 252 OFFCURVE",
"245 290 CURVE SMOOTH",
"269 328 OFFCURVE",
"301 357 OFFCURVE",
"341 377 CURVE SMOOTH",
"357 385 OFFCURVE",
"369 382 OFFCURVE",
"376 369 CURVE SMOOTH",
"383 356 OFFCURVE",
"382 343 OFFCURVE",
"370 333 CURVE"
);
}
);
width = 415;
}
);
unicode = 00AB;
}
{
glyphname = guillemetright;
layers = (
{
layerId = "7FE84AD5-D318-40C5-A81A-3CDC73FF77D2";
paths = (
{
closed = 1;
nodes = (
"318 238 OFFCURVE",
"288 298 OFFCURVE",
"229 345 CURVE SMOOTH",
"223 350 OFFCURVE",
"223 354 OFFCURVE",
"226 360 CURVE SMOOTH",
"229 366 OFFCURVE",
"235 368 OFFCURVE",
"243 364 CURVE SMOOTH",
"281 345 OFFCURVE",
"311 317 OFFCURVE",
"333 281 CURVE SMOOTH",
"355 246 OFFCURVE",
"366 207 OFFCURVE",
"366 166 CURVE SMOOTH",
"366 125 OFFCURVE",
"355 87 OFFCURVE",
"333 51 CURVE SMOOTH",
"311 15 OFFCURVE",
"282 -12 OFFCURVE",
"243 -32 CURVE SMOOTH",
"235 -36 OFFCURVE",
"230 -34 OFFCURVE",
"226 -28 CURVE SMOOTH",
"223 -22 OFFCURVE",
"223 -18 OFFCURVE",
"229 -13 CURVE SMOOTH",
"288 38 OFFCURVE",
"318 98 OFFCURVE",
"318 166 CURVE SMOOTH"
);
},
{
closed = 1;
nodes = (
"143 238 OFFCURVE",
"113 298 OFFCURVE",
"54 345 CURVE SMOOTH",
"48 350 OFFCURVE",
"48 354 OFFCURVE",
"51 360 CURVE SMOOTH",
"54 366 OFFCURVE",
"60 368 OFFCURVE",
"68 364 CURVE SMOOTH",
"106 345 OFFCURVE",
"137 317 OFFCURVE",
"159 281 CURVE SMOOTH",
"181 246 OFFCURVE",
"191 207 OFFCURVE",
"191 166 CURVE SMOOTH",
"191 125 OFFCURVE",
"181 87 OFFCURVE",
"159 51 CURVE SMOOTH",
"137 15 OFFCURVE",
"107 -12 OFFCURVE",
"68 -32 CURVE SMOOTH",
"60 -36 OFFCURVE",
"55 -34 OFFCURVE",
"51 -28 CURVE SMOOTH",
"48 -22 OFFCURVE",
"48 -18 OFFCURVE",
"54 -13 CURVE SMOOTH",
"113 38 OFFCURVE",
"143 98 OFFCURVE",
"143 166 CURVE SMOOTH"
);
}
);
width = 415;
},
{
layerId = "037FF2D3-C03F-44B0-90AB-89AFD43EFA27";
paths = (
{
closed = 1;
nodes = (
"276 47 OFFCURVE",
"303 104 OFFCURVE",
"303 169 CURVE SMOOTH",
"303 234 OFFCURVE",
"275 289 OFFCURVE",
"220 333 CURVE SMOOTH",
"208 342 OFFCURVE",
"206 354 OFFCURVE",
"213 368 CURVE SMOOTH",
"220 382 OFFCURVE",
"232 385 OFFCURVE",
"249 377 CURVE",
"290 357 OFFCURVE",
"321 327 OFFCURVE",
"345 289 CURVE SMOOTH",
"369 251 OFFCURVE",
"381 210 OFFCURVE",
"381 166 CURVE SMOOTH",
"381 122 OFFCURVE",
"368 81 OFFCURVE",
"345 43 CURVE SMOOTH",
"322 5 OFFCURVE",
"290 -24 OFFCURVE",
"249 -45 CURVE SMOOTH",
"233 -53 OFFCURVE",
"222 -50 OFFCURVE",
"214 -37 CURVE SMOOTH",
"206 -24 OFFCURVE",
"208 -11 OFFCURVE",
"220 -1 CURVE SMOOTH"
);
},
{
closed = 1;
nodes = (
"101 47 OFFCURVE",
"128 104 OFFCURVE",
"128 169 CURVE SMOOTH",
"128 234 OFFCURVE",
"100 289 OFFCURVE",
"45 333 CURVE SMOOTH",
"33 342 OFFCURVE",
"31 354 OFFCURVE",
"38 368 CURVE SMOOTH",
"45 382 OFFCURVE",
"57 385 OFFCURVE",
"74 377 CURVE SMOOTH",
"115 357 OFFCURVE",
"147 327 OFFCURVE",
"171 289 CURVE SMOOTH",
"195 251 OFFCURVE",
"206 210 OFFCURVE",
"206 166 CURVE SMOOTH",
"206 122 OFFCURVE",
"194 81 OFFCURVE",
"171 43 CURVE SMOOTH",
"148 5 OFFCURVE",
"115 -24 OFFCURVE",
"74 -45 CURVE SMOOTH",
"58 -53 OFFCURVE",
"47 -50 OFFCURVE",
"39 -37 CURVE SMOOTH",
"31 -24 OFFCURVE",
"33 -11 OFFCURVE",
"45 -1 CURVE SMOOTH"
);
}
);
width = 415;
}
);
unicode = 00BB;
}
{
glyphname = u1EE00;
layers = (
{
components = (
{
name = "alef-ar";
transform = "{1, 0, 0, 1, -6, 0}";
}
);
layerId = "7FE84AD5-D318-40C5-A81A-3CDC73FF77D2";
paths = (
{
closed = 1;
nodes = (
"151 537 LINE SMOOTH",
"155 525 OFFCURVE",
"154 517 OFFCURVE",
"150 515 CURVE SMOOTH",
"146 513 OFFCURVE",
"140 517 OFFCURVE",
"132 527 CURVE SMOOTH",
"78 597 LINE",
"107 683 LINE"
);
}
);
width = 207;
},
{
layerId = "037FF2D3-C03F-44B0-90AB-89AFD43EFA27";
width = 600;
}
);
unicode = 1EE00;
}
{
glyphname = u1EE03;
layers = (
{
layerId = "7FE84AD5-D318-40C5-A81A-3CDC73FF77D2";
paths = (
{
closed = 1;
nodes = (
"420 492 OFFCURVE",
"418 496 OFFCURVE",
"413 500 CURVE SMOOTH",
"403 508 OFFCURVE",
"384 512 OFFCURVE",
"358 511 CURVE SMOOTH",
"315 509 OFFCURVE",
"275 484 OFFCURVE",
"238 437 CURVE SMOOTH",
"208 399 OFFCURVE",
"188 357 OFFCURVE",
"178 312 CURVE SMOOTH",
"168 267 OFFCURVE",
"176 232 OFFCURVE",
"202 209 CURVE SMOOTH",
"232 182 OFFCURVE",
"273 158 OFFCURVE",
"327 137 CURVE SMOOTH",
"344 130 OFFCURVE",
"346 121 OFFCURVE",
"331 111 CURVE SMOOTH",
"277 75 OFFCURVE",
"192 37 OFFCURVE",
"74 -5 CURVE SMOOTH",
"64 -9 OFFCURVE",
"59 -14 OFFCURVE",
"59 -21 CURVE SMOOTH",
"59 -30 OFFCURVE",
"64 -34 OFFCURVE",
"76 -34 CURVE SMOOTH",
"152 -32 OFFCURVE",
"217 -26 OFFCURVE",
"269 -16 CURVE SMOOTH",
"297 -11 OFFCURVE",
"317 1 OFFCURVE",
"330 16 CURVE SMOOTH",
"349 38 OFFCURVE",
"366 70 OFFCURVE",
"379 112 CURVE SMOOTH",
"388 141 OFFCURVE",
"389 166 OFFCURVE",
"384 188 CURVE SMOOTH",
"379 208 OFFCURVE",
"368 222 OFFCURVE",
"349 231 CURVE SMOOTH",
"254 277 OFFCURVE",
"210 311 OFFCURVE",
"216 332 CURVE SMOOTH",
"223 356 OFFCURVE",
"245 377 OFFCURVE",
"284 395 CURVE SMOOTH",
"323 413 OFFCURVE",
"357 416 OFFCURVE",
"387 405 CURVE SMOOTH",
"393 403 OFFCURVE",
"396 405 OFFCURVE",
"399 412 CURVE SMOOTH",
"409 440 OFFCURVE",
"416 465 OFFCURVE",
"419 487 CURVE SMOOTH"
);
}
);
width = 478;
},
{
layerId = "037FF2D3-C03F-44B0-90AB-89AFD43EFA27";
width = 600;
}
);
unicode = 1EE03;
}
{
glyphname = u1EE24;
layers = (
{
anchors = (
{
name = TashkilAbove;
position = "{357, 819}";
},
{
name = TashkilBelow;
position = "{357, -309}";
}
);
layerId = "7FE84AD5-D318-40C5-A81A-3CDC73FF77D2";
paths = (
{
closed = 1;
nodes = (
"252 340 OFFCURVE",
"275 370 OFFCURVE",
"303 369 CURVE SMOOTH",
"331 368 OFFCURVE",
"376 337 OFFCURVE",
"437 279 CURVE SMOOTH",
"498 221 OFFCURVE",
"532 174 OFFCURVE",
"538 139 CURVE SMOOTH",
"545 95 OFFCURVE",
"534 57 OFFCURVE",
"506 23 CURVE SMOOTH",
"492 6 OFFCURVE",
"475 -2 OFFCURVE",
"454 0 CURVE SMOOTH",
"401 6 OFFCURVE",
"344 21 OFFCURVE",
"283 44 CURVE",
"265 25 OFFCURVE",
"221 5 OFFCURVE",
"152 -15 CURVE SMOOTH",
"145 -17 OFFCURVE",
"136 -15 OFFCURVE",
"127 -10 CURVE SMOOTH",
"81 12 LINE SMOOTH",
"52 26 OFFCURVE",
"51 36 OFFCURVE",
"77 41 CURVE SMOOTH",
"149 56 OFFCURVE",
"197 68 OFFCURVE",
"220 77 CURVE",
"201 92 OFFCURVE",
"196 113 OFFCURVE",
"204 138 CURVE SMOOTH",
"218 181 OFFCURVE",
"243 218 OFFCURVE",
"278 249 CURVE",
"271 260 OFFCURVE",
"260 266 OFFCURVE",
"245 268 CURVE SMOOTH",
"237 269 OFFCURVE",
"234 273 OFFCURVE",
"236 280 CURVE SMOOTH"
);
},
{
closed = 1;
nodes = (
"331 134 OFFCURVE",
"342 143 OFFCURVE",
"342 150 CURVE",
"339 185 OFFCURVE",
"329 204 OFFCURVE",
"311 208 CURVE SMOOTH",
"284 214 OFFCURVE",
"259 202 OFFCURVE",
"236 173 CURVE SMOOTH",
"229 165 OFFCURVE",
"233 156 OFFCURVE",
"244 149 CURVE SMOOTH",
"255 142 OFFCURVE",
"277 133 OFFCURVE",
"309 123 CURVE"
);
},
{
closed = 1;
nodes = (
"381 197 OFFCURVE",
"381 197 OFFCURVE",
"381 194 CURVE SMOOTH",
"384 173 OFFCURVE",
"372 145 OFFCURVE",
"346 111 CURVE",
"424 87 OFFCURVE",
"470 78 OFFCURVE",
"484 86 CURVE SMOOTH",
"488 88 OFFCURVE",
"489 92 OFFCURVE",
"488 95 CURVE SMOOTH",
"475 126 OFFCURVE",
"441 159 OFFCURVE",
"384 195 CURVE SMOOTH"
);
}
);
width = 598;
},
{
layerId = "037FF2D3-C03F-44B0-90AB-89AFD43EFA27";
width = 600;
}
);
unicode = 1EE24;
}
{
glyphname = u1EE27;
layers = (
{
layerId = "7FE84AD5-D318-40C5-A81A-3CDC73FF77D2";
paths = (
{
closed = 1;
nodes = (
"295 221 OFFCURVE",
"311 247 OFFCURVE",
"334 271 CURVE SMOOTH",
"360 298 OFFCURVE",
"386 313 OFFCURVE",
"412 313 CURVE SMOOTH",
"438 313 OFFCURVE",
"497 294 OFFCURVE",
"588 256 CURVE SMOOTH",
"621 242 OFFCURVE",
"664 231 OFFCURVE",
"715 221 CURVE SMOOTH",
"766 211 OFFCURVE",
"819 208 OFFCURVE",
"873 212 CURVE SMOOTH",
"888 213 OFFCURVE",
"892 207 OFFCURVE",
"886 194 CURVE SMOOTH",
"858 133 LINE SMOOTH",
"854 125 OFFCURVE",
"848 122 OFFCURVE",
"837 124 CURVE SMOOTH",
"765 137 OFFCURVE",
"693 131 OFFCURVE",
"623 108 CURVE SMOOTH",
"573 91 OFFCURVE",
"508 64 OFFCURVE",
"426 26 CURVE SMOOTH",
"369 0 OFFCURVE",
"312 -15 OFFCURVE",
"253 -16 CURVE SMOOTH",
"214 -17 OFFCURVE",
"183 -13 OFFCURVE",
"162 -6 CURVE SMOOTH",
"117 10 OFFCURVE",
"84 29 OFFCURVE",
"66 50 CURVE SMOOTH",
"54 64 OFFCURVE",
"56 70 OFFCURVE",
"71 69 CURVE SMOOTH",
"142 62 OFFCURVE",
"213 61 OFFCURVE",
"283 67 CURVE SMOOTH",
"360 73 OFFCURVE",
"453 106 OFFCURVE",
"562 163 CURVE",
"494 202 OFFCURVE",
"436 219 OFFCURVE",
"388 216 CURVE SMOOTH",
"358 214 OFFCURVE",
"331 202 OFFCURVE",
"306 181 CURVE SMOOTH",
"300 176 OFFCURVE",
"294 176 OFFCURVE",
"289 180 CURVE SMOOTH",
"285 184 OFFCURVE",
"284 187 OFFCURVE",
"286 192 CURVE SMOOTH"
);
}
);
width = 947;
},
{
layerId = "037FF2D3-C03F-44B0-90AB-89AFD43EFA27";
width = 600;
}
);
unicode = 1EE27;
}
{
glyphname = u1EE47;
layers = (
{
layerId = "7FE84AD5-D318-40C5-A81A-3CDC73FF77D2";
paths = (
{
closed = 1;
nodes = (
"600 487 LINE SMOOTH",
"597 481 OFFCURVE",
"593 479 OFFCURVE",
"588 478 CURVE SMOOTH",
"428 457 OFFCURVE",
"317 425 OFFCURVE",
"253 383 CURVE SMOOTH",
"129 302 OFFCURVE",
"80 203 OFFCURVE",
"106 86 CURVE SMOOTH",
"124 9 OFFCURVE",
"179 -43 OFFCURVE",
"271 -69 CURVE SMOOTH",
"358 -94 OFFCURVE",
"456 -88 OFFCURVE",
"566 -52 CURVE SMOOTH",
"666 -19 OFFCURVE",
"726 -45 OFFCURVE",
"745 -130 CURVE SMOOTH",
"753 -164 OFFCURVE",
"753 -200 OFFCURVE",
"746 -241 CURVE",
"705 -246 LINE",
"706 -205 OFFCURVE",
"701 -171 OFFCURVE",
"691 -146 CURVE SMOOTH",
"676 -112 OFFCURVE",
"646 -109 OFFCURVE",
"602 -134 CURVE SMOOTH",
"523 -177 OFFCURVE",
"446 -197 OFFCURVE",
"370 -197 CURVE SMOOTH",
"273 -197 OFFCURVE",
"195 -170 OFFCURVE",
"138 -117 CURVE SMOOTH",
"69 -52 OFFCURVE",
"45 44 OFFCURVE",
"66 173 CURVE SMOOTH",
"87 304 OFFCURVE",
"168 403 OFFCURVE",
"308 470 CURVE",
"218 492 OFFCURVE",
"150 489 OFFCURVE",
"105 463 CURVE SMOOTH",
"101 461 OFFCURVE",
"98 460 OFFCURVE",
"94 461 CURVE SMOOTH",
"90 462 OFFCURVE",
"88 463 OFFCURVE",
"88 467 CURVE SMOOTH",
"89 483 OFFCURVE",
"93 500 OFFCURVE",
"99 517 CURVE SMOOTH",
"111 552 OFFCURVE",
"143 570 OFFCURVE",
"195 573 CURVE SMOOTH",
"221 574 OFFCURVE",
"262 570 OFFCURVE",
"318 559 CURVE SMOOTH",
"374 548 OFFCURVE",
"422 542 OFFCURVE",
"461 543 CURVE SMOOTH",
"500 544 OFFCURVE",
"547 549 OFFCURVE",
"604 559 CURVE SMOOTH",
"624 562 OFFCURVE",
"631 556 OFFCURVE",
"624 541 CURVE SMOOTH"
);
}
);
width = 809;
},
{
layerId = "037FF2D3-C03F-44B0-90AB-89AFD43EFA27";
width = 600;
}
);
unicode = 1EE47;
}
{
glyphname = u1EE4F;
layers = (
{
layerId = "7FE84AD5-D318-40C5-A81A-3CDC73FF77D2";
paths = (
{
closed = 1;
nodes = (
"126 -159 OFFCURVE",
"54 -69 OFFCURVE",
"59 83 CURVE SMOOTH",
"64 230 OFFCURVE",
"108 346 OFFCURVE",
"192 428 CURVE",
"140 449 OFFCURVE",
"106 471 OFFCURVE",
"89 494 CURVE SMOOTH",
"82 503 OFFCURVE",
"79 514 OFFCURVE",
"80 526 CURVE SMOOTH",
"83 557 OFFCURVE",
"91 585 OFFCURVE",
"105 611 CURVE SMOOTH",
"136 669 OFFCURVE",
"171 708 OFFCURVE",
"212 728 CURVE SMOOTH",
"232 737 OFFCURVE",
"254 734 OFFCURVE",
"282 718 CURVE SMOOTH",
"310 702 OFFCURVE",
"330 685 OFFCURVE",
"341 669 CURVE SMOOTH",
"348 659 OFFCURVE",
"344 656 OFFCURVE",
"328 659 CURVE SMOOTH",
"242 676 OFFCURVE",
"171 647 OFFCURVE",
"115 572 CURVE SMOOTH",
"112 568 OFFCURVE",
"112 565 OFFCURVE",
"117 560 CURVE SMOOTH",
"164 516 OFFCURVE",
"220 498 OFFCURVE",
"282 505 CURVE SMOOTH",
"293 506 OFFCURVE",
"308 514 OFFCURVE",
"329 526 CURVE SMOOTH",
"407 574 OFFCURVE",
"450 600 OFFCURVE",
"460 605 CURVE SMOOTH",
"472 611 OFFCURVE",
"476 605 OFFCURVE",
"470 588 CURVE SMOOTH",
"455 546 OFFCURVE",
"443 523 OFFCURVE",
"435 519 CURVE SMOOTH",
"381 495 OFFCURVE",
"314 454 OFFCURVE",
"236 397 CURVE SMOOTH",
"149 334 OFFCURVE",
"100 247 OFFCURVE",
"88 138 CURVE SMOOTH",
"82 81 OFFCURVE",
"96 30 OFFCURVE",
"131 -14 CURVE SMOOTH",
"163 -55 OFFCURVE",
"219 -82 OFFCURVE",
"299 -97 CURVE SMOOTH",
"385 -113 OFFCURVE",
"473 -106 OFFCURVE",
"565 -76 CURVE SMOOTH",
"669 -43 OFFCURVE",
"729 -61 OFFCURVE",
"745 -130 CURVE SMOOTH",
"753 -164 OFFCURVE",
"753 -200 OFFCURVE",
"745 -241 CURVE",
"705 -246 LINE",
"707 -204 OFFCURVE",
"702 -170 OFFCURVE",
"691 -146 CURVE SMOOTH",
"677 -113 OFFCURVE",
"647 -110 OFFCURVE",
"602 -134 CURVE SMOOTH",
"556 -159 OFFCURVE",
"515 -175 OFFCURVE",
"478 -183 CURVE SMOOTH",
"410 -198 OFFCURVE",
"342 -200 OFFCURVE",
"276 -188 CURVE SMOOTH"
);
}
);
width = 809;
},
{
layerId = "037FF2D3-C03F-44B0-90AB-89AFD43EFA27";
width = 600;
}
);
unicode = 1EE4F;
}
{
glyphname = u1EE80;
layers = (
{
layerId = "7FE84AD5-D318-40C5-A81A-3CDC73FF77D2";
paths = (
{
closed = 1;
nodes = (
"191 70 OFFCURVE",
"191 111 OFFCURVE",
"189 148 CURVE",
"163 169 OFFCURVE",
"134 172 OFFCURVE",
"103 156 CURVE SMOOTH",
"97 153 OFFCURVE",
"92 150 OFFCURVE",
"88 145 CURVE",
"87 132 OFFCURVE",
"87 116 OFFCURVE",
"89 98 CURVE SMOOTH",
"94 50 OFFCURVE",
"113 22 OFFCURVE",
"144 13 CURVE",
"165 8 OFFCURVE",
"180 11 OFFCURVE",
"190 21 CURVE"
);
},
{
closed = 1;
nodes = (
"234 198 OFFCURVE",
"240 189 OFFCURVE",
"247 179 CURVE SMOOTH",
"282 126 OFFCURVE",
"299 49 OFFCURVE",
"300 -50 CURVE SMOOTH",
"300 -55 OFFCURVE",
"298 -63 OFFCURVE",
"294 -77 CURVE SMOOTH",
"290 -91 OFFCURVE",
"286 -101 OFFCURVE",
"280 -108 CURVE SMOOTH",
"274 -115 OFFCURVE",
"272 -115 OFFCURVE",
"272 -108 CURVE SMOOTH",
"271 -18 OFFCURVE",
"256 53 OFFCURVE",
"225 104 CURVE",
"222 60 OFFCURVE",
"215 28 OFFCURVE",
"205 7 CURVE SMOOTH",
"190 -22 OFFCURVE",
"178 -40 OFFCURVE",
"169 -47 CURVE SMOOTH",
"155 -58 OFFCURVE",
"138 -61 OFFCURVE",
"119 -56 CURVE SMOOTH",
"86 -47 OFFCURVE",
"67 -16 OFFCURVE",
"61 37 CURVE SMOOTH",
"57 74 OFFCURVE",
"59 108 OFFCURVE",
"68 138 CURVE SMOOTH",
"82 184 OFFCURVE",
"101 213 OFFCURVE",
"125 225 CURVE SMOOTH",
"145 235 OFFCURVE",
"162 237 OFFCURVE",
"180 233 CURVE",
"176 268 OFFCURVE",
"170 323 OFFCURVE",
"162 397 CURVE SMOOTH",
"140 593 LINE SMOOTH",
"139 604 OFFCURVE",
"141 615 OFFCURVE",
"146 626 CURVE SMOOTH",
"168 678 LINE SMOOTH",
"178 701 OFFCURVE",
"183 701 OFFCURVE",
"186 680 CURVE",
"209 427 LINE",
"219 340 OFFCURVE",
"225 266 OFFCURVE",
"227 205 CURVE"
);
}
);
width = 358;
},
{
layerId = "037FF2D3-C03F-44B0-90AB-89AFD43EFA27";
width = 600;
}
);
unicode = 1EE80;
}
{
glyphname = u1EE81;
layers = (
{
components = (
{
name = "dotbelow-ar";
transform = "{1, 0, 0, 1, 483, -264}";
}
);
layerId = "7FE84AD5-D318-40C5-A81A-3CDC73FF77D2";
paths = (
{
closed = 1;
nodes = (
"140 329 OFFCURVE",
"165 346 OFFCURVE",
"192 351 CURVE SMOOTH",
"206 354 OFFCURVE",
"225 353 OFFCURVE",
"249 348 CURVE SMOOTH",
"317 333 OFFCURVE",
"365 284 OFFCURVE",
"390 200 CURVE SMOOTH",
"399 169 OFFCURVE",
"403 132 OFFCURVE",
"402 91 CURVE",
"572 94 OFFCURVE",
"711 126 OFFCURVE",
"820 189 CURVE",
"818 213 OFFCURVE",
"802 245 OFFCURVE",
"772 285 CURVE SMOOTH",
"770 288 OFFCURVE",
"771 297 OFFCURVE",
"774 312 CURVE SMOOTH",
"777 327 OFFCURVE",
"785 347 OFFCURVE",
"797 372 CURVE SMOOTH",
"801 381 OFFCURVE",
"808 381 OFFCURVE",
"816 372 CURVE SMOOTH",
"835 350 OFFCURVE",
"847 319 OFFCURVE",
"854 281 CURVE SMOOTH",
"860 243 OFFCURVE",
"860 205 OFFCURVE",
"852 169 CURVE SMOOTH",
"844 133 OFFCURVE",
"831 109 OFFCURVE",
"812 99 CURVE SMOOTH",
"706 37 OFFCURVE",
"572 1 OFFCURVE",
"412 -7 CURVE SMOOTH",
"405 -7 OFFCURVE",
"398 -7 OFFCURVE",
"391 -7 CURVE",
"382 -56 OFFCURVE",
"368 -110 OFFCURVE",
"348 -169 CURVE SMOOTH",
"344 -181 OFFCURVE",
"335 -194 OFFCURVE",
"320 -209 CURVE SMOOTH",
"305 -224 OFFCURVE",
"299 -227 OFFCURVE",
"303 -215 CURVE SMOOTH",
"329 -137 OFFCURVE",
"345 -68 OFFCURVE",
"352 -8 CURVE",
"225 -6 OFFCURVE",
"138 24 OFFCURVE",
"90 83 CURVE SMOOTH",
"55 127 OFFCURVE",
"49 177 OFFCURVE",
"74 236 CURVE SMOOTH",
"82 256 OFFCURVE",
"96 278 OFFCURVE",
"115 300 CURVE SMOOTH"
);
},
{
closed = 1;
nodes = (
"351 111 OFFCURVE",
"348 129 OFFCURVE",
"343 145 CURVE SMOOTH",
"318 227 OFFCURVE",
"272 276 OFFCURVE",
"205 290 CURVE SMOOTH",
"160 300 OFFCURVE",
"130 289 OFFCURVE",
"116 257 CURVE SMOOTH",
"109 241 OFFCURVE",
"107 227 OFFCURVE",
"111 216 CURVE SMOOTH",
"132 139 OFFCURVE",
"212 98 OFFCURVE",
"353 92 CURVE"
);
}
);
width = 916;
},
{
layerId = "037FF2D3-C03F-44B0-90AB-89AFD43EFA27";
width = 600;
}
);
unicode = 1EE81;
}
{
glyphname = u1EE83;
layers = (
{
layerId = "7FE84AD5-D318-40C5-A81A-3CDC73FF77D2";
paths = (
{
closed = 1;
nodes = (
"142 93 OFFCURVE",
"167 89 OFFCURVE",
"196 93 CURVE SMOOTH",
"211 95 OFFCURVE",
"225 97 OFFCURVE",
"238 99 CURVE",
"234 106 OFFCURVE",
"230 113 OFFCURVE",
"226 120 CURVE SMOOTH",
"194 171 OFFCURVE",
"156 186 OFFCURVE",
"111 168 CURVE",
"96 162 OFFCURVE",
"89 154 OFFCURVE",
"90 142 CURVE SMOOTH",
"91 124 OFFCURVE",
"101 111 OFFCURVE",
"121 102 CURVE SMOOTH"
);
},
{
closed = 1;
nodes = (
"303 1 OFFCURVE",
"304 -18 OFFCURVE",
"304 -38 CURVE SMOOTH",
"304 -50 OFFCURVE",
"298 -66 OFFCURVE",
"289 -85 CURVE SMOOTH",
"280 -104 OFFCURVE",
"275 -108 OFFCURVE",
"275 -96 CURVE SMOOTH",
"275 -58 OFFCURVE",
"272 -23 OFFCURVE",
"266 9 CURVE",
"230 0 OFFCURVE",
"190 -5 OFFCURVE",
"149 -6 CURVE SMOOTH",
"138 -6 OFFCURVE",
"129 -5 OFFCURVE",
"121 -2 CURVE SMOOTH",
"82 11 OFFCURVE",
"61 38 OFFCURVE",
"59 78 CURVE SMOOTH",
"57 115 OFFCURVE",
"65 153 OFFCURVE",
"84 191 CURVE SMOOTH",
"95 212 OFFCURVE",
"112 228 OFFCURVE",
"133 237 CURVE SMOOTH",
"180 257 OFFCURVE",
"220 240 OFFCURVE",
"253 187 CURVE SMOOTH",
"267 165 OFFCURVE",
"278 138 OFFCURVE",
"286 108 CURVE",
"317 115 OFFCURVE",
"339 123 OFFCURVE",
"354 131 CURVE SMOOTH",
"356 132 OFFCURVE",
"357 136 OFFCURVE",
"356 143 CURVE SMOOTH",
"346 208 OFFCURVE",
"293 260 OFFCURVE",
"194 299 CURVE SMOOTH",
"181 304 OFFCURVE",
"176 312 OFFCURVE",
"179 322 CURVE SMOOTH",
"190 355 OFFCURVE",
"200 375 OFFCURVE",
"208 385 CURVE SMOOTH",
"214 392 OFFCURVE",
"221 392 OFFCURVE",
"230 387 CURVE SMOOTH",
"319 338 OFFCURVE",
"371 272 OFFCURVE",
"386 190 CURVE SMOOTH",
"394 144 OFFCURVE",
"392 103 OFFCURVE",
"380 68 CURVE SMOOTH",
"376 58 OFFCURVE",
"369 50 OFFCURVE",
"359 44 CURVE SMOOTH",
"340 34 OFFCURVE",
"321 26 OFFCURVE",
"301 19 CURVE"
);
}
);
width = 449;
},
{
layerId = "037FF2D3-C03F-44B0-90AB-89AFD43EFA27";
width = 600;
}
);
unicode = 1EE83;
}
{
glyphname = u1EE84;
layers = (
{
layerId = "7FE84AD5-D318-40C5-A81A-3CDC73FF77D2";
paths = (
{
closed = 1;
nodes = (
"496 239 OFFCURVE",
"495 238 OFFCURVE",
"495 235 CURVE SMOOTH",
"498 214 OFFCURVE",
"487 186 OFFCURVE",
"461 152 CURVE",
"539 128 OFFCURVE",
"584 120 OFFCURVE",
"598 128 CURVE SMOOTH",
"602 130 OFFCURVE",
"604 133 OFFCURVE",
"603 136 CURVE SMOOTH",
"590 167 OFFCURVE",
"556 201 OFFCURVE",
"499 237 CURVE SMOOTH"
);
},
{
closed = 1;
nodes = (
"446 176 OFFCURVE",
"457 184 OFFCURVE",
"457 191 CURVE",
"454 226 OFFCURVE",
"444 245 OFFCURVE",
"426 249 CURVE SMOOTH",
"399 255 OFFCURVE",
"374 243 OFFCURVE",
"351 214 CURVE SMOOTH",
"344 206 OFFCURVE",
"347 198 OFFCURVE",
"358 191 CURVE SMOOTH",
"369 184 OFFCURVE",
"392 175 OFFCURVE",
"424 165 CURVE"
);
},
{
closed = 1;
nodes = (
"304 4 OFFCURVE",
"304 -8 OFFCURVE",
"304 -19 CURVE SMOOTH",
"304 -31 OFFCURVE",
"299 -47 OFFCURVE",
"290 -66 CURVE SMOOTH",
"281 -85 OFFCURVE",
"276 -89 OFFCURVE",
"276 -77 CURVE SMOOTH",
"276 -49 OFFCURVE",
"273 -24 OFFCURVE",
"270 0 CURVE",
"268 0 OFFCURVE",
"267 0 OFFCURVE",
"265 0 CURVE SMOOTH",
"217 -3 OFFCURVE",
"178 0 OFFCURVE",
"146 9 CURVE SMOOTH",
"114 19 OFFCURVE",
"91 32 OFFCURVE",
"79 48 CURVE SMOOTH",
"67 63 OFFCURVE",
"60 83 OFFCURVE",
"59 108 CURVE SMOOTH",
"57 135 OFFCURVE",
"64 167 OFFCURVE",
"81 202 CURVE SMOOTH",
"87 214 OFFCURVE",
"94 225 OFFCURVE",
"101 234 CURVE SMOOTH",
"108 243 OFFCURVE",
"120 250 OFFCURVE",
"134 256 CURVE SMOOTH",
"181 276 OFFCURVE",
"220 259 OFFCURVE",
"253 206 CURVE SMOOTH",
"272 176 OFFCURVE",
"286 140 OFFCURVE",
"294 97 CURVE",
"308 102 OFFCURVE",
"321 109 OFFCURVE",
"334 118 CURVE",
"315 133 OFFCURVE",
"311 154 OFFCURVE",
"319 179 CURVE SMOOTH",
"333 222 OFFCURVE",
"357 259 OFFCURVE",
"392 290 CURVE",
"385 301 OFFCURVE",
"375 307 OFFCURVE",
"360 309 CURVE SMOOTH",
"352 310 OFFCURVE",
"349 315 OFFCURVE",
"351 322 CURVE SMOOTH",
"367 382 OFFCURVE",
"389 411 OFFCURVE",
"417 410 CURVE SMOOTH",
"445 409 OFFCURVE",
"490 379 OFFCURVE",
"551 321 CURVE SMOOTH",
"612 263 OFFCURVE",
"646 216 OFFCURVE",
"652 181 CURVE SMOOTH",
"659 137 OFFCURVE",
"649 98 OFFCURVE",
"621 64 CURVE SMOOTH",
"607 47 OFFCURVE",
"590 40 OFFCURVE",
"569 42 CURVE SMOOTH",
"518 47 OFFCURVE",
"461 61 OFFCURVE",
"398 85 CURVE",
"360 51 OFFCURVE",
"328 28 OFFCURVE",
"303 14 CURVE"
);
},
{
closed = 1;
nodes = (
"244 104 OFFCURVE",
"235 121 OFFCURVE",
"225 140 CURVE",
"193 190 OFFCURVE",
"155 207 OFFCURVE",
"111 188 CURVE SMOOTH",
"91 180 OFFCURVE",
"83 169 OFFCURVE",
"88 158 CURVE SMOOTH",
"107 111 OFFCURVE",
"160 87 OFFCURVE",
"250 88 CURVE"
);
}
);
width = 712;
},
{
layerId = "037FF2D3-C03F-44B0-90AB-89AFD43EFA27";
width = 600;
}
);
unicode = 1EE84;
}
{
glyphname = u1EE85;
layers = (
{
layerId = "7FE84AD5-D318-40C5-A81A-3CDC73FF77D2";
paths = (
{
closed = 1;
nodes = (
"401 312 OFFCURVE",
"380 313 OFFCURVE",
"358 285 CURVE",
"375 266 OFFCURVE",
"396 265 OFFCURVE",
"420 281 CURVE"
);
},
{
closed = 1;
nodes = (
"106 -77 OFFCURVE",
"65 -29 OFFCURVE",
"59 53 CURVE SMOOTH",
"56 91 OFFCURVE",
"68 128 OFFCURVE",
"95 164 CURVE SMOOTH",
"110 184 OFFCURVE",
"126 195 OFFCURVE",
"146 199 CURVE SMOOTH",
"191 207 OFFCURVE",
"226 186 OFFCURVE",
"253 135 CURVE SMOOTH",
"274 97 OFFCURVE",
"289 49 OFFCURVE",
"297 -8 CURVE",
"318 3 OFFCURVE",
"339 18 OFFCURVE",
"361 38 CURVE SMOOTH",
"414 85 OFFCURVE",
"446 124 OFFCURVE",
"456 155 CURVE",
"453 182 OFFCURVE",
"449 198 OFFCURVE",
"444 201 CURVE",
"419 162 OFFCURVE",
"387 152 OFFCURVE",
"348 172 CURVE SMOOTH",
"308 192 OFFCURVE",
"302 241 OFFCURVE",
"330 318 CURVE SMOOTH",
"353 382 OFFCURVE",
"380 414 OFFCURVE",
"412 414 CURVE SMOOTH",
"431 414 OFFCURVE",
"448 401 OFFCURVE",
"465 374 CURVE SMOOTH",
"482 347 OFFCURVE",
"492 318 OFFCURVE",
"497 285 CURVE SMOOTH",
"502 252 OFFCURVE",
"496 205 OFFCURVE",
"481 146 CURVE SMOOTH",
"466 87 OFFCURVE",
"438 33 OFFCURVE",
"394 -17 CURVE SMOOTH",
"368 -47 OFFCURVE",
"338 -69 OFFCURVE",
"304 -81 CURVE",
"305 -97 OFFCURVE",
"305 -112 OFFCURVE",
"305 -129 CURVE SMOOTH",
"305 -141 OFFCURVE",
"300 -157 OFFCURVE",
"291 -176 CURVE",
"284 -188 LINE",
"279 -194 OFFCURVE",
"277 -194 OFFCURVE",
"277 -187 CURVE SMOOTH",
"277 -152 OFFCURVE",
"274 -119 OFFCURVE",
"271 -89 CURVE",
"243 -95 OFFCURVE",
"215 -95 OFFCURVE",
"183 -90 CURVE SMOOTH"
);
},
{
closed = 1;
nodes = (
"253 14 OFFCURVE",
"242 44 OFFCURVE",
"227 68 CURVE SMOOTH",
"193 123 OFFCURVE",
"158 144 OFFCURVE",
"123 130 CURVE SMOOTH",
"105 123 OFFCURVE",
"94 106 OFFCURVE",
"90 79 CURVE",
"86 51 OFFCURVE",
"92 25 OFFCURVE",
"106 0 CURVE SMOOTH",
"121 -27 OFFCURVE",
"166 -36 OFFCURVE",
"239 -27 CURVE SMOOTH",
"246 -26 OFFCURVE",
"254 -25 OFFCURVE",
"261 -23 CURVE"
);
}
);
width = 556;
},
{
layerId = "037FF2D3-C03F-44B0-90AB-89AFD43EFA27";
width = 600;
}
);
unicode = 1EE85;
}
{
glyphname = u1EE87;
layers = (
{
layerId = "7FE84AD5-D318-40C5-A81A-3CDC73FF77D2";
paths = (
{
closed = 1;
nodes = (
"471 -93 OFFCURVE",
"545 -67 OFFCURVE",
"607 -15 CURVE SMOOTH",
"651 21 OFFCURVE",
"670 67 OFFCURVE",
"663 124 CURVE SMOOTH",
"658 162 OFFCURVE",
"630 180 OFFCURVE",
"579 179 CURVE SMOOTH",
"511 178 OFFCURVE",
"463 146 OFFCURVE",
"434 84 CURVE SMOOTH",
"405 22 OFFCURVE",
"388 -37 OFFCURVE",
"383 -94 CURVE"
);
},
{
closed = 1;
nodes = (
"352 6 OFFCURVE",
"371 87 OFFCURVE",
"406 152 CURVE SMOOTH",
"442 219 OFFCURVE",
"492 254 OFFCURVE",
"555 257 CURVE SMOOTH",
"629 260 OFFCURVE",
"672 225 OFFCURVE",
"685 153 CURVE SMOOTH",
"701 65 OFFCURVE",
"688 -7 OFFCURVE",
"648 -64 CURVE SMOOTH",
"620 -104 OFFCURVE",
"577 -137 OFFCURVE",
"520 -163 CURVE SMOOTH",
"484 -179 OFFCURVE",
"438 -189 OFFCURVE",
"381 -194 CURVE",
"382 -228 OFFCURVE",
"386 -265 OFFCURVE",
"391 -305 CURVE SMOOTH",
"393 -317 OFFCURVE",
"391 -322 OFFCURVE",
"387 -322 CURVE",
"380 -320 OFFCURVE",
"374 -313 OFFCURVE",
"370 -299 CURVE SMOOTH",
"366 -285 OFFCURVE",
"364 -275 OFFCURVE",
"363 -270 CURVE SMOOTH",
"360 -244 OFFCURVE",
"357 -218 OFFCURVE",
"355 -194 CURVE",
"272 -190 OFFCURVE",
"206 -167 OFFCURVE",
"155 -125 CURVE SMOOTH",
"77 -61 OFFCURVE",
"49 38 OFFCURVE",
"71 173 CURVE SMOOTH",
"93 304 OFFCURVE",
"174 403 OFFCURVE",
"313 470 CURVE",
"223 492 OFFCURVE",
"155 489 OFFCURVE",
"110 463 CURVE SMOOTH",
"106 461 OFFCURVE",
"103 460 OFFCURVE",
"99 461 CURVE SMOOTH",
"95 462 OFFCURVE",
"93 463 OFFCURVE",
"93 467 CURVE SMOOTH",
"93 481 OFFCURVE",
"96 498 OFFCURVE",
"103 517 CURVE SMOOTH",
"115 552 OFFCURVE",
"148 570 OFFCURVE",
"200 573 CURVE SMOOTH",
"226 574 OFFCURVE",
"267 570 OFFCURVE",
"323 559 CURVE SMOOTH",
"379 548 OFFCURVE",
"427 542 OFFCURVE",
"466 543 CURVE SMOOTH",
"505 544 OFFCURVE",
"552 549 OFFCURVE",
"609 559 CURVE SMOOTH",
"629 562 OFFCURVE",
"635 556 OFFCURVE",
"628 541 CURVE SMOOTH",
"604 487 LINE SMOOTH",
"602 481 OFFCURVE",
"598 479 OFFCURVE",
"593 478 CURVE SMOOTH",
"433 457 OFFCURVE",
"322 425 OFFCURVE",
"258 383 CURVE SMOOTH",
"136 303 OFFCURVE",
"87 204 OFFCURVE",
"111 86 CURVE SMOOTH",
"124 23 OFFCURVE",
"164 -26 OFFCURVE",
"230 -64 CURVE SMOOTH",
"264 -83 OFFCURVE",
"304 -93 OFFCURVE",
"351 -93 CURVE"
);
}
);
width = 749;
},
{
layerId = "037FF2D3-C03F-44B0-90AB-89AFD43EFA27";
width = 600;
}
);
unicode = 1EE87;
}
{
glyphname = u1EE88;
layers = (
{
layerId = "7FE84AD5-D318-40C5-A81A-3CDC73FF77D2";
paths = (
{
closed = 1;
nodes = (
"505 189 OFFCURVE",
"444 150 OFFCURVE",
"371 85 CURVE",
"508 100 OFFCURVE",
"618 130 OFFCURVE",
"700 173 CURVE",
"678 217 OFFCURVE",
"629 227 OFFCURVE",
"553 204 CURVE SMOOTH"
);
},
{
closed = 1;
nodes = (
"126 75 OFFCURVE",
"174 67 OFFCURVE",
"250 72 CURVE",
"243 90 OFFCURVE",
"235 106 OFFCURVE",
"226 121 CURVE SMOOTH",
"195 171 OFFCURVE",
"157 187 OFFCURVE",
"112 168 CURVE SMOOTH",
"96 161 OFFCURVE",
"87 151 OFFCURVE",
"88 137 CURVE SMOOTH",
"89 123 OFFCURVE",
"95 109 OFFCURVE",
"107 96 CURVE SMOOTH"
);
},
{
closed = 1;
nodes = (
"304 -32 OFFCURVE",
"304 -33 OFFCURVE",
"304 -38 CURVE SMOOTH",
"304 -50 OFFCURVE",
"299 -67 OFFCURVE",
"290 -86 CURVE SMOOTH",
"281 -105 OFFCURVE",
"276 -109 OFFCURVE",
"276 -97 CURVE SMOOTH",
"276 -73 OFFCURVE",
"274 -50 OFFCURVE",
"272 -28 CURVE",
"267 -28 OFFCURVE",
"267 -28 OFFCURVE",
"262 -28 CURVE SMOOTH",
"207 -26 OFFCURVE",
"166 -20 OFFCURVE",
"138 -8 CURVE SMOOTH",
"110 4 OFFCURVE",
"91 16 OFFCURVE",
"79 29 CURVE SMOOTH",
"67 42 OFFCURVE",
"61 62 OFFCURVE",
"59 89 CURVE SMOOTH",
"57 116 OFFCURVE",
"65 147 OFFCURVE",
"82 182 CURVE SMOOTH",
"88 194 OFFCURVE",
"95 205 OFFCURVE",
"102 214 CURVE SMOOTH",
"109 223 OFFCURVE",
"120 230 OFFCURVE",
"134 236 CURVE SMOOTH",
"181 256 OFFCURVE",
"221 240 OFFCURVE",
"254 187 CURVE SMOOTH",
"273 157 OFFCURVE",
"286 120 OFFCURVE",
"294 76 CURVE",
"300 77 OFFCURVE",
"307 77 OFFCURVE",
"313 78 CURVE",
"379 143 LINE",
"384 242 OFFCURVE",
"374 381 OFFCURVE",
"351 559 CURVE SMOOTH",
"344 616 OFFCURVE",
"340 647 OFFCURVE",
"338 654 CURVE SMOOTH",
"336 661 OFFCURVE",
"337 666 OFFCURVE",
"339 672 CURVE SMOOTH",
"352 703 OFFCURVE",
"359 720 OFFCURVE",
"361 723 CURVE SMOOTH",
"363 726 OFFCURVE",
"367 728 OFFCURVE",
"371 728 CURVE SMOOTH",
"375 728 OFFCURVE",
"377 725 OFFCURVE",
"378 722 CURVE SMOOTH",
"387 692 OFFCURVE",
"401 667 OFFCURVE",
"422 644 CURVE",
"422 623 LINE",
"403 598 LINE SMOOTH",
"399 593 OFFCURVE",
"397 587 OFFCURVE",
"398 581 CURVE SMOOTH",
"414 432 OFFCURVE",
"420 330 OFFCURVE",
"417 275 CURVE SMOOTH",
"414 220 OFFCURVE",
"411 184 OFFCURVE",
"407 167 CURVE",
"489 231 OFFCURVE",
"548 271 OFFCURVE",
"583 288 CURVE SMOOTH",
"618 305 OFFCURVE",
"649 315 OFFCURVE",
"674 318 CURVE SMOOTH",
"688 320 OFFCURVE",
"703 316 OFFCURVE",
"720 305 CURVE",
"756 282 OFFCURVE",
"776 260 OFFCURVE",
"778 240 CURVE SMOOTH",
"780 220 OFFCURVE",
"773 193 OFFCURVE",
"755 159 CURVE SMOOTH",
"737 125 OFFCURVE",
"723 102 OFFCURVE",
"712 90 CURVE SMOOTH",
"695 72 OFFCURVE",
"635 48 OFFCURVE",
"532 16 CURVE SMOOTH",
"447 -10 OFFCURVE",
"371 -24 OFFCURVE",
"304 -27 CURVE"
);
}
);
width = 836;
},
{
layerId = "037FF2D3-C03F-44B0-90AB-89AFD43EFA27";
width = 600;
}
);
unicode = 1EE88;
}
{
glyphname = u1EE89;
layers = (
{
components = (
{
name = "twodotshorizontalbelow-ar";
transform = "{1, 0, 0, 1, 400, -253}";
}
);
layerId = "7FE84AD5-D318-40C5-A81A-3CDC73FF77D2";
paths = (
{
closed = 1;
nodes = (
"116 335 OFFCURVE",
"152 362 OFFCURVE",
"199 355 CURVE SMOOTH",
"265 345 OFFCURVE",
"308 301 OFFCURVE",
"325 224 CURVE SMOOTH",
"336 175 OFFCURVE",
"333 116 OFFCURVE",
"318 45 CURVE",
"442 48 OFFCURVE",
"543 80 OFFCURVE",
"620 142 CURVE SMOOTH",
"627 147 OFFCURVE",
"628 152 OFFCURVE",
"622 157 CURVE SMOOTH",
"611 166 OFFCURVE",
"572 173 OFFCURVE",
"508 177 CURVE SMOOTH",
"443 181 OFFCURVE",
"405 198 OFFCURVE",
"395 227 CURVE SMOOTH",
"385 256 OFFCURVE",
"386 289 OFFCURVE",
"398 325 CURVE SMOOTH",
"421 397 OFFCURVE",
"468 458 OFFCURVE",
"538 509 CURVE SMOOTH",
"573 535 OFFCURVE",
"604 548 OFFCURVE",
"629 550 CURVE SMOOTH",
"690 554 OFFCURVE",
"712 522 OFFCURVE",
"693 456 CURVE SMOOTH",
"688 438 OFFCURVE",
"680 432 OFFCURVE",
"668 439 CURVE SMOOTH",
"628 461 OFFCURVE",
"576 455 OFFCURVE",
"515 420 CURVE SMOOTH",
"475 397 OFFCURVE",
"447 364 OFFCURVE",
"432 321 CURVE SMOOTH",
"429 313 OFFCURVE",
"430 303 OFFCURVE",
"434 294 CURVE SMOOTH",
"449 262 OFFCURVE",
"492 244 OFFCURVE",
"562 240 CURVE SMOOTH",
"633 236 OFFCURVE",
"671 222 OFFCURVE",
"674 196 CURVE SMOOTH",
"681 144 OFFCURVE",
"665 102 OFFCURVE",
"629 73 CURVE SMOOTH",
"533 -4 OFFCURVE",
"424 -44 OFFCURVE",
"302 -49 CURVE SMOOTH",
"299 -49 OFFCURVE",
"296 -50 OFFCURVE",
"293 -50 CURVE",
"283 -82 OFFCURVE",
"270 -115 OFFCURVE",
"255 -150 CURVE SMOOTH",
"253 -155 OFFCURVE",
"248 -165 OFFCURVE",
"240 -177 CURVE SMOOTH",
"233 -189 OFFCURVE",
"225 -195 OFFCURVE",
"218 -195 CURVE",
"214 -194 OFFCURVE",
"215 -188 OFFCURVE",
"219 -177 CURVE SMOOTH",
"238 -131 OFFCURVE",
"253 -88 OFFCURVE",
"264 -49 CURVE",
"142 -44 OFFCURVE",
"74 10 OFFCURVE",
"60 113 CURVE SMOOTH",
"54 156 OFFCURVE",
"65 210 OFFCURVE",
"92 276 CURVE SMOOTH"
);
},
{
closed = 1;
nodes = (
"291 93 OFFCURVE",
"290 134 OFFCURVE",
"282 169 CURVE SMOOTH",
"269 224 OFFCURVE",
"239 261 OFFCURVE",
"190 278 CURVE SMOOTH",
"155 290 OFFCURVE",
"132 280 OFFCURVE",
"119 250 CURVE SMOOTH",
"104 214 OFFCURVE",
"102 182 OFFCURVE",
"112 155 CURVE",
"134 86 OFFCURVE",
"191 50 OFFCURVE",
"284 45 CURVE"
);
}
);
width = 757;
},
{
layerId = "037FF2D3-C03F-44B0-90AB-89AFD43EFA27";
width = 600;
}
);
unicode = 1EE89;
}
{
glyphname = u1EE8B;
layers = (
{
layerId = "7FE84AD5-D318-40C5-A81A-3CDC73FF77D2";
paths = (
{
closed = 1;
nodes = (
"108 217 OFFCURVE",
"100 185 OFFCURVE",
"103 159 CURVE SMOOTH",
"112 77 OFFCURVE",
"172 38 OFFCURVE",
"285 42 CURVE SMOOTH",
"312 43 OFFCURVE",
"336 45 OFFCURVE",
"358 50 CURVE",
"360 82 OFFCURVE",
"359 111 OFFCURVE",
"353 136 CURVE SMOOTH",
"333 221 OFFCURVE",
"294 270 OFFCURVE",
"235 286 CURVE SMOOTH",
"182 300 OFFCURVE",
"146 291 OFFCURVE",
"129 257 CURVE SMOOTH"
);
},
{
closed = 1;
nodes = (
"364 -84 OFFCURVE",
"346 -133 OFFCURVE",
"325 -185 CURVE SMOOTH",
"323 -190 OFFCURVE",
"319 -199 OFFCURVE",
"311 -211 CURVE SMOOTH",
"303 -223 OFFCURVE",
"296 -230 OFFCURVE",
"289 -229 CURVE",
"285 -228 OFFCURVE",
"286 -221 OFFCURVE",
"290 -211 CURVE SMOOTH",
"314 -152 OFFCURVE",
"332 -99 OFFCURVE",
"343 -51 CURVE",
"310 -60 OFFCURVE",
"280 -64 OFFCURVE",
"252 -64 CURVE SMOOTH",
"124 -62 OFFCURVE",
"60 -6 OFFCURVE",
"59 104 CURVE SMOOTH",
"58 168 OFFCURVE",
"77 231 OFFCURVE",
"117 290 CURVE SMOOTH",
"152 342 OFFCURVE",
"192 366 OFFCURVE",
"235 360 CURVE SMOOTH",
"317 349 OFFCURVE",
"371 293 OFFCURVE",
"396 190 CURVE SMOOTH",
"404 154 OFFCURVE",
"405 111 OFFCURVE",
"398 62 CURVE",
"438 77 OFFCURVE",
"470 99 OFFCURVE",
"494 129 CURVE",
"492 171 OFFCURVE",
"485 245 OFFCURVE",
"471 352 CURVE SMOOTH",
"457 459 OFFCURVE",
"447 558 OFFCURVE",
"440 652 CURVE",
"437 686 LINE",
"437 692 OFFCURVE",
"437 696 OFFCURVE",
"439 700 CURVE SMOOTH",
"458 744 LINE SMOOTH",
"460 749 OFFCURVE",
"463 751 OFFCURVE",
"468 751 CURVE SMOOTH",
"473 751 OFFCURVE",
"477 748 OFFCURVE",
"479 742 CURVE SMOOTH",
"488 713 OFFCURVE",
"502 689 OFFCURVE",
"520 669 CURVE SMOOTH",
"526 663 OFFCURVE",
"525 655 OFFCURVE",
"518 645 CURVE SMOOTH",
"511 635 OFFCURVE",
"506 627 OFFCURVE",
"502 622 CURVE SMOOTH",
"498 617 OFFCURVE",
"496 611 OFFCURVE",
"496 602 CURVE SMOOTH",
"497 569 OFFCURVE",
"504 508 OFFCURVE",
"515 420 CURVE SMOOTH",
"525 343 OFFCURVE",
"531 283 OFFCURVE",
"534 241 CURVE SMOOTH",
"539 174 OFFCURVE",
"530 113 OFFCURVE",
"507 58 CURVE SMOOTH",
"493 24 OFFCURVE",
"458 -5 OFFCURVE",
"402 -29 CURVE SMOOTH",
"393 -33 OFFCURVE",
"384 -37 OFFCURVE",
"376 -40 CURVE"
);
}
);
width = 593;
},
{
layerId = "037FF2D3-C03F-44B0-90AB-89AFD43EFA27";
width = 600;
}
);
unicode = 1EE8B;
}
{
glyphname = u1EE8C;
layers = (
{
layerId = "7FE84AD5-D318-40C5-A81A-3CDC73FF77D2";
paths = (
{
closed = 1;
nodes = (
"205 488 OFFCURVE",
"235 496 OFFCURVE",
"269 500 CURVE",
"245 520 OFFCURVE",
"226 529 OFFCURVE",
"213 525 CURVE SMOOTH",
"195 520 OFFCURVE",
"184 504 OFFCURVE",
"181 478 CURVE"
);
},
{
closed = 1;
nodes = (
"215 -167 OFFCURVE",
"209 -186 OFFCURVE",
"197 -215 CURVE SMOOTH",
"187 -239 OFFCURVE",
"177 -256 OFFCURVE",
"165 -264 CURVE SMOOTH",
"153 -272 OFFCURVE",
"137 -274 OFFCURVE",
"118 -269 CURVE SMOOTH",
"85 -260 OFFCURVE",
"67 -229 OFFCURVE",
"61 -176 CURVE SMOOTH",
"57 -139 OFFCURVE",
"59 -105 OFFCURVE",
"68 -75 CURVE SMOOTH",
"82 -29 OFFCURVE",
"101 0 OFFCURVE",
"125 12 CURVE SMOOTH",
"133 16 OFFCURVE",
"140 19 OFFCURVE",
"148 21 CURVE",
"145 35 OFFCURVE",
"145 34 OFFCURVE",
"142 48 CURVE SMOOTH",
"102 201 OFFCURVE",
"84 297 OFFCURVE",
"90 335 CURVE SMOOTH",
"97 386 OFFCURVE",
"111 421 OFFCURVE",
"129 441 CURVE",
"135 484 OFFCURVE",
"147 526 OFFCURVE",
"166 565 CURVE SMOOTH",
"185 604 OFFCURVE",
"206 628 OFFCURVE",
"228 636 CURVE",
"259 648 OFFCURVE",
"297 635 OFFCURVE",
"342 597 CURVE SMOOTH",
"366 577 OFFCURVE",
"387 554 OFFCURVE",
"407 529 CURVE SMOOTH",
"413 522 OFFCURVE",
"415 515 OFFCURVE",
"414 508 CURVE SMOOTH",
"404 450 OFFCURVE",
"398 416 OFFCURVE",
"395 409 CURVE SMOOTH",
"392 402 OFFCURVE",
"386 399 OFFCURVE",
"378 401 CURVE",
"267 427 OFFCURVE",
"184 407 OFFCURVE",
"129 341 CURVE SMOOTH",
"124 335 OFFCURVE",
"123 328 OFFCURVE",
"125 321 CURVE SMOOTH",
"149 234 OFFCURVE",
"170 139 OFFCURVE",
"190 35 CURVE SMOOTH",
"191 29 OFFCURVE",
"193 23 OFFCURVE",
"194 17 CURVE",
"213 9 OFFCURVE",
"231 -8 OFFCURVE",
"247 -33 CURVE SMOOTH",
"282 -86 OFFCURVE",
"299 -163 OFFCURVE",
"300 -262 CURVE SMOOTH",
"300 -267 OFFCURVE",
"298 -276 OFFCURVE",
"294 -290 CURVE SMOOTH",
"290 -304 OFFCURVE",
"286 -314 OFFCURVE",
"280 -321 CURVE SMOOTH",
"274 -328 OFFCURVE",
"272 -328 OFFCURVE",
"272 -321 CURVE SMOOTH",
"271 -226 OFFCURVE",
"254 -153 OFFCURVE",
"220 -101 CURVE SMOOTH",
"217 -96 OFFCURVE",
"214 -91 OFFCURVE",
"211 -87 CURVE",
"215 -116 OFFCURVE",
"216 -140 OFFCURVE",
"215 -158 CURVE SMOOTH"
);
},
{
closed = 1;
nodes = (
"145 -43 OFFCURVE",
"125 -45 OFFCURVE",
"103 -56 CURVE SMOOTH",
"97 -59 OFFCURVE",
"91 -62 OFFCURVE",
"87 -67 CURVE",
"86 -80 OFFCURVE",
"87 -96 OFFCURVE",
"89 -114 CURVE SMOOTH",
"95 -163 OFFCURVE",
"112 -193 OFFCURVE",
"143 -200 CURVE SMOOTH",
"169 -207 OFFCURVE",
"182 -198 OFFCURVE",
"183 -175 CURVE",
"179 -137 OFFCURVE",
"173 -95 OFFCURVE",
"164 -50 CURVE"
);
}
);
width = 472;
},
{
layerId = "037FF2D3-C03F-44B0-90AB-89AFD43EFA27";
width = 600;
}
);
unicode = 1EE8C;
}
{
glyphname = u1EE8D;
layers = (
{
components = (
{
name = "dotabove-ar";
transform = "{1, 0, 0, 1, 264, 483}";
}
);
layerId = "7FE84AD5-D318-40C5-A81A-3CDC73FF77D2";
paths = (
{
closed = 1;
nodes = (
"149 343 OFFCURVE",
"188 366 OFFCURVE",
"235 360 CURVE SMOOTH",
"317 349 OFFCURVE",
"370 293 OFFCURVE",
"395 190 CURVE SMOOTH",
"403 155 OFFCURVE",
"405 113 OFFCURVE",
"398 65 CURVE",
"428 79 OFFCURVE",
"453 99 OFFCURVE",
"472 125 CURVE SMOOTH",
"473 126 OFFCURVE",
"474 130 OFFCURVE",
"474 134 CURVE SMOOTH",
"475 165 OFFCURVE",
"465 207 OFFCURVE",
"445 259 CURVE SMOOTH",
"425 311 OFFCURVE",
"408 349 OFFCURVE",
"392 372 CURVE SMOOTH",
"387 379 OFFCURVE",
"386 384 OFFCURVE",
"388 389 CURVE SMOOTH",
"418 463 LINE SMOOTH",
"422 472 OFFCURVE",
"427 471 OFFCURVE",
"434 460 CURVE",
"457 416 OFFCURVE",
"476 364 OFFCURVE",
"491 302 CURVE SMOOTH",
"506 240 OFFCURVE",
"508 181 OFFCURVE",
"499 123 CURVE SMOOTH",
"494 92 OFFCURVE",
"484 64 OFFCURVE",
"469 41 CURVE SMOOTH",
"447 7 OFFCURVE",
"417 -19 OFFCURVE",
"377 -37 CURVE",
"364 -82 OFFCURVE",
"347 -132 OFFCURVE",
"325 -185 CURVE SMOOTH",
"323 -190 OFFCURVE",
"318 -199 OFFCURVE",
"311 -211 CURVE SMOOTH",
"304 -223 OFFCURVE",
"296 -230 OFFCURVE",
"289 -229 CURVE",
"285 -228 OFFCURVE",
"286 -221 OFFCURVE",
"290 -211 CURVE SMOOTH",
"314 -152 OFFCURVE",
"332 -98 OFFCURVE",
"343 -49 CURVE",
"320 -56 OFFCURVE",
"295 -61 OFFCURVE",
"267 -64 CURVE SMOOTH",
"198 -71 OFFCURVE",
"144 -57 OFFCURVE",
"108 -23 CURVE SMOOTH",
"72 12 OFFCURVE",
"55 58 OFFCURVE",
"59 117 CURVE SMOOTH",
"63 175 OFFCURVE",
"82 233 OFFCURVE",
"117 290 CURVE SMOOTH"
);
},
{
closed = 1;
nodes = (
"360 82 OFFCURVE",
"359 111 OFFCURVE",
"353 136 CURVE SMOOTH",
"334 218 OFFCURVE",
"291 269 OFFCURVE",
"226 288 CURVE SMOOTH",
"177 302 OFFCURVE",
"142 288 OFFCURVE",
"121 244 CURVE SMOOTH",
"93 185 OFFCURVE",
"89 138 OFFCURVE",
"110 103 CURVE SMOOTH",
"136 59 OFFCURVE",
"186 37 OFFCURVE",
"261 38 CURVE SMOOTH",
"297 38 OFFCURVE",
"329 42 OFFCURVE",
"358 50 CURVE"
);
}
);
width = 562;
},
{
layerId = "037FF2D3-C03F-44B0-90AB-89AFD43EFA27";
width = 600;
}
);
unicode = 1EE8D;
}
{
glyphname = u1EE8E;
layers = (
{
layerId = "7FE84AD5-D318-40C5-A81A-3CDC73FF77D2";
paths = (
{
closed = 1;
nodes = (
"94 275 OFFCURVE",
"144 331 OFFCURVE",
"217 322 CURVE SMOOTH",
"299 311 OFFCURVE",
"353 255 OFFCURVE",
"377 152 CURVE SMOOTH",
"386 113 OFFCURVE",
"387 65 OFFCURVE",
"378 10 CURVE",
"468 25 OFFCURVE",
"535 68 OFFCURVE",
"580 138 CURVE",
"584 196 OFFCURVE",
"571 254 OFFCURVE",
"541 312 CURVE SMOOTH",
"537 319 OFFCURVE",
"536 324 OFFCURVE",
"538 328 CURVE SMOOTH",
"552 359 OFFCURVE",
"565 382 OFFCURVE",
"574 396 CURVE SMOOTH",
"577 400 OFFCURVE",
"580 400 OFFCURVE",
"583 397 CURVE SMOOTH",
"586 394 OFFCURVE",
"593 384 OFFCURVE",
"604 365 CURVE SMOOTH",
"615 346 OFFCURVE",
"623 336 OFFCURVE",
"629 335 CURVE SMOOTH",
"663 327 OFFCURVE",
"698 337 OFFCURVE",
"733 366 CURVE SMOOTH",
"746 377 OFFCURVE",
"758 408 OFFCURVE",
"770 458 CURVE SMOOTH",
"771 464 OFFCURVE",
"774 466 OFFCURVE",
"778 468 CURVE SMOOTH",
"782 470 OFFCURVE",
"786 470 OFFCURVE",
"789 468 CURVE SMOOTH",
"796 464 OFFCURVE",
"796 445 OFFCURVE",
"790 410 CURVE",
"817 390 OFFCURVE",
"846 383 OFFCURVE",
"879 386 CURVE",
"879 396 OFFCURVE",
"878 403 OFFCURVE",
"874 407 CURVE SMOOTH",
"870 411 OFFCURVE",
"869 415 OFFCURVE",
"870 419 CURVE SMOOTH",
"888 491 LINE SMOOTH",
"890 498 OFFCURVE",
"893 501 OFFCURVE",
"898 501 CURVE SMOOTH",
"903 501 OFFCURVE",
"908 499 OFFCURVE",
"911 493 CURVE SMOOTH",
"920 478 OFFCURVE",
"924 456 OFFCURVE",
"924 425 CURVE SMOOTH",
"924 376 OFFCURVE",
"912 333 OFFCURVE",
"889 295 CURVE SMOOTH",
"883 285 OFFCURVE",
"874 278 OFFCURVE",
"864 276 CURVE SMOOTH",
"834 269 OFFCURVE",
"798 279 OFFCURVE",
"756 305 CURVE",
"726 252 OFFCURVE",
"683 228 OFFCURVE",
"627 236 CURVE",
"624 179 OFFCURVE",
"615 130 OFFCURVE",
"601 88 CURVE SMOOTH",
"587 46 OFFCURVE",
"562 12 OFFCURVE",
"527 -16 CURVE SMOOTH",
"473 -58 OFFCURVE",
"415 -85 OFFCURVE",
"353 -96 CURVE",
"341 -135 OFFCURVE",
"326 -178 OFFCURVE",
"307 -223 CURVE SMOOTH",
"305 -228 OFFCURVE",
"301 -237 OFFCURVE",
"293 -249 CURVE SMOOTH",
"285 -261 OFFCURVE",
"277 -267 OFFCURVE",
"270 -267 CURVE",
"266 -266 OFFCURVE",
"267 -260 OFFCURVE",
"271 -249 CURVE SMOOTH",
"293 -195 OFFCURVE",
"310 -146 OFFCURVE",
"322 -101 CURVE",
"306 -103 OFFCURVE",
"290 -103 OFFCURVE",
"274 -102 CURVE SMOOTH",
"160 -99 OFFCURVE",
"90 -51 OFFCURVE",
"63 41 CURVE SMOOTH",
"56 67 OFFCURVE",
"57 104 OFFCURVE",
"67 153 CURVE"
);
},
{
closed = 1;
nodes = (
"342 40 OFFCURVE",
"340 70 OFFCURVE",
"334 97 CURVE SMOOTH",
"315 180 OFFCURVE",
"273 231 OFFCURVE",
"208 250 CURVE SMOOTH",
"166 262 OFFCURVE",
"136 253 OFFCURVE",
"118 224 CURVE SMOOTH",
"101 197 OFFCURVE",
"94 169 OFFCURVE",
"95 139 CURVE SMOOTH",
"99 53 OFFCURVE",
"162 7 OFFCURVE",
"284 4 CURVE SMOOTH",
"304 4 OFFCURVE",
"322 5 OFFCURVE",
"340 6 CURVE"
);
}
);
width = 982;
},
{
layerId = "037FF2D3-C03F-44B0-90AB-89AFD43EFA27";
width = 600;
}
);
unicode = 1EE8E;
}
{
glyphname = u1EE8F;
layers = (
{
layerId = "7FE84AD5-D318-40C5-A81A-3CDC73FF77D2";
paths = (
{
closed = 1;
nodes = (
"59 226 OFFCURVE",
"104 341 OFFCURVE",
"193 428 CURVE",
"141 449 OFFCURVE",
"106 471 OFFCURVE",
"89 494 CURVE SMOOTH",
"82 503 OFFCURVE",
"79 514 OFFCURVE",
"80 526 CURVE SMOOTH",
"83 557 OFFCURVE",
"91 585 OFFCURVE",
"105 611 CURVE SMOOTH",
"137 669 OFFCURVE",
"172 709 OFFCURVE",
"212 728 CURVE SMOOTH",
"232 737 OFFCURVE",
"255 734 OFFCURVE",
"283 718 CURVE SMOOTH",
"311 702 OFFCURVE",
"330 685 OFFCURVE",
"341 669 CURVE SMOOTH",
"348 659 OFFCURVE",
"344 656 OFFCURVE",
"328 659 CURVE SMOOTH",
"242 677 OFFCURVE",
"171 647 OFFCURVE",
"115 572 CURVE SMOOTH",
"112 568 OFFCURVE",
"112 565 OFFCURVE",
"117 560 CURVE SMOOTH",
"161 516 OFFCURVE",
"216 497 OFFCURVE",
"282 505 CURVE SMOOTH",
"293 506 OFFCURVE",
"308 514 OFFCURVE",
"329 526 CURVE SMOOTH",
"407 573 OFFCURVE",
"452 599 OFFCURVE",
"461 605 CURVE SMOOTH",
"474 612 OFFCURVE",
"477 607 OFFCURVE",
"470 588 CURVE SMOOTH",
"455 546 OFFCURVE",
"444 523 OFFCURVE",
"435 519 CURVE SMOOTH",
"378 493 OFFCURVE",
"312 452 OFFCURVE",
"237 397 CURVE SMOOTH",
"150 334 OFFCURVE",
"101 247 OFFCURVE",
"89 138 CURVE SMOOTH",
"83 81 OFFCURVE",
"96 30 OFFCURVE",
"131 -14 CURVE SMOOTH",
"177 -72 OFFCURVE",
"247 -102 OFFCURVE",
"341 -105 CURVE",
"342 -4 OFFCURVE",
"361 80 OFFCURVE",
"395 146 CURVE SMOOTH",
"431 215 OFFCURVE",
"481 251 OFFCURVE",
"545 254 CURVE SMOOTH",
"621 257 OFFCURVE",
"665 219 OFFCURVE",
"678 139 CURVE SMOOTH",
"691 57 OFFCURVE",
"678 -11 OFFCURVE",
"638 -67 CURVE SMOOTH",
"610 -107 OFFCURVE",
"567 -139 OFFCURVE",
"510 -165 CURVE SMOOTH",
"474 -181 OFFCURVE",
"428 -192 OFFCURVE",
"371 -197 CURVE",
"372 -231 OFFCURVE",
"376 -268 OFFCURVE",
"381 -308 CURVE SMOOTH",
"383 -320 OFFCURVE",
"381 -325 OFFCURVE",
"377 -325 CURVE",
"370 -323 OFFCURVE",
"364 -316 OFFCURVE",
"360 -302 CURVE SMOOTH",
"356 -288 OFFCURVE",
"354 -278 OFFCURVE",
"353 -273 CURVE SMOOTH",
"350 -247 OFFCURVE",
"347 -221 OFFCURVE",
"345 -197 CURVE",
"154 -190 OFFCURVE",
"58 -97 OFFCURVE",
"59 83 CURVE SMOOTH"
);
},
{
closed = 1;
nodes = (
"472 -105 OFFCURVE",
"546 -78 OFFCURVE",
"597 -27 CURVE SMOOTH",
"640 17 OFFCURVE",
"658 59 OFFCURVE",
"651 100 CURVE",
"643 149 OFFCURVE",
"608 173 OFFCURVE",
"549 172 CURVE SMOOTH",
"490 171 OFFCURVE",
"448 139 OFFCURVE",
"422 77 CURVE SMOOTH",
"395 12 OFFCURVE",
"379 -49 OFFCURVE",
"373 -106 CURVE"
);
}
);
width = 741;
},
{
layerId = "037FF2D3-C03F-44B0-90AB-89AFD43EFA27";
width = 600;
}
);
unicode = 1EE8F;
}
{
glyphname = u1EE90;
layers = (
{
components = (
{
name = "dotabove-ar";
transform = "{1, 0, 0, 1, 630, 591}";
}
);
layerId = "7FE84AD5-D318-40C5-A81A-3CDC73FF77D2";
paths = (
{
closed = 1;
nodes = (
"809 369 OFFCURVE",
"808 375 OFFCURVE",
"801 381 CURVE SMOOTH",
"777 401 OFFCURVE",
"758 399 OFFCURVE",
"745 375 CURVE SMOOTH",
"742 369 OFFCURVE",
"742 365 OFFCURVE",
"746 361 CURVE SMOOTH",
"765 345 OFFCURVE",
"784 346 OFFCURVE",
"802 363 CURVE SMOOTH"
);
},
{
closed = 1;
nodes = (
"108 325 OFFCURVE",
"137 346 OFFCURVE",
"176 351 CURVE SMOOTH",
"194 353 OFFCURVE",
"212 352 OFFCURVE",
"233 348 CURVE SMOOTH",
"301 333 OFFCURVE",
"348 284 OFFCURVE",
"373 200 CURVE SMOOTH",
"382 169 OFFCURVE",
"387 131 OFFCURVE",
"386 89 CURVE",
"408 90 OFFCURVE",
"431 93 OFFCURVE",
"456 96 CURVE SMOOTH",
"577 110 OFFCURVE",
"700 149 OFFCURVE",
"825 212 CURVE SMOOTH",
"861 230 OFFCURVE",
"882 251 OFFCURVE",
"887 275 CURVE",
"885 288 OFFCURVE",
"876 302 OFFCURVE",
"861 317 CURVE SMOOTH",
"860 318 OFFCURVE",
"858 316 OFFCURVE",
"856 312 CURVE SMOOTH",
"837 277 OFFCURVE",
"814 258 OFFCURVE",
"787 254 CURVE SMOOTH",
"733 246 OFFCURVE",
"702 268 OFFCURVE",
"693 318 CURVE SMOOTH",
"687 352 OFFCURVE",
"706 403 OFFCURVE",
"750 471 CURVE SMOOTH",
"761 488 OFFCURVE",
"775 499 OFFCURVE",
"792 504 CURVE SMOOTH",
"819 512 OFFCURVE",
"845 496 OFFCURVE",
"871 455 CURVE SMOOTH",
"897 414 OFFCURVE",
"912 356 OFFCURVE",
"916 281 CURVE SMOOTH",
"918 254 OFFCURVE",
"914 231 OFFCURVE",
"906 212 CURVE SMOOTH",
"888 170 OFFCURVE",
"847 133 OFFCURVE",
"783 99 CURVE SMOOTH",
"719 65 OFFCURVE",
"644 40 OFFCURVE",
"560 21 CURVE SMOOTH",
"494 6 OFFCURVE",
"432 -4 OFFCURVE",
"374 -7 CURVE",
"365 -56 OFFCURVE",
"351 -110 OFFCURVE",
"331 -169 CURVE SMOOTH",
"327 -181 OFFCURVE",
"318 -194 OFFCURVE",
"303 -209 CURVE SMOOTH",
"288 -224 OFFCURVE",
"282 -227 OFFCURVE",
"286 -215 CURVE SMOOTH",
"312 -137 OFFCURVE",
"328 -68 OFFCURVE",
"335 -8 CURVE",
"332 -8 OFFCURVE",
"332 -8 OFFCURVE",
"329 -8 CURVE SMOOTH",
"161 -9 OFFCURVE",
"70 43 OFFCURVE",
"59 149 CURVE SMOOTH",
"57 170 OFFCURVE",
"60 196 OFFCURVE",
"67 227 CURVE SMOOTH",
"72 250 OFFCURVE",
"79 270 OFFCURVE",
"88 288 CURVE SMOOTH"
);
},
{
closed = 1;
nodes = (
"335 109 OFFCURVE",
"332 128 OFFCURVE",
"327 145 CURVE SMOOTH",
"303 225 OFFCURVE",
"256 273 OFFCURVE",
"188 290 CURVE SMOOTH",
"146 300 OFFCURVE",
"119 293 OFFCURVE",
"106 267 CURVE SMOOTH",
"83 219 OFFCURVE",
"89 178 OFFCURVE",
"127 144 CURVE SMOOTH",
"169 106 OFFCURVE",
"239 88 OFFCURVE",
"337 88 CURVE"
);
}
);
width = 974;
},
{
layerId = "037FF2D3-C03F-44B0-90AB-89AFD43EFA27";
width = 600;
}
);
unicode = 1EE90;
}
{
glyphname = u1EE91;
layers = (
{
layerId = "7FE84AD5-D318-40C5-A81A-3CDC73FF77D2";
paths = (
{
closed = 1;
nodes = (
"132 47 OFFCURVE",
"188 3 OFFCURVE",
"284 0 CURVE SMOOTH",
"304 0 OFFCURVE",
"323 0 OFFCURVE",
"342 2 CURVE",
"345 37 OFFCURVE",
"343 69 OFFCURVE",
"336 96 CURVE SMOOTH",
"318 174 OFFCURVE",
"277 224 OFFCURVE",
"210 248 CURVE SMOOTH",
"181 258 OFFCURVE",
"157 254 OFFCURVE",
"138 234 CURVE SMOOTH",
"117 212 OFFCURVE",
"110 179 OFFCURVE",
"117 136 CURVE SMOOTH"
);
},
{
closed = 1;
nodes = (
"1044 410 OFFCURVE",
"1001 422 OFFCURVE",
"954 410 CURVE SMOOTH",
"907 398 OFFCURVE",
"846 363 OFFCURVE",
"770 305 CURVE",
"910 297 OFFCURVE",
"1015 319 OFFCURVE",
"1085 372 CURVE"
);
},
{
closed = 1;
nodes = (
"344 -134 OFFCURVE",
"328 -177 OFFCURVE",
"309 -224 CURVE SMOOTH",
"307 -229 OFFCURVE",
"303 -238 OFFCURVE",
"295 -250 CURVE SMOOTH",
"287 -262 OFFCURVE",
"279 -269 OFFCURVE",
"272 -269 CURVE",
"268 -268 OFFCURVE",
"269 -261 OFFCURVE",
"273 -250 CURVE SMOOTH",
"295 -195 OFFCURVE",
"312 -145 OFFCURVE",
"324 -99 CURVE",
"314 -100 OFFCURVE",
"305 -101 OFFCURVE",
"295 -102 CURVE SMOOTH",
"175 -110 OFFCURVE",
"100 -65 OFFCURVE",
"68 31 CURVE SMOOTH",
"49 88 OFFCURVE",
"60 161 OFFCURVE",
"100 250 CURVE SMOOTH",
"124 304 OFFCURVE",
"164 327 OFFCURVE",
"219 320 CURVE SMOOTH",
"301 309 OFFCURVE",
"355 253 OFFCURVE",
"379 150 CURVE SMOOTH",
"388 111 OFFCURVE",
"389 63 OFFCURVE",
"380 7 CURVE",
"431 17 OFFCURVE",
"479 36 OFFCURVE",
"525 64 CURVE",
"548 77 OFFCURVE",
"566 99 OFFCURVE",
"580 130 CURVE SMOOTH",
"582 134 OFFCURVE",
"582 138 OFFCURVE",
"581 144 CURVE SMOOTH",
"571 207 OFFCURVE",
"554 256 OFFCURVE",
"530 290 CURVE SMOOTH",
"525 297 OFFCURVE",
"523 304 OFFCURVE",
"525 308 CURVE SMOOTH",
"555 390 LINE",
"561 401 OFFCURVE",
"567 402 OFFCURVE",
"573 392 CURVE SMOOTH",
"610 330 LINE",
"633 316 OFFCURVE",
"671 307 OFFCURVE",
"722 305 CURVE",
"780 364 OFFCURVE",
"838 414 OFFCURVE",
"897 456 CURVE SMOOTH",
"956 498 OFFCURVE",
"1002 520 OFFCURVE",
"1035 520 CURVE SMOOTH",
"1085 521 OFFCURVE",
"1122 491 OFFCURVE",
"1144 432 CURVE",
"1149 414 OFFCURVE",
"1144 391 OFFCURVE",
"1129 362 CURVE SMOOTH",
"1114 333 OFFCURVE",
"1103 313 OFFCURVE",
"1094 303 CURVE SMOOTH",
"1046 250 OFFCURVE",
"957 219 OFFCURVE",
"825 208 CURVE SMOOTH",
"751 202 OFFCURVE",
"684 205 OFFCURVE",
"623 219 CURVE",
"610 111 OFFCURVE",
"588 42 OFFCURVE",
"559 12 CURVE SMOOTH",
"505 -44 OFFCURVE",
"437 -79 OFFCURVE",
"356 -94 CURVE"
);
}
);
width = 1204;
},
{
layerId = "037FF2D3-C03F-44B0-90AB-89AFD43EFA27";
width = 600;
}
);
unicode = 1EE91;
}
{
glyphname = u1EE92;
layers = (
{
components = (
{
name = "twodotshorizontalabove-ar";
transform = "{1, 0, 0, 1, 469, 580}";
}
);
layerId = "7FE84AD5-D318-40C5-A81A-3CDC73FF77D2";
paths = (
{
closed = 1;
nodes = (
"105 163 OFFCURVE",
"120 126 OFFCURVE",
"153 95 CURVE SMOOTH",
"186 64 OFFCURVE",
"235 49 OFFCURVE",
"301 52 CURVE SMOOTH",
"315 53 OFFCURVE",
"328 54 OFFCURVE",
"341 56 CURVE",
"342 83 OFFCURVE",
"340 107 OFFCURVE",
"335 129 CURVE SMOOTH",
"316 212 OFFCURVE",
"273 263 OFFCURVE",
"208 282 CURVE SMOOTH",
"186 288 OFFCURVE",
"168 289 OFFCURVE",
"152 285 CURVE SMOOTH",
"122 277 OFFCURVE",
"107 251 OFFCURVE",
"106 207 CURVE SMOOTH"
);
},
{
closed = 1;
nodes = (
"494 383 OFFCURVE",
"481 391 OFFCURVE",
"470 391 CURVE SMOOTH",
"459 391 OFFCURVE",
"450 385 OFFCURVE",
"441 371 CURVE",
"450 361 OFFCURVE",
"461 355 OFFCURVE",
"474 354 CURVE SMOOTH",
"487 353 OFFCURVE",
"498 358 OFFCURVE",
"508 367 CURVE"
);
},
{
closed = 1;
nodes = (
"347 -90 OFFCURVE",
"330 -138 OFFCURVE",
"308 -190 CURVE SMOOTH",
"306 -195 OFFCURVE",
"301 -205 OFFCURVE",
"293 -217 CURVE SMOOTH",
"286 -229 OFFCURVE",
"278 -235 OFFCURVE",
"271 -235 CURVE",
"267 -234 OFFCURVE",
"268 -228 OFFCURVE",
"272 -217 CURVE SMOOTH",
"297 -156 OFFCURVE",
"315 -100 OFFCURVE",
"327 -50 CURVE",
"318 -51 OFFCURVE",
"309 -52 OFFCURVE",
"300 -52 CURVE SMOOTH",
"177 -56 OFFCURVE",
"99 -14 OFFCURVE",
"66 75 CURVE",
"58 99 OFFCURVE",
"56 130 OFFCURVE",
"62 165 CURVE SMOOTH",
"70 211 OFFCURVE",
"81 248 OFFCURVE",
"95 278 CURVE SMOOTH",
"122 335 OFFCURVE",
"163 361 OFFCURVE",
"217 354 CURVE SMOOTH",
"299 343 OFFCURVE",
"354 287 OFFCURVE",
"378 184 CURVE SMOOTH",
"386 150 OFFCURVE",
"388 110 OFFCURVE",
"382 64 CURVE",
"437 79 OFFCURVE",
"489 107 OFFCURVE",
"539 146 CURVE SMOOTH",
"572 172 OFFCURVE",
"589 197 OFFCURVE",
"591 221 CURVE SMOOTH",
"593 245 OFFCURVE",
"584 266 OFFCURVE",
"565 285 CURVE",
"524 242 OFFCURVE",
"482 228 OFFCURVE",
"439 242 CURVE SMOOTH",
"384 260 OFFCURVE",
"372 309 OFFCURVE",
"401 387 CURVE SMOOTH",
"430 465 OFFCURVE",
"465 504 OFFCURVE",
"504 504 CURVE SMOOTH",
"516 504 OFFCURVE",
"530 495 OFFCURVE",
"546 476 CURVE SMOOTH",
"581 434 OFFCURVE",
"603 375 OFFCURVE",
"615 299 CURVE SMOOTH",
"621 261 OFFCURVE",
"620 223 OFFCURVE",
"613 185 CURVE SMOOTH",
"600 118 OFFCURVE",
"564 63 OFFCURVE",
"505 22 CURVE SMOOTH",
"456 -12 OFFCURVE",
"408 -34 OFFCURVE",
"359 -45 CURVE"
);
}
);
width = 677;
},
{
layerId = "037FF2D3-C03F-44B0-90AB-89AFD43EFA27";
width = 600;
}
);
unicode = 1EE92;
}
{
glyphname = u1EE93;
layers = (
{
layerId = "7FE84AD5-D318-40C5-A81A-3CDC73FF77D2";
paths = (
{
closed = 1;
nodes = (
"107 -64 OFFCURVE",
"65 -16 OFFCURVE",
"59 65 CURVE SMOOTH",
"56 103 OFFCURVE",
"68 140 OFFCURVE",
"95 176 CURVE SMOOTH",
"110 196 OFFCURVE",
"126 207 OFFCURVE",
"146 211 CURVE SMOOTH",
"191 219 OFFCURVE",
"227 199 OFFCURVE",
"254 148 CURVE SMOOTH",
"275 109 OFFCURVE",
"289 60 OFFCURVE",
"297 2 CURVE",
"305 7 OFFCURVE",
"314 11 OFFCURVE",
"322 17 CURVE SMOOTH",
"385 58 OFFCURVE",
"432 106 OFFCURVE",
"461 161 CURVE SMOOTH",
"464 166 OFFCURVE",
"464 171 OFFCURVE",
"463 177 CURVE SMOOTH",
"458 193 OFFCURVE",
"433 237 OFFCURVE",
"385 308 CURVE SMOOTH",
"383 311 OFFCURVE",
"382 313 OFFCURVE",
"383 315 CURVE SMOOTH",
"407 416 LINE SMOOTH",
"409 424 OFFCURVE",
"415 423 OFFCURVE",
"425 413 CURVE SMOOTH",
"451 386 OFFCURVE",
"470 351 OFFCURVE",
"483 306 CURVE SMOOTH",
"496 261 OFFCURVE",
"501 216 OFFCURVE",
"497 171 CURVE",
"489 113 OFFCURVE",
"466 59 OFFCURVE",
"427 10 CURVE SMOOTH",
"395 -31 OFFCURVE",
"354 -61 OFFCURVE",
"305 -80 CURVE",
"306 -92 OFFCURVE",
"306 -104 OFFCURVE",
"306 -116 CURVE SMOOTH",
"306 -128 OFFCURVE",
"300 -145 OFFCURVE",
"291 -164 CURVE",
"284 -176 LINE",
"279 -182 OFFCURVE",
"277 -181 OFFCURVE",
"277 -174 CURVE SMOOTH",
"277 -143 OFFCURVE",
"275 -115 OFFCURVE",
"273 -89 CURVE",
"264 -91 OFFCURVE",
"248 -91 OFFCURVE",
"227 -88 CURVE",
"214 -87 OFFCURVE",
"199 -84 OFFCURVE",
"183 -80 CURVE"
);
},
{
closed = 1;
nodes = (
"254 23 OFFCURVE",
"242 56 OFFCURVE",
"227 81 CURVE",
"193 136 OFFCURVE",
"159 157 OFFCURVE",
"124 143 CURVE SMOOTH",
"105 136 OFFCURVE",
"94 119 OFFCURVE",
"91 92 CURVE SMOOTH",
"87 57 OFFCURVE",
"92 31 OFFCURVE",
"107 13 CURVE SMOOTH",
"134 -20 OFFCURVE",
"168 -35 OFFCURVE",
"208 -31 CURVE SMOOTH",
"224 -30 OFFCURVE",
"242 -25 OFFCURVE",
"262 -16 CURVE"
);
}
);
width = 556;
},
{
layerId = "037FF2D3-C03F-44B0-90AB-89AFD43EFA27";
width = 600;
}
);
unicode = 1EE93;
}
{
glyphname = u1EEA1;
layers = (
{
layerId = "7FE84AD5-D318-40C5-A81A-3CDC73FF77D2";
paths = (
{
closed = 1;
nodes = (
"427 -209 LINE SMOOTH",
"425 -212 OFFCURVE",
"425 -213 OFFCURVE",
"428 -215 CURVE SMOOTH",
"470 -240 OFFCURVE",
"493 -254 OFFCURVE",
"498 -258 CURVE SMOOTH",
"503 -262 OFFCURVE",
"505 -263 OFFCURVE",
"506 -263 CURVE SMOOTH",
"507 -263 OFFCURVE",
"507 -262 OFFCURVE",
"509 -260 CURVE SMOOTH",
"556 -185 LINE SMOOTH",
"558 -182 OFFCURVE",
"558 -179 OFFCURVE",
"555 -176 CURVE",
"534 -158 OFFCURVE",
"510 -144 OFFCURVE",
"484 -135 CURVE SMOOTH",
"480 -134 OFFCURVE",
"477 -134 OFFCURVE",
"475 -137 CURVE SMOOTH"
);
},
{
closed = 1;
nodes = (
"470 -120 OFFCURVE",
"478 -118 OFFCURVE",
"488 -121 CURVE SMOOTH",
"498 -124 OFFCURVE",
"507 -128 OFFCURVE",
"516 -133 CURVE SMOOTH",
"561 -156 OFFCURVE",
"579 -176 OFFCURVE",
"569 -193 CURVE",
"521 -269 LINE SMOOTH",
"518 -274 OFFCURVE",
"514 -276 OFFCURVE",
"508 -277 CURVE SMOOTH",
"502 -278 OFFCURVE",
"497 -276 OFFCURVE",
"491 -271 CURVE SMOOTH",
"485 -266 OFFCURVE",
"462 -252 OFFCURVE",
"421 -228 CURVE SMOOTH",
"410 -221 OFFCURVE",
"408 -212 OFFCURVE",
"415 -201 CURVE SMOOTH",
"464 -129 LINE SMOOTH"
);
},
{
closed = 1;
nodes = (
"157 9 OFFCURVE",
"263 -21 OFFCURVE",
"418 -13 CURVE SMOOTH",
"573 -5 OFFCURVE",
"706 34 OFFCURVE",
"814 102 CURVE SMOOTH",
"834 115 OFFCURVE",
"847 139 OFFCURVE",
"853 174 CURVE SMOOTH",
"865 249 OFFCURVE",
"855 312 OFFCURVE",
"822 363 CURVE SMOOTH",
"816 372 OFFCURVE",
"812 377 OFFCURVE",
"809 378 CURVE",
"808 377 OFFCURVE",
"806 375 OFFCURVE",
"805 371 CURVE SMOOTH",
"775 282 LINE SMOOTH",
"773 275 OFFCURVE",
"775 269 OFFCURVE",
"781 264 CURVE SMOOTH",
"804 244 OFFCURVE",
"818 221 OFFCURVE",
"824 195 CURVE SMOOTH",
"825 191 OFFCURVE",
"824 189 OFFCURVE",
"821 187 CURVE SMOOTH",
"716 128 OFFCURVE",
"583 99 OFFCURVE",
"423 99 CURVE",
"231 99 OFFCURVE",
"128 139 OFFCURVE",
"115 220 CURVE SMOOTH",
"111 244 OFFCURVE",
"122 270 OFFCURVE",
"147 297 CURVE SMOOTH",
"153 303 OFFCURVE",
"154 308 OFFCURVE",
"151 312 CURVE SMOOTH",
"148 316 OFFCURVE",
"144 314 OFFCURVE",
"138 307 CURVE SMOOTH",
"112 278 OFFCURVE",
"95 252 OFFCURVE",
"86 227 CURVE SMOOTH",
"65 166 OFFCURVE",
"70 116 OFFCURVE",
"101 78 CURVE SMOOTH"
);
},
{
closed = 1;
nodes = (
"55 112 OFFCURVE",
"49 167 OFFCURVE",
"72 232 CURVE SMOOTH",
"81 258 OFFCURVE",
"100 286 OFFCURVE",
"126 316 CURVE SMOOTH",
"138 329 OFFCURVE",
"150 331 OFFCURVE",
"161 322 CURVE",
"171 312 OFFCURVE",
"170 301 OFFCURVE",
"158 288 CURVE SMOOTH",
"136 264 OFFCURVE",
"127 242 OFFCURVE",
"130 222 CURVE SMOOTH",
"142 149 OFFCURVE",
"240 113 OFFCURVE",
"423 113 CURVE SMOOTH",
"578 113 OFFCURVE",
"706 141 OFFCURVE",
"809 197 CURVE",
"803 218 OFFCURVE",
"789 237 OFFCURVE",
"768 256 CURVE SMOOTH",
"760 264 OFFCURVE",
"757 274 OFFCURVE",
"761 287 CURVE SMOOTH",
"791 375 LINE SMOOTH",
"794 382 OFFCURVE",
"797 387 OFFCURVE",
"801 390 CURVE SMOOTH",
"811 397 OFFCURVE",
"824 388 OFFCURVE",
"839 365 CURVE SMOOTH",
"872 315 OFFCURVE",
"881 250 OFFCURVE",
"868 172 CURVE SMOOTH",
"861 132 OFFCURVE",
"846 104 OFFCURVE",
"822 89 CURVE SMOOTH",
"712 19 OFFCURVE",
"576 -20 OFFCURVE",
"417 -28 CURVE SMOOTH",
"258 -36 OFFCURVE",
"149 -4 OFFCURVE",
"90 69 CURVE SMOOTH"
);
}
);
width = 931;
},
{
layerId = "037FF2D3-C03F-44B0-90AB-89AFD43EFA27";
width = 600;
}
);
unicode = 1EEA1;
}
{
glyphname = u1EEA2;
layers = (
{
components = (
{
name = u1EEA7;
}
);
layerId = "7FE84AD5-D318-40C5-A81A-3CDC73FF77D2";
paths = (
{
closed = 1;
nodes = (
"326 145 LINE SMOOTH",
"324 142 OFFCURVE",
"324 140 OFFCURVE",
"327 138 CURVE SMOOTH",
"369 113 OFFCURVE",
"391 99 OFFCURVE",
"396 95 CURVE SMOOTH",
"401 91 OFFCURVE",
"403 90 OFFCURVE",
"404 90 CURVE SMOOTH",
"405 90 OFFCURVE",
"406 91 OFFCURVE",
"408 93 CURVE SMOOTH",
"455 168 LINE SMOOTH",
"457 171 OFFCURVE",
"457 174 OFFCURVE",
"454 177 CURVE",
"433 195 OFFCURVE",
"409 210 OFFCURVE",
"383 219 CURVE SMOOTH",
"379 220 OFFCURVE",
"376 220 OFFCURVE",
"374 217 CURVE SMOOTH"
);
},
{
closed = 1;
nodes = (
"368 234 OFFCURVE",
"377 236 OFFCURVE",
"388 232 CURVE SMOOTH",
"421 220 OFFCURVE",
"446 206 OFFCURVE",
"464 188 CURVE SMOOTH",
"472 180 OFFCURVE",
"474 171 OFFCURVE",
"468 161 CURVE",
"420 85 LINE SMOOTH",
"417 80 OFFCURVE",
"413 77 OFFCURVE",
"407 76 CURVE SMOOTH",
"401 75 OFFCURVE",
"396 77 OFFCURVE",
"390 82 CURVE SMOOTH",
"384 87 OFFCURVE",
"360 101 OFFCURVE",
"319 125 CURVE SMOOTH",
"308 132 OFFCURVE",
"307 141 OFFCURVE",
"314 152 CURVE SMOOTH",
"362 225 LINE SMOOTH"
);
}
);
width = 822;
},
{
layerId = "037FF2D3-C03F-44B0-90AB-89AFD43EFA27";
width = 600;
}
);
unicode = 1EEA2;
}
{
glyphname = u1EEA3;
layers = (
{
layerId = "7FE84AD5-D318-40C5-A81A-3CDC73FF77D2";
paths = (
{
closed = 1;
nodes = (
"271 247 OFFCURVE",
"327 198 OFFCURVE",
"337 145 CURVE SMOOTH",
"338 141 OFFCURVE",
"337 138 OFFCURVE",
"333 136 CURVE SMOOTH",
"301 121 OFFCURVE",
"256 110 OFFCURVE",
"200 103 CURVE",
"142 94 OFFCURVE",
"110 95 OFFCURVE",
"103 108 CURVE SMOOTH",
"100 114 OFFCURVE",
"97 116 OFFCURVE",
"93 116 CURVE SMOOTH",
"92 116 LINE SMOOTH",
"87 116 OFFCURVE",
"83 110 OFFCURVE",
"80 97 CURVE SMOOTH",
"63 27 OFFCURVE",
"81 -10 OFFCURVE",
"132 -13 CURVE SMOOTH",
"179 -16 OFFCURVE",
"245 -1 OFFCURVE",
"329 33 CURVE SMOOTH",
"339 37 OFFCURVE",
"348 49 OFFCURVE",
"355 69 CURVE SMOOTH",
"367 104 OFFCURVE",
"368 145 OFFCURVE",
"359 191 CURVE SMOOTH",
"342 278 OFFCURVE",
"293 346 OFFCURVE",
"213 394 CURVE SMOOTH",
"206 398 OFFCURVE",
"201 398 OFFCURVE",
"198 394 CURVE SMOOTH",
"189 383 OFFCURVE",
"178 360 OFFCURVE",
"166 326 CURVE SMOOTH",
"159 307 OFFCURVE",
"161 296 OFFCURVE",
"170 292 CURVE SMOOTH"
);
},
{
closed = 1;
nodes = (
"310 193 OFFCURVE",
"257 237 OFFCURVE",
"164 278 CURVE SMOOTH",
"146 286 OFFCURVE",
"142 303 OFFCURVE",
"151 328 CURVE SMOOTH",
"160 353 OFFCURVE",
"168 372 OFFCURVE",
"175 385 CURVE SMOOTH",
"187 408 OFFCURVE",
"203 415 OFFCURVE",
"220 406 CURVE",
"305 356 OFFCURVE",
"356 285 OFFCURVE",
"374 194 CURVE SMOOTH",
"384 145 OFFCURVE",
"381 102 OFFCURVE",
"368 64 CURVE SMOOTH",
"360 40 OFFCURVE",
"349 26 OFFCURVE",
"335 20 CURVE SMOOTH",
"265 -8 OFFCURVE",
"204 -25 OFFCURVE",
"155 -28 CURVE SMOOTH",
"106 -31 OFFCURVE",
"75 -16 OFFCURVE",
"64 17 CURVE SMOOTH",
"57 39 OFFCURVE",
"57 67 OFFCURVE",
"66 101 CURVE",
"71 121 OFFCURVE",
"80 131 OFFCURVE",
"93 131 CURVE SMOOTH",
"102 131 OFFCURVE",
"110 126 OFFCURVE",
"116 115 CURVE",
"123 110 OFFCURVE",
"151 110 OFFCURVE",
"201 117 CURVE SMOOTH",
"251 124 OFFCURVE",
"292 134 OFFCURVE",
"322 147 CURVE"
);
}
);
width = 438;
},
{
layerId = "037FF2D3-C03F-44B0-90AB-89AFD43EFA27";
width = 600;
}
);
unicode = 1EEA3;
}
{
glyphname = u1EEA5;
layers = (
{
layerId = "7FE84AD5-D318-40C5-A81A-3CDC73FF77D2";
paths = (
{
closed = 1;
nodes = (
"365 317 OFFCURVE",
"383 324 OFFCURVE",
"400 311 CURVE SMOOTH",
"408 305 OFFCURVE",
"413 299 OFFCURVE",
"417 292 CURVE SMOOTH",
"421 285 OFFCURVE",
"421 281 OFFCURVE",
"417 278 CURVE SMOOTH",
"389 259 OFFCURVE",
"366 262 OFFCURVE",
"346 284 CURVE SMOOTH",
"343 287 OFFCURVE",
"344 290 OFFCURVE",
"346 293 CURVE SMOOTH"
);
},
{
closed = 1;
nodes = (
"395 298 OFFCURVE",
"388 303 OFFCURVE",
"381 302 CURVE SMOOTH",
"374 301 OFFCURVE",
"368 297 OFFCURVE",
"361 290 CURVE",
"373 280 OFFCURVE",
"387 279 OFFCURVE",
"403 287 CURVE"
);
},
{
closed = 1;
nodes = (
"294 241 OFFCURVE",
"297 188 OFFCURVE",
"337 170 CURVE SMOOTH",
"373 154 OFFCURVE",
"404 161 OFFCURVE",
"430 194 CURVE",
"435 200 OFFCURVE",
"440 199 OFFCURVE",
"443 192 CURVE",
"450 173 OFFCURVE",
"452 162 OFFCURVE",
"451 158 CURVE SMOOTH",
"440 128 OFFCURVE",
"407 90 OFFCURVE",
"353 43 CURVE SMOOTH",
"299 -4 OFFCURVE",
"258 -29 OFFCURVE",
"230 -36 CURVE SMOOTH",
"173 -50 OFFCURVE",
"125 -54 OFFCURVE",
"85 -47 CURVE SMOOTH",
"79 -46 OFFCURVE",
"75 -48 OFFCURVE",
"74 -52 CURVE SMOOTH",
"73 -56 OFFCURVE",
"74 -59 OFFCURVE",
"78 -60 CURVE SMOOTH",
"101 -69 OFFCURVE",
"136 -79 OFFCURVE",
"182 -88 CURVE SMOOTH",
"228 -97 OFFCURVE",
"258 -101 OFFCURVE",
"274 -99 CURVE SMOOTH",
"290 -97 OFFCURVE",
"303 -94 OFFCURVE",
"313 -88 CURVE SMOOTH",
"335 -76 OFFCURVE",
"360 -53 OFFCURVE",
"388 -19 CURVE SMOOTH",
"430 32 OFFCURVE",
"459 88 OFFCURVE",
"474 148 CURVE SMOOTH",
"489 208 OFFCURVE",
"495 256 OFFCURVE",
"492 292 CURVE SMOOTH",
"489 328 OFFCURVE",
"479 359 OFFCURVE",
"462 387 CURVE SMOOTH",
"445 415 OFFCURVE",
"426 429 OFFCURVE",
"405 430 CURVE SMOOTH",
"377 431 OFFCURVE",
"351 398 OFFCURVE",
"326 330 CURVE SMOOTH"
);
},
{
closed = 1;
nodes = (
"339 409 OFFCURVE",
"370 446 OFFCURVE",
"405 445 CURVE SMOOTH",
"432 444 OFFCURVE",
"455 428 OFFCURVE",
"474 397 CURVE SMOOTH",
"493 366 OFFCURVE",
"504 332 OFFCURVE",
"507 294 CURVE SMOOTH",
"510 256 OFFCURVE",
"503 206 OFFCURVE",
"488 144 CURVE SMOOTH",
"473 82 OFFCURVE",
"443 25 OFFCURVE",
"399 -28 CURVE SMOOTH",
"355 -81 OFFCURVE",
"318 -109 OFFCURVE",
"286 -113 CURVE SMOOTH",
"262 -116 OFFCURVE",
"221 -111 OFFCURVE",
"163 -99 CURVE SMOOTH",
"105 -87 OFFCURVE",
"72 -76 OFFCURVE",
"64 -67 CURVE SMOOTH",
"59 -62 OFFCURVE",
"58 -57 OFFCURVE",
"59 -51 CURVE SMOOTH",
"62 -36 OFFCURVE",
"73 -30 OFFCURVE",
"90 -33 CURVE SMOOTH",
"127 -39 OFFCURVE",
"172 -34 OFFCURVE",
"227 -21 CURVE SMOOTH",
"252 -15 OFFCURVE",
"291 10 OFFCURVE",
"343 54 CURVE SMOOTH",
"395 98 OFFCURVE",
"425 134 OFFCURVE",
"436 161 CURVE",
"435 165 OFFCURVE",
"434 170 OFFCURVE",
"433 175 CURVE",
"404 145 OFFCURVE",
"370 138 OFFCURVE",
"331 156 CURVE SMOOTH",
"282 178 OFFCURVE",
"277 237 OFFCURVE",
"312 334 CURVE SMOOTH"
);
}
);
width = 565;
},
{
layerId = "037FF2D3-C03F-44B0-90AB-89AFD43EFA27";
width = 600;
}
);
unicode = 1EEA5;
}
{
glyphname = u1EEA6;
layers = (
{
components = (
{
name = u1EEB3;
}
);
layerId = "7FE84AD5-D318-40C5-A81A-3CDC73FF77D2";
paths = (
{
closed = 1;
nodes = (
"247 654 LINE SMOOTH",
"245 651 OFFCURVE",
"245 650 OFFCURVE",
"248 648 CURVE SMOOTH",
"290 623 OFFCURVE",
"312 609 OFFCURVE",
"317 605 CURVE SMOOTH",
"322 601 OFFCURVE",
"324 600 OFFCURVE",
"325 600 CURVE SMOOTH",
"326 600 OFFCURVE",
"327 601 OFFCURVE",
"329 603 CURVE SMOOTH",
"376 678 LINE SMOOTH",
"378 681 OFFCURVE",
"378 684 OFFCURVE",
"375 687 CURVE",
"354 705 OFFCURVE",
"330 720 OFFCURVE",
"304 729 CURVE SMOOTH",
"300 730 OFFCURVE",
"297 730 OFFCURVE",
"295 727 CURVE SMOOTH"
);
},
{
closed = 1;
nodes = (
"289 743 OFFCURVE",
"298 746 OFFCURVE",
"309 742 CURVE SMOOTH",
"342 730 OFFCURVE",
"367 716 OFFCURVE",
"385 698 CURVE SMOOTH",
"393 690 OFFCURVE",
"395 680 OFFCURVE",
"389 670 CURVE",
"341 595 LINE SMOOTH",
"338 590 OFFCURVE",
"334 587 OFFCURVE",
"328 586 CURVE SMOOTH",
"322 585 OFFCURVE",
"317 587 OFFCURVE",
"311 592 CURVE SMOOTH",
"305 597 OFFCURVE",
"281 611 OFFCURVE",
"240 635 CURVE SMOOTH",
"229 642 OFFCURVE",
"228 651 OFFCURVE",
"235 662 CURVE SMOOTH",
"283 734 LINE SMOOTH"
);
}
);
width = 563;
},
{
layerId = "037FF2D3-C03F-44B0-90AB-89AFD43EFA27";
width = 600;
}
);
unicode = 1EEA6;
}
{
glyphname = u1EEA7;
layers = (
{
layerId = "7FE84AD5-D318-40C5-A81A-3CDC73FF77D2";
paths = (
{
closed = 1;
nodes = (
"351 429 OFFCURVE",
"456 459 OFFCURVE",
"584 470 CURVE SMOOTH",
"591 471 OFFCURVE",
"596 476 OFFCURVE",
"600 486 CURVE SMOOTH",
"629 556 LINE SMOOTH",
"632 563 OFFCURVE",
"633 566 OFFCURVE",
"631 567 CURVE SMOOTH",
"625 571 OFFCURVE",
"614 571 OFFCURVE",
"598 568 CURVE SMOOTH",
"507 553 OFFCURVE",
"418 554 OFFCURVE",
"331 569 CURVE SMOOTH",
"279 578 OFFCURVE",
"246 582 OFFCURVE",
"231 582 CURVE SMOOTH",
"151 580 OFFCURVE",
"110 543 OFFCURVE",
"108 471 CURVE SMOOTH",
"108 460 OFFCURVE",
"109 455 OFFCURVE",
"112 455 CURVE SMOOTH",
"115 455 OFFCURVE",
"118 455 OFFCURVE",
"122 457 CURVE SMOOTH",
"162 477 OFFCURVE",
"213 482 OFFCURVE",
"275 473 CURVE SMOOTH",
"283 472 OFFCURVE",
"284 467 OFFCURVE",
"278 459 CURVE",
"155 382 OFFCURVE",
"87 259 OFFCURVE",
"75 90 CURVE SMOOTH",
"68 -16 OFFCURVE",
"93 -94 OFFCURVE",
"154 -143 CURVE SMOOTH",
"231 -205 OFFCURVE",
"367 -223 OFFCURVE",
"564 -200 CURVE SMOOTH",
"575 -199 OFFCURVE",
"587 -193 OFFCURVE",
"600 -184 CURVE SMOOTH",
"613 -175 OFFCURVE",
"628 -165 OFFCURVE",
"645 -152 CURVE SMOOTH",
"662 -139 OFFCURVE",
"684 -129 OFFCURVE",
"710 -120 CURVE SMOOTH",
"736 -111 OFFCURVE",
"750 -104 OFFCURVE",
"750 -97 CURVE SMOOTH",
"750 -90 OFFCURVE",
"740 -88 OFFCURVE",
"719 -91 CURVE SMOOTH",
"552 -112 OFFCURVE",
"419 -112 OFFCURVE",
"319 -92 CURVE SMOOTH",
"198 -68 OFFCURVE",
"129 -5 OFFCURVE",
"111 97 CURVE SMOOTH",
"103 145 OFFCURVE",
"111 194 OFFCURVE",
"136 246 CURVE SMOOTH",
"161 298 OFFCURVE",
"206 343 OFFCURVE",
"269 380 CURVE SMOOTH"
);
},
{
closed = 1;
nodes = (
"216 331 OFFCURVE",
"174 289 OFFCURVE",
"150 240 CURVE SMOOTH",
"126 191 OFFCURVE",
"118 144 OFFCURVE",
"125 100 CURVE SMOOTH",
"141 4 OFFCURVE",
"207 -55 OFFCURVE",
"322 -78 CURVE SMOOTH",
"420 -98 OFFCURVE",
"552 -97 OFFCURVE",
"717 -76 CURVE SMOOTH",
"749 -72 OFFCURVE",
"764 -80 OFFCURVE",
"764 -98 CURVE SMOOTH",
"764 -111 OFFCURVE",
"750 -122 OFFCURVE",
"721 -132 CURVE SMOOTH",
"692 -142 OFFCURVE",
"665 -155 OFFCURVE",
"639 -174 CURVE SMOOTH",
"613 -193 OFFCURVE",
"597 -204 OFFCURVE",
"590 -208 CURVE SMOOTH",
"583 -212 OFFCURVE",
"574 -213 OFFCURVE",
"566 -214 CURVE SMOOTH",
"365 -238 OFFCURVE",
"225 -218 OFFCURVE",
"145 -154 CURVE SMOOTH",
"80 -102 OFFCURVE",
"52 -21 OFFCURVE",
"60 91 CURVE SMOOTH",
"72 257 OFFCURVE",
"136 380 OFFCURVE",
"253 461 CURVE",
"203 466 OFFCURVE",
"162 460 OFFCURVE",
"129 444 CURVE SMOOTH",
"123 441 OFFCURVE",
"118 440 OFFCURVE",
"113 440 CURVE SMOOTH",
"100 440 OFFCURVE",
"93 450 OFFCURVE",
"94 471 CURVE SMOOTH",
"96 553 OFFCURVE",
"142 595 OFFCURVE",
"231 597 CURVE SMOOTH",
"247 597 OFFCURVE",
"281 592 OFFCURVE",
"334 583 CURVE SMOOTH",
"419 568 OFFCURVE",
"507 568 OFFCURVE",
"596 583 CURVE SMOOTH",
"626 588 OFFCURVE",
"642 583 OFFCURVE",
"645 569 CURVE SMOOTH",
"646 563 OFFCURVE",
"646 557 OFFCURVE",
"643 550 CURVE",
"614 480 LINE SMOOTH",
"608 465 OFFCURVE",
"598 457 OFFCURVE",
"585 456 CURVE SMOOTH",
"460 445 OFFCURVE",
"357 415 OFFCURVE",
"277 367 CURVE SMOOTH"
);
}
);
width = 822;
},
{
layerId = "037FF2D3-C03F-44B0-90AB-89AFD43EFA27";
width = 600;
}
);
unicode = 1EEA7;
}
{
glyphname = u1EEA8;
layers = (
{
layerId = "7FE84AD5-D318-40C5-A81A-3CDC73FF77D2";
paths = (
{
closed = 1;
nodes = (
"347 429 OFFCURVE",
"361 262 OFFCURVE",
"357 148 CURVE SMOOTH",
"357 146 OFFCURVE",
"357 145 OFFCURVE",
"355 144 CURVE SMOOTH",
"297 87 LINE SMOOTH",
"296 86 OFFCURVE",
"294 85 OFFCURVE",
"292 85 CURVE SMOOTH",
"217 80 OFFCURVE",
"153 81 OFFCURVE",
"99 87 CURVE SMOOTH",
"82 89 OFFCURVE",
"73 88 OFFCURVE",
"73 82 CURVE SMOOTH",
"73 76 OFFCURVE",
"78 66 OFFCURVE",
"90 52 CURVE SMOOTH",
"102 38 OFFCURVE",
"119 20 OFFCURVE",
"143 2 CURVE SMOOTH",
"167 -16 OFFCURVE",
"198 -28 OFFCURVE",
"237 -35 CURVE",
"338 -30 OFFCURVE",
"433 -14 OFFCURVE",
"522 14 CURVE SMOOTH",
"611 42 OFFCURVE",
"665 66 OFFCURVE",
"683 84 CURVE SMOOTH",
"694 96 OFFCURVE",
"709 121 OFFCURVE",
"727 156 CURVE SMOOTH",
"745 191 OFFCURVE",
"753 221 OFFCURVE",
"750 244 CURVE SMOOTH",
"747 267 OFFCURVE",
"730 290 OFFCURVE",
"699 311 CURVE SMOOTH",
"682 323 OFFCURVE",
"664 327 OFFCURVE",
"644 325 CURVE SMOOTH",
"578 318 OFFCURVE",
"496 270 OFFCURVE",
"396 180 CURVE",
"390 175 OFFCURVE",
"385 176 OFFCURVE",
"384 183 CURVE SMOOTH",
"383 186 LINE",
"385 203 OFFCURVE",
"387 233 OFFCURVE",
"391 276 CURVE SMOOTH",
"395 319 OFFCURVE",
"390 421 OFFCURVE",
"375 582 CURVE SMOOTH",
"375 582 OFFCURVE",
"375 583 OFFCURVE",
"375 584 CURVE SMOOTH",
"375 585 OFFCURVE",
"375 586 OFFCURVE",
"376 588 CURVE SMOOTH",
"377 590 OFFCURVE",
"381 595 OFFCURVE",
"387 602 CURVE SMOOTH",
"393 609 OFFCURVE",
"398 615 OFFCURVE",
"402 619 CURVE SMOOTH",
"409 627 OFFCURVE",
"407 638 OFFCURVE",
"395 652 CURVE SMOOTH",
"383 666 OFFCURVE",
"375 676 OFFCURVE",
"371 685 CURVE SMOOTH",
"367 694 OFFCURVE",
"362 705 OFFCURVE",
"357 718 CURVE SMOOTH",
"352 731 OFFCURVE",
"348 737 OFFCURVE",
"345 737 CURVE SMOOTH",
"344 737 LINE SMOOTH",
"344 737 OFFCURVE",
"343 736 OFFCURVE",
"341 736 CURVE SMOOTH",
"339 736 OFFCURVE",
"336 728 OFFCURVE",
"330 714 CURVE SMOOTH",
"324 700 OFFCURVE",
"320 689 OFFCURVE",
"316 681 CURVE SMOOTH",
"312 673 OFFCURVE",
"310 668 OFFCURVE",
"311 665 CURVE SMOOTH",
"312 662 OFFCURVE",
"313 656 OFFCURVE",
"314 647 CURVE SMOOTH"
);
},
{
closed = 1;
nodes = (
"346 258 OFFCURVE",
"333 417 OFFCURVE",
"302 629 CURVE SMOOTH",
"299 647 OFFCURVE",
"298 660 OFFCURVE",
"296 667 CURVE SMOOTH",
"294 674 OFFCURVE",
"295 680 OFFCURVE",
"300 687 CURVE SMOOTH",
"305 694 OFFCURVE",
"312 709 OFFCURVE",
"322 734 CURVE SMOOTH",
"326 745 OFFCURVE",
"334 751 OFFCURVE",
"344 751 CURVE SMOOTH",
"354 751 OFFCURVE",
"363 744 OFFCURVE",
"369 728 CURVE SMOOTH",
"375 712 OFFCURVE",
"380 700 OFFCURVE",
"384 692 CURVE SMOOTH",
"388 684 OFFCURVE",
"395 675 OFFCURVE",
"404 664 CURVE SMOOTH",
"421 644 OFFCURVE",
"425 627 OFFCURVE",
"415 612 CURVE",
"401 595 OFFCURVE",
"393 586 OFFCURVE",
"389 581 CURVE",
"404 421 OFFCURVE",
"410 322 OFFCURVE",
"407 285 CURVE SMOOTH",
"404 248 OFFCURVE",
"402 221 OFFCURVE",
"400 203 CURVE",
"496 287 OFFCURVE",
"576 333 OFFCURVE",
"642 340 CURVE SMOOTH",
"678 344 OFFCURVE",
"711 328 OFFCURVE",
"741 294 CURVE SMOOTH",
"754 279 OFFCURVE",
"762 260 OFFCURVE",
"765 238 CURVE SMOOTH",
"768 216 OFFCURVE",
"760 187 OFFCURVE",
"741 150 CURVE SMOOTH",
"722 113 OFFCURVE",
"708 89 OFFCURVE",
"698 79 CURVE SMOOTH",
"688 69 OFFCURVE",
"672 58 OFFCURVE",
"651 47 CURVE SMOOTH",
"630 36 OFFCURVE",
"588 20 OFFCURVE",
"527 0 CURVE SMOOTH",
"436 -29 OFFCURVE",
"340 -45 OFFCURVE",
"237 -50 CURVE SMOOTH",
"236 -50 OFFCURVE",
"236 -50 OFFCURVE",
"235 -50 CURVE SMOOTH",
"194 -43 OFFCURVE",
"160 -29 OFFCURVE",
"135 -10 CURVE SMOOTH",
"82 31 OFFCURVE",
"57 62 OFFCURVE",
"59 84 CURVE SMOOTH",
"61 99 OFFCURVE",
"75 105 OFFCURVE",
"101 102 CURVE SMOOTH",
"153 96 OFFCURVE",
"216 95 OFFCURVE",
"289 100 CURVE",
"342 152 LINE"
);
},
{
closed = 1;
nodes = (
"679 184 OFFCURVE",
"678 181 OFFCURVE",
"673 178 CURVE SMOOTH",
"601 139 OFFCURVE",
"500 112 OFFCURVE",
"370 96 CURVE SMOOTH",
"362 95 OFFCURVE",
"360 100 OFFCURVE",
"364 109 CURVE",
"410 152 OFFCURVE",
"467 182 OFFCURVE",
"537 200 CURVE SMOOTH",
"607 218 OFFCURVE",
"653 215 OFFCURVE",
"675 189 CURVE SMOOTH"
);
},
{
closed = 1;
nodes = (
"503 129 OFFCURVE",
"592 153 OFFCURVE",
"657 186 CURVE",
"636 201 OFFCURVE",
"596 201 OFFCURVE",
"539 186 CURVE SMOOTH",
"482 171 OFFCURVE",
"433 147 OFFCURVE",
"392 114 CURVE"
);
}
);
width = 824;
},
{
layerId = "037FF2D3-C03F-44B0-90AB-89AFD43EFA27";
width = 600;
}
);
unicode = 1EEA8;
}
{
glyphname = u1EEA9;
layers = (
{
layerId = "7FE84AD5-D318-40C5-A81A-3CDC73FF77D2";
paths = (
{
closed = 1;
nodes = (
"367 -183 LINE SMOOTH",
"364 -187 OFFCURVE",
"361 -188 OFFCURVE",
"357 -185 CURVE SMOOTH",
"341 -173 OFFCURVE",
"327 -166 OFFCURVE",
"316 -162 CURVE SMOOTH",
"305 -158 OFFCURVE",
"299 -157 OFFCURVE",
"298 -157 CURVE SMOOTH",
"297 -157 OFFCURVE",
"295 -157 OFFCURVE",
"294 -159 CURVE SMOOTH",
"246 -231 LINE SMOOTH",
"244 -234 OFFCURVE",
"244 -236 OFFCURVE",
"247 -238 CURVE SMOOTH",
"289 -263 OFFCURVE",
"311 -277 OFFCURVE",
"316 -281 CURVE SMOOTH",
"321 -285 OFFCURVE",
"323 -286 OFFCURVE",
"324 -286 CURVE SMOOTH",
"325 -286 OFFCURVE",
"326 -285 OFFCURVE",
"328 -283 CURVE SMOOTH",
"361 -229 LINE SMOOTH",
"364 -225 OFFCURVE",
"367 -225 OFFCURVE",
"371 -227 CURVE SMOOTH",
"400 -245 OFFCURVE",
"417 -255 OFFCURVE",
"421 -258 CURVE SMOOTH",
"425 -261 OFFCURVE",
"427 -263 OFFCURVE",
"428 -263 CURVE SMOOTH",
"429 -263 OFFCURVE",
"430 -262 OFFCURVE",
"432 -260 CURVE SMOOTH",
"479 -185 LINE SMOOTH",
"481 -182 OFFCURVE",
"481 -179 OFFCURVE",
"478 -176 CURVE",
"457 -158 OFFCURVE",
"433 -144 OFFCURVE",
"407 -135 CURVE",
"403 -134 OFFCURVE",
"400 -135 OFFCURVE",
"398 -137 CURVE SMOOTH"
);
},
{
closed = 1;
nodes = (
"392 -119 OFFCURVE",
"402 -117 OFFCURVE",
"414 -122 CURVE SMOOTH",
"445 -132 OFFCURVE",
"469 -147 OFFCURVE",
"488 -166 CURVE SMOOTH",
"496 -174 OFFCURVE",
"498 -183 OFFCURVE",
"492 -193 CURVE",
"444 -269 LINE SMOOTH",
"437 -281 OFFCURVE",
"427 -281 OFFCURVE",
"414 -271 CURVE SMOOTH",
"410 -267 OFFCURVE",
"395 -259 OFFCURVE",
"370 -244 CURVE",
"340 -291 LINE SMOOTH",
"337 -296 OFFCURVE",
"333 -299 OFFCURVE",
"327 -300 CURVE SMOOTH",
"321 -301 OFFCURVE",
"315 -299 OFFCURVE",
"309 -294 CURVE SMOOTH",
"303 -289 OFFCURVE",
"280 -274 OFFCURVE",
"239 -250 CURVE SMOOTH",
"228 -243 OFFCURVE",
"227 -235 OFFCURVE",
"234 -224 CURVE SMOOTH",
"282 -151 LINE SMOOTH",
"288 -142 OFFCURVE",
"296 -139 OFFCURVE",
"304 -142 CURVE SMOOTH",
"325 -149 OFFCURVE",
"343 -158 OFFCURVE",
"359 -169 CURVE",
"386 -128 LINE SMOOTH"
);
},
{
closed = 1;
nodes = (
"689 426 OFFCURVE",
"698 433 OFFCURVE",
"704 454 CURVE SMOOTH",
"719 512 OFFCURVE",
"710 546 OFFCURVE",
"676 555 CURVE SMOOTH",
"639 564 OFFCURVE",
"596 551 OFFCURVE",
"546 515 CURVE SMOOTH",
"485 471 OFFCURVE",
"441 408 OFFCURVE",
"412 327 CURVE SMOOTH",
"399 291 OFFCURVE",
"399 256 OFFCURVE",
"410 224 CURVE SMOOTH",
"421 192 OFFCURVE",
"455 174 OFFCURVE",
"511 170 CURVE SMOOTH",
"567 166 OFFCURVE",
"603 162 OFFCURVE",
"619 156 CURVE SMOOTH",
"627 153 OFFCURVE",
"628 148 OFFCURVE",
"621 143 CURVE SMOOTH",
"545 85 OFFCURVE",
"446 54 OFFCURVE",
"324 52 CURVE SMOOTH",
"220 50 OFFCURVE",
"153 86 OFFCURVE",
"125 158 CURVE SMOOTH",
"103 215 OFFCURVE",
"121 287 OFFCURVE",
"181 376 CURVE SMOOTH",
"189 388 OFFCURVE",
"192 397 OFFCURVE",
"188 402 CURVE",
"186 406 OFFCURVE",
"177 399 OFFCURVE",
"162 380 CURVE SMOOTH",
"147 361 OFFCURVE",
"131 334 OFFCURVE",
"114 299 CURVE SMOOTH",
"82 235 OFFCURVE",
"69 172 OFFCURVE",
"74 112 CURVE SMOOTH",
"79 52 OFFCURVE",
"101 9 OFFCURVE",
"141 -19 CURVE SMOOTH",
"181 -47 OFFCURVE",
"239 -60 OFFCURVE",
"315 -57 CURVE SMOOTH",
"438 -52 OFFCURVE",
"548 -10 OFFCURVE",
"646 68 CURVE SMOOTH",
"680 95 OFFCURVE",
"691 139 OFFCURVE",
"683 200 CURVE SMOOTH",
"679 229 OFFCURVE",
"643 245 OFFCURVE",
"575 249 CURVE SMOOTH",
"488 254 OFFCURVE",
"444 273 OFFCURVE",
"440 308 CURVE SMOOTH",
"440 312 OFFCURVE",
"440 315 OFFCURVE",
"441 318 CURVE SMOOTH",
"452 356 OFFCURVE",
"482 388 OFFCURVE",
"531 414 CURVE SMOOTH",
"592 446 OFFCURVE",
"640 452 OFFCURVE",
"676 433 CURVE SMOOTH"
);
},
{
closed = 1;
nodes = (
"638 436 OFFCURVE",
"594 430 OFFCURVE",
"538 401 CURVE SMOOTH",
"492 377 OFFCURVE",
"465 348 OFFCURVE",
"455 314 CURVE SMOOTH",
"454 311 OFFCURVE",
"454 307 OFFCURVE",
"456 303 CURVE SMOOTH",
"467 280 OFFCURVE",
"508 266 OFFCURVE",
"581 262 CURVE SMOOTH",
"654 258 OFFCURVE",
"693 238 OFFCURVE",
"698 202 CURVE SMOOTH",
"707 135 OFFCURVE",
"692 87 OFFCURVE",
"654 56 CURVE SMOOTH",
"554 -24 OFFCURVE",
"442 -66 OFFCURVE",
"316 -71 CURVE SMOOTH",
"156 -78 OFFCURVE",
"71 -18 OFFCURVE",
"60 110 CURVE SMOOTH",
"55 173 OFFCURVE",
"68 239 OFFCURVE",
"101 306 CURVE SMOOTH",
"119 342 OFFCURVE",
"139 373 OFFCURVE",
"161 402 CURVE SMOOTH",
"175 420 OFFCURVE",
"187 424 OFFCURVE",
"197 413 CURVE SMOOTH",
"207 402 OFFCURVE",
"206 388 OFFCURVE",
"193 369 CURVE SMOOTH",
"136 285 OFFCURVE",
"117 216 OFFCURVE",
"138 163 CURVE SMOOTH",
"164 97 OFFCURVE",
"226 65 OFFCURVE",
"324 67 CURVE SMOOTH",
"436 69 OFFCURVE",
"528 96 OFFCURVE",
"600 146 CURVE",
"582 150 OFFCURVE",
"555 153 OFFCURVE",
"518 155 CURVE SMOOTH",
"450 160 OFFCURVE",
"410 180 OFFCURVE",
"397 217 CURVE SMOOTH",
"384 254 OFFCURVE",
"384 292 OFFCURVE",
"398 332 CURVE SMOOTH",
"428 416 OFFCURVE",
"471 479 OFFCURVE",
"530 521 CURVE SMOOTH",
"589 563 OFFCURVE",
"639 579 OFFCURVE",
"681 568 CURVE SMOOTH",
"723 557 OFFCURVE",
"735 518 OFFCURVE",
"717 450 CURVE",
"709 419 OFFCURVE",
"693 409 OFFCURVE",
"669 420 CURVE"
);
}
);
width = 783;
},
{
layerId = "037FF2D3-C03F-44B0-90AB-89AFD43EFA27";
width = 600;
}
);
unicode = 1EEA9;
}
{
glyphname = u1EEAB;
layers = (
{
layerId = "7FE84AD5-D318-40C5-A81A-3CDC73FF77D2";
paths = (
{
closed = 1;
nodes = (
"441 661 OFFCURVE",
"442 656 OFFCURVE",
"444 645 CURVE SMOOTH",
"446 634 OFFCURVE",
"448 622 OFFCURVE",
"450 609 CURVE SMOOTH",
"452 596 OFFCURVE",
"458 544 OFFCURVE",
"467 454 CURVE SMOOTH",
"476 364 OFFCURVE",
"488 257 OFFCURVE",
"505 135 CURVE SMOOTH",
"505 133 OFFCURVE",
"505 131 OFFCURVE",
"504 129 CURVE SMOOTH",
"462 79 OFFCURVE",
"392 52 OFFCURVE",
"294 49 CURVE SMOOTH",
"178 45 OFFCURVE",
"116 82 OFFCURVE",
"108 159 CURVE SMOOTH",
"105 189 OFFCURVE",
"119 234 OFFCURVE",
"152 292 CURVE SMOOTH",
"158 302 OFFCURVE",
"160 307 OFFCURVE",
"157 310 CURVE SMOOTH",
"154 313 OFFCURVE",
"150 310 OFFCURVE",
"143 302 CURVE SMOOTH",
"96 243 OFFCURVE",
"73 178 OFFCURVE",
"73 104 CURVE SMOOTH",
"73 49 OFFCURVE",
"90 5 OFFCURVE",
"122 -25 CURVE SMOOTH",
"154 -55 OFFCURVE",
"200 -71 OFFCURVE",
"261 -72 CURVE SMOOTH",
"306 -73 OFFCURVE",
"356 -61 OFFCURVE",
"411 -36 CURVE SMOOTH",
"466 -11 OFFCURVE",
"501 19 OFFCURVE",
"516 55 CURVE SMOOTH",
"539 110 OFFCURVE",
"548 172 OFFCURVE",
"543 241 CURVE SMOOTH",
"540 284 OFFCURVE",
"533 355 OFFCURVE",
"521 453 CURVE SMOOTH",
"509 551 OFFCURVE",
"504 602 OFFCURVE",
"508 607 CURVE SMOOTH",
"532 640 LINE SMOOTH",
"538 647 OFFCURVE",
"540 653 OFFCURVE",
"538 657 CURVE SMOOTH",
"536 661 OFFCURVE",
"533 665 OFFCURVE",
"527 670 CURVE SMOOTH",
"507 687 OFFCURVE",
"494 705 OFFCURVE",
"487 725 CURVE SMOOTH",
"480 745 OFFCURVE",
"475 756 OFFCURVE",
"472 758 CURVE",
"470 757 OFFCURVE",
"468 754 OFFCURVE",
"466 750 CURVE SMOOTH",
"441 701 LINE SMOOTH",
"435 690 OFFCURVE",
"435 676 OFFCURVE",
"441 661 CURVE SMOOTH"
);
},
{
closed = 1;
nodes = (
"434 617 OFFCURVE",
"431 635 OFFCURVE",
"427 656 CURVE",
"420 675 OFFCURVE",
"420 693 OFFCURVE",
"428 708 CURVE SMOOTH",
"454 757 LINE SMOOTH",
"469 786 OFFCURVE",
"483 778 OFFCURVE",
"499 734 CURVE SMOOTH",
"506 714 OFFCURVE",
"519 696 OFFCURVE",
"537 681 CURVE SMOOTH",
"555 666 OFFCURVE",
"558 649 OFFCURVE",
"544 631 CURVE SMOOTH",
"521 601 LINE",
"524 557 OFFCURVE",
"529 496 OFFCURVE",
"539 420 CURVE SMOOTH",
"549 344 OFFCURVE",
"555 285 OFFCURVE",
"558 242 CURVE SMOOTH",
"563 170 OFFCURVE",
"554 106 OFFCURVE",
"530 49 CURVE SMOOTH",
"513 10 OFFCURVE",
"476 -23 OFFCURVE",
"418 -49 CURVE SMOOTH",
"360 -75 OFFCURVE",
"308 -87 OFFCURVE",
"261 -86 CURVE SMOOTH",
"164 -85 OFFCURVE",
"102 -49 OFFCURVE",
"73 23 CURVE SMOOTH",
"63 48 OFFCURVE",
"59 75 OFFCURVE",
"59 104 CURVE SMOOTH",
"59 181 OFFCURVE",
"82 250 OFFCURVE",
"131 311 CURVE SMOOTH",
"144 327 OFFCURVE",
"156 330 OFFCURVE",
"167 321 CURVE",
"174 311 OFFCURVE",
"174 300 OFFCURVE",
"167 287 CURVE SMOOTH",
"135 230 OFFCURVE",
"120 188 OFFCURVE",
"123 161 CURVE SMOOTH",
"130 92 OFFCURVE",
"187 59 OFFCURVE",
"293 63 CURVE SMOOTH",
"385 66 OFFCURVE",
"451 91 OFFCURVE",
"490 136 CURVE",
"473 257 OFFCURVE",
"463 347 OFFCURVE",
"457 406 CURVE SMOOTH",
"451 465 OFFCURVE",
"444 530 OFFCURVE",
"437 598 CURVE"
);
}
);
width = 617;
},
{
layerId = "037FF2D3-C03F-44B0-90AB-89AFD43EFA27";
width = 600;
}
);
unicode = 1EEAB;
}
{
glyphname = u1EEAC;
layers = (
{
layerId = "7FE84AD5-D318-40C5-A81A-3CDC73FF77D2";
paths = (
{
closed = 1;
nodes = (
"163 468 OFFCURVE",
"160 470 OFFCURVE",
"160 476 CURVE SMOOTH",
"162 507 OFFCURVE",
"174 526 OFFCURVE",
"197 532 CURVE SMOOTH",
"213 536 OFFCURVE",
"233 527 OFFCURVE",
"259 505 CURVE SMOOTH",
"266 499 OFFCURVE",
"264 496 OFFCURVE",
"255 493 CURVE",
"222 489 OFFCURVE",
"194 481 OFFCURVE",
"170 471 CURVE"
);
},
{
closed = 1;
nodes = (
"194 497 OFFCURVE",
"214 501 OFFCURVE",
"236 505 CURVE",
"204 527 OFFCURVE",
"184 523 OFFCURVE",
"176 490 CURVE"
);
},
{
closed = 1;
nodes = (
"118 445 OFFCURVE",
"115 442 OFFCURVE",
"111 438 CURVE SMOOTH",
"107 434 OFFCURVE",
"101 425 OFFCURVE",
"93 410 CURVE SMOOTH",
"85 395 OFFCURVE",
"79 373 OFFCURVE",
"75 343 CURVE SMOOTH",
"69 297 OFFCURVE",
"86 198 OFFCURVE",
"126 47 CURVE SMOOTH",
"148 -37 OFFCURVE",
"162 -110 OFFCURVE",
"167 -171 CURVE SMOOTH",
"169 -194 OFFCURVE",
"175 -204 OFFCURVE",
"185 -203 CURVE",
"226 -196 OFFCURVE",
"201 -20 OFFCURVE",
"112 325 CURVE SMOOTH",
"111 328 OFFCURVE",
"112 330 OFFCURVE",
"114 332 CURVE SMOOTH",
"173 397 OFFCURVE",
"254 418 OFFCURVE",
"358 394 CURVE",
"370 392 OFFCURVE",
"378 397 OFFCURVE",
"383 410 CURVE SMOOTH",
"386 418 OFFCURVE",
"391 437 OFFCURVE",
"396 466 CURVE SMOOTH",
"401 495 OFFCURVE",
"403 511 OFFCURVE",
"402 515 CURVE SMOOTH",
"401 519 OFFCURVE",
"399 526 OFFCURVE",
"394 534 CURVE",
"288 678 OFFCURVE",
"205 690 OFFCURVE",
"146 571 CURVE SMOOTH",
"129 536 OFFCURVE",
"120 494 OFFCURVE",
"118 447 CURVE SMOOTH"
);
},
{
closed = 1;
nodes = (
"105 499 OFFCURVE",
"115 540 OFFCURVE",
"132 575 CURVE SMOOTH",
"198 710 OFFCURVE",
"289 699 OFFCURVE",
"405 542 CURVE",
"414 528 OFFCURVE",
"418 514 OFFCURVE",
"416 498 CURVE SMOOTH",
"414 482 OFFCURVE",
"411 464 OFFCURVE",
"407 444 CURVE SMOOTH",
"403 424 OFFCURVE",
"399 410 OFFCURVE",
"396 402 CURVE SMOOTH",
"393 394 OFFCURVE",
"388 387 OFFCURVE",
"381 383 CURVE SMOOTH",
"374 379 OFFCURVE",
"365 377 OFFCURVE",
"355 379 CURVE",
"258 402 OFFCURVE",
"182 384 OFFCURVE",
"128 325 CURVE",
"150 238 OFFCURVE",
"169 157 OFFCURVE",
"185 81 CURVE",
"214 -63 OFFCURVE",
"224 -152 OFFCURVE",
"214 -186 CURVE SMOOTH",
"208 -205 OFFCURVE",
"201 -215 OFFCURVE",
"189 -217 CURVE SMOOTH",
"177 -219 OFFCURVE",
"168 -215 OFFCURVE",
"162 -207 CURVE SMOOTH",
"156 -199 OFFCURVE",
"153 -187 OFFCURVE",
"152 -172 CURVE SMOOTH",
"147 -112 OFFCURVE",
"133 -40 OFFCURVE",
"111 43 CURVE SMOOTH",
"71 196 OFFCURVE",
"54 297 OFFCURVE",
"60 344 CURVE SMOOTH",
"66 391 OFFCURVE",
"81 427 OFFCURVE",
"103 451 CURVE"
);
}
);
width = 475;
},
{
layerId = "037FF2D3-C03F-44B0-90AB-89AFD43EFA27";
width = 600;
}
);
unicode = 1EEAC;
}
{
glyphname = u1EEAD;
layers = (
{
layerId = "7FE84AD5-D318-40C5-A81A-3CDC73FF77D2";
paths = (
{
closed = 1;
nodes = (
"206 538 LINE SMOOTH",
"204 535 OFFCURVE",
"204 534 OFFCURVE",
"207 532 CURVE SMOOTH",
"249 507 OFFCURVE",
"272 493 OFFCURVE",
"276 490 CURVE SMOOTH",
"280 487 OFFCURVE",
"283 484 OFFCURVE",
"284 484 CURVE SMOOTH",
"285 484 OFFCURVE",
"286 485 OFFCURVE",
"288 487 CURVE SMOOTH",
"335 562 LINE SMOOTH",
"337 565 OFFCURVE",
"337 568 OFFCURVE",
"334 571 CURVE",
"313 589 OFFCURVE",
"289 603 OFFCURVE",
"263 612 CURVE SMOOTH",
"259 613 OFFCURVE",
"256 613 OFFCURVE",
"254 610 CURVE SMOOTH"
);
},
{
closed = 1;
nodes = (
"248 627 OFFCURVE",
"257 630 OFFCURVE",
"268 626 CURVE SMOOTH",
"301 614 OFFCURVE",
"326 600 OFFCURVE",
"344 582 CURVE SMOOTH",
"352 574 OFFCURVE",
"354 564 OFFCURVE",
"348 554 CURVE SMOOTH",
"300 479 LINE SMOOTH",
"297 474 OFFCURVE",
"292 471 OFFCURVE",
"286 470 CURVE SMOOTH",
"280 469 OFFCURVE",
"275 471 OFFCURVE",
"269 476 CURVE SMOOTH",
"263 481 OFFCURVE",
"240 495 OFFCURVE",
"199 519 CURVE SMOOTH",
"188 526 OFFCURVE",
"187 535 OFFCURVE",
"194 546 CURVE SMOOTH",
"242 618 LINE SMOOTH"
);
},
{
closed = 1;
nodes = (
"445 467 OFFCURVE",
"440 474 OFFCURVE",
"436 475 CURVE",
"434 474 OFFCURVE",
"432 471 OFFCURVE",
"430 466 CURVE SMOOTH",
"393 382 LINE",
"390 376 OFFCURVE",
"392 368 OFFCURVE",
"398 358 CURVE SMOOTH",
"451 268 OFFCURVE",
"480 193 OFFCURVE",
"483 133 CURVE SMOOTH",
"483 131 OFFCURVE",
"482 130 OFFCURVE",
"481 128 CURVE SMOOTH",
"429 73 OFFCURVE",
"358 46 OFFCURVE",
"268 45 CURVE SMOOTH",
"193 44 OFFCURVE",
"143 64 OFFCURVE",
"118 106 CURVE SMOOTH",
"93 148 OFFCURVE",
"100 202 OFFCURVE",
"137 268 CURVE SMOOTH",
"143 277 OFFCURVE",
"143 282 OFFCURVE",
"139 284 CURVE SMOOTH",
"139 285 LINE SMOOTH",
"138 287 OFFCURVE",
"134 284 OFFCURVE",
"129 277 CURVE SMOOTH",
"93 224 OFFCURVE",
"74 168 OFFCURVE",
"73 109 CURVE SMOOTH",
"72 50 OFFCURVE",
"90 4 OFFCURVE",
"126 -30 CURVE SMOOTH",
"162 -64 OFFCURVE",
"212 -78 OFFCURVE",
"274 -71 CURVE SMOOTH",
"365 -61 OFFCURVE",
"431 -25 OFFCURVE",
"472 37 CURVE SMOOTH",
"489 63 OFFCURVE",
"499 91 OFFCURVE",
"503 121 CURVE SMOOTH",
"518 244 OFFCURVE",
"502 355 OFFCURVE",
"452 454 CURVE SMOOTH"
);
},
{
closed = 1;
nodes = (
"515 359 OFFCURVE",
"533 245 OFFCURVE",
"518 119 CURVE SMOOTH",
"514 87 OFFCURVE",
"502 56 OFFCURVE",
"482 25 CURVE SMOOTH",
"440 -39 OFFCURVE",
"372 -76 OFFCURVE",
"276 -86 CURVE SMOOTH",
"209 -93 OFFCURVE",
"156 -78 OFFCURVE",
"116 -41 CURVE SMOOTH",
"76 -4 OFFCURVE",
"58 47 OFFCURVE",
"59 109 CURVE SMOOTH",
"60 171 OFFCURVE",
"80 230 OFFCURVE",
"118 285 CURVE SMOOTH",
"128 300 OFFCURVE",
"138 303 OFFCURVE",
"149 295 CURVE",
"158 287 OFFCURVE",
"158 276 OFFCURVE",
"150 261 CURVE SMOOTH",
"115 200 OFFCURVE",
"109 151 OFFCURVE",
"131 114 CURVE SMOOTH",
"153 77 OFFCURVE",
"198 59 OFFCURVE",
"268 60 CURVE SMOOTH",
"352 61 OFFCURVE",
"419 86 OFFCURVE",
"468 136 CURVE",
"464 193 OFFCURVE",
"436 264 OFFCURVE",
"385 350 CURVE SMOOTH",
"377 364 OFFCURVE",
"374 377 OFFCURVE",
"379 388 CURVE SMOOTH",
"417 472 LINE SMOOTH",
"420 480 OFFCURVE",
"424 485 OFFCURVE",
"429 487 CURVE SMOOTH",
"441 494 OFFCURVE",
"452 485 OFFCURVE",
"464 461 CURVE SMOOTH"
);
}
);
width = 581;
},
{
layerId = "037FF2D3-C03F-44B0-90AB-89AFD43EFA27";
width = 600;
}
);
unicode = 1EEAD;
}
{
glyphname = u1EEAE;
layers = (
{
layerId = "7FE84AD5-D318-40C5-A81A-3CDC73FF77D2";
paths = (
{
closed = 1;
nodes = (
"876 440 LINE SMOOTH",
"874 432 OFFCURVE",
"873 427 OFFCURVE",
"874 425 CURVE",
"881 413 OFFCURVE",
"885 405 OFFCURVE",
"885 402 CURVE SMOOTH",
"885 396 OFFCURVE",
"883 393 OFFCURVE",
"878 393 CURVE SMOOTH",
"849 392 OFFCURVE",
"822 399 OFFCURVE",
"799 414 CURVE SMOOTH",
"796 416 OFFCURVE",
"796 419 OFFCURVE",
"797 424 CURVE SMOOTH",
"802 448 OFFCURVE",
"801 465 OFFCURVE",
"795 473 CURVE SMOOTH",
"789 481 OFFCURVE",
"784 477 OFFCURVE",
"780 459 CURVE SMOOTH",
"759 369 OFFCURVE",
"710 330 OFFCURVE",
"633 342 CURVE SMOOTH",
"630 342 OFFCURVE",
"628 345 OFFCURVE",
"626 350 CURVE SMOOTH",
"624 355 OFFCURVE",
"618 365 OFFCURVE",
"611 379 CURVE SMOOTH",
"604 393 OFFCURVE",
"597 403 OFFCURVE",
"592 407 CURVE SMOOTH",
"587 411 OFFCURVE",
"584 413 OFFCURVE",
"583 413 CURVE SMOOTH",
"582 413 OFFCURVE",
"581 412 OFFCURVE",
"580 410 CURVE SMOOTH",
"539 331 LINE SMOOTH",
"536 325 OFFCURVE",
"536 318 OFFCURVE",
"541 309 CURVE SMOOTH",
"576 243 OFFCURVE",
"592 187 OFFCURVE",
"590 143 CURVE SMOOTH",
"590 142 OFFCURVE",
"590 140 OFFCURVE",
"589 139 CURVE SMOOTH",
"533 53 OFFCURVE",
"434 11 OFFCURVE",
"292 12 CURVE SMOOTH",
"194 12 OFFCURVE",
"132 55 OFFCURVE",
"109 141 CURVE",
"102 167 OFFCURVE",
"115 220 OFFCURVE",
"148 300 CURVE SMOOTH",
"150 306 OFFCURVE",
"150 308 OFFCURVE",
"149 309 CURVE SMOOTH",
"148 310 OFFCURVE",
"146 311 OFFCURVE",
"146 311 CURVE SMOOTH",
"144 312 OFFCURVE",
"142 310 OFFCURVE",
"139 305 CURVE SMOOTH",
"110 250 OFFCURVE",
"91 199 OFFCURVE",
"81 151 CURVE SMOOTH",
"71 103 OFFCURVE",
"71 66 OFFCURVE",
"78 39 CURVE SMOOTH",
"105 -57 OFFCURVE",
"173 -106 OFFCURVE",
"281 -109 CURVE SMOOTH",
"368 -111 OFFCURVE",
"451 -83 OFFCURVE",
"529 -22 CURVE SMOOTH",
"565 6 OFFCURVE",
"590 40 OFFCURVE",
"604 81 CURVE SMOOTH",
"618 122 OFFCURVE",
"626 169 OFFCURVE",
"630 221 CURVE SMOOTH",
"630 226 OFFCURVE",
"633 228 OFFCURVE",
"638 228 CURVE SMOOTH",
"689 224 OFFCURVE",
"730 246 OFFCURVE",
"760 294 CURVE SMOOTH",
"763 299 OFFCURVE",
"767 300 OFFCURVE",
"771 296 CURVE",
"806 270 OFFCURVE",
"836 262 OFFCURVE",
"863 269 CURVE SMOOTH",
"876 273 OFFCURVE",
"886 280 OFFCURVE",
"893 291 CURVE SMOOTH",
"917 328 OFFCURVE",
"929 379 OFFCURVE",
"929 442 CURVE SMOOTH",
"929 473 OFFCURVE",
"923 495 OFFCURVE",
"910 509 CURVE SMOOTH",
"904 516 OFFCURVE",
"900 518 OFFCURVE",
"898 517 CURVE SMOOTH",
"896 516 OFFCURVE",
"895 513 OFFCURVE",
"894 508 CURVE SMOOTH"
);
},
{
closed = 1;
nodes = (
"736 233 OFFCURVE",
"696 211 OFFCURVE",
"645 212 CURVE",
"638 124 OFFCURVE",
"618 59 OFFCURVE",
"587 16 CURVE SMOOTH",
"574 -2 OFFCURVE",
"557 -19 OFFCURVE",
"538 -34 CURVE SMOOTH",
"457 -96 OFFCURVE",
"371 -126 OFFCURVE",
"281 -124 CURVE SMOOTH",
"165 -121 OFFCURVE",
"93 -68 OFFCURVE",
"64 35 CURVE SMOOTH",
"56 64 OFFCURVE",
"57 103 OFFCURVE",
"67 153 CURVE SMOOTH",
"77 203 OFFCURVE",
"97 256 OFFCURVE",
"127 312 CURVE SMOOTH",
"134 325 OFFCURVE",
"143 329 OFFCURVE",
"154 323 CURVE",
"164 317 OFFCURVE",
"167 307 OFFCURVE",
"161 294 CURVE SMOOTH",
"129 217 OFFCURVE",
"116 168 OFFCURVE",
"123 145 CURVE",
"144 67 OFFCURVE",
"201 26 OFFCURVE",
"292 26 CURVE SMOOTH",
"427 25 OFFCURVE",
"522 66 OFFCURVE",
"576 146 CURVE",
"577 187 OFFCURVE",
"561 239 OFFCURVE",
"528 302 CURVE SMOOTH",
"521 316 OFFCURVE",
"520 328 OFFCURVE",
"526 338 CURVE SMOOTH",
"568 417 LINE SMOOTH",
"570 421 OFFCURVE",
"572 422 OFFCURVE",
"574 424 CURVE SMOOTH",
"588 435 OFFCURVE",
"607 418 OFFCURVE",
"630 375 CURVE SMOOTH",
"633 368 OFFCURVE",
"636 363 OFFCURVE",
"639 356 CURVE",
"705 348 OFFCURVE",
"747 383 OFFCURVE",
"766 463 CURVE SMOOTH",
"771 482 OFFCURVE",
"779 490 OFFCURVE",
"792 489 CURVE",
"812 487 OFFCURVE",
"819 466 OFFCURVE",
"812 424 CURVE",
"829 414 OFFCURVE",
"847 409 OFFCURVE",
"867 408 CURVE",
"865 411 OFFCURVE",
"864 414 OFFCURVE",
"861 419 CURVE SMOOTH",
"858 424 OFFCURVE",
"859 432 OFFCURVE",
"862 444 CURVE SMOOTH",
"880 512 LINE SMOOTH",
"882 519 OFFCURVE",
"885 524 OFFCURVE",
"888 527 CURVE SMOOTH",
"897 535 OFFCURVE",
"907 534 OFFCURVE",
"917 523 CURVE SMOOTH",
"935 504 OFFCURVE",
"943 477 OFFCURVE",
"943 442 CURVE SMOOTH",
"943 376 OFFCURVE",
"930 323 OFFCURVE",
"905 283 CURVE SMOOTH",
"896 269 OFFCURVE",
"884 259 OFFCURVE",
"867 255 CURVE SMOOTH",
"837 247 OFFCURVE",
"804 255 OFFCURVE",
"768 280 CURVE"
);
}
);
width = 1001;
},
{
layerId = "037FF2D3-C03F-44B0-90AB-89AFD43EFA27";
width = 600;
}
);
unicode = 1EEAE;
}
{
glyphname = u1EEAF;
layers = (
{
layerId = "7FE84AD5-D318-40C5-A81A-3CDC73FF77D2";
paths = (
{
closed = 1;
nodes = (
"139 -36 OFFCURVE",
"92 35 OFFCURVE",
"102 142 CURVE SMOOTH",
"112 249 OFFCURVE",
"165 337 OFFCURVE",
"260 405 CURVE SMOOTH",
"329 454 OFFCURVE",
"388 490 OFFCURVE",
"437 513 CURVE SMOOTH",
"444 516 OFFCURVE",
"448 521 OFFCURVE",
"451 529 CURVE SMOOTH",
"483 605 LINE",
"485 611 OFFCURVE",
"485 614 OFFCURVE",
"484 615 CURVE SMOOTH",
"480 620 OFFCURVE",
"459 611 OFFCURVE",
"422 587 CURVE SMOOTH",
"385 563 OFFCURVE",
"357 545 OFFCURVE",
"338 532 CURVE SMOOTH",
"319 519 OFFCURVE",
"305 514 OFFCURVE",
"295 513 CURVE SMOOTH",
"234 509 OFFCURVE",
"179 527 OFFCURVE",
"130 567 CURVE SMOOTH",
"126 570 OFFCURVE",
"126 574 OFFCURVE",
"129 578 CURVE SMOOTH",
"191 650 OFFCURVE",
"260 678 OFFCURVE",
"335 662 CURVE SMOOTH",
"345 660 OFFCURVE",
"352 659 OFFCURVE",
"355 660 CURVE",
"356 663 OFFCURVE",
"355 667 OFFCURVE",
"351 673 CURVE SMOOTH",
"340 689 OFFCURVE",
"325 704 OFFCURVE",
"304 716 CURVE SMOOTH",
"268 738 OFFCURVE",
"238 741 OFFCURVE",
"214 725 CURVE SMOOTH",
"143 676 OFFCURVE",
"101 606 OFFCURVE",
"91 516 CURVE SMOOTH",
"88 489 OFFCURVE",
"121 460 OFFCURVE",
"189 430 CURVE SMOOTH",
"195 427 OFFCURVE",
"196 423 OFFCURVE",
"192 418 CURVE SMOOTH",
"131 340 OFFCURVE",
"93 252 OFFCURVE",
"79 154 CURVE SMOOTH",
"52 -39 OFFCURVE",
"118 -155 OFFCURVE",
"277 -195 CURVE SMOOTH",
"332 -209 OFFCURVE",
"402 -213 OFFCURVE",
"488 -207 CURVE SMOOTH",
"528 -204 OFFCURVE",
"560 -196 OFFCURVE",
"582 -183 CURVE SMOOTH",
"713 -106 LINE SMOOTH",
"728 -98 OFFCURVE",
"735 -89 OFFCURVE",
"735 -82 CURVE",
"732 -79 OFFCURVE",
"720 -80 OFFCURVE",
"698 -84 CURVE",
"507 -116 OFFCURVE",
"356 -113 OFFCURVE",
"243 -73 CURVE SMOOTH"
);
},
{
closed = 1;
nodes = (
"358 -98 OFFCURVE",
"507 -102 OFFCURVE",
"695 -70 CURVE",
"730 -63 OFFCURVE",
"749 -67 OFFCURVE",
"750 -80 CURVE SMOOTH",
"751 -94 OFFCURVE",
"741 -107 OFFCURVE",
"720 -119 CURVE SMOOTH",
"590 -195 LINE SMOOTH",
"566 -209 OFFCURVE",
"532 -218 OFFCURVE",
"489 -221 CURVE SMOOTH",
"402 -227 OFFCURVE",
"330 -223 OFFCURVE",
"273 -209 CURVE SMOOTH",
"106 -167 OFFCURVE",
"37 -47 OFFCURVE",
"65 154 CURVE SMOOTH",
"79 252 OFFCURVE",
"114 341 OFFCURVE",
"174 420 CURVE",
"105 452 OFFCURVE",
"73 485 OFFCURVE",
"77 518 CURVE SMOOTH",
"88 613 OFFCURVE",
"131 687 OFFCURVE",
"206 737 CURVE SMOOTH",
"244 763 OFFCURVE",
"289 753 OFFCURVE",
"340 708 CURVE SMOOTH",
"365 686 OFFCURVE",
"374 669 OFFCURVE",
"369 655 CURVE SMOOTH",
"365 646 OFFCURVE",
"353 643 OFFCURVE",
"332 647 CURVE SMOOTH",
"264 661 OFFCURVE",
"202 637 OFFCURVE",
"145 574 CURVE",
"190 540 OFFCURVE",
"240 524 OFFCURVE",
"294 527 CURVE SMOOTH",
"301 528 OFFCURVE",
"313 534 OFFCURVE",
"331 545 CURVE",
"388 582 OFFCURVE",
"425 606 OFFCURVE",
"445 617 CURVE SMOOTH",
"465 628 OFFCURVE",
"479 632 OFFCURVE",
"489 630 CURVE SMOOTH",
"499 628 OFFCURVE",
"501 618 OFFCURVE",
"497 601 CURVE SMOOTH",
"497 600 LINE SMOOTH",
"465 523 LINE SMOOTH",
"460 511 OFFCURVE",
"453 503 OFFCURVE",
"443 499 CURVE SMOOTH",
"395 477 OFFCURVE",
"337 442 OFFCURVE",
"269 393 CURVE SMOOTH",
"177 327 OFFCURVE",
"127 244 OFFCURVE",
"117 143 CURVE SMOOTH",
"107 42 OFFCURVE",
"151 -25 OFFCURVE",
"248 -59 CURVE SMOOTH"
);
}
);
width = 808;
},
{
layerId = "037FF2D3-C03F-44B0-90AB-89AFD43EFA27";
width = 600;
}
);
unicode = 1EEAF;
}
{
glyphname = u1EEB0;
layers = (
{
layerId = "7FE84AD5-D318-40C5-A81A-3CDC73FF77D2";
paths = (
{
closed = 1;
nodes = (
"573 646 LINE SMOOTH",
"571 643 OFFCURVE",
"571 641 OFFCURVE",
"574 639 CURVE SMOOTH",
"616 614 OFFCURVE",
"638 600 OFFCURVE",
"643 596 CURVE SMOOTH",
"648 592 OFFCURVE",
"650 591 OFFCURVE",
"651 591 CURVE SMOOTH",
"652 591 OFFCURVE",
"653 592 OFFCURVE",
"655 594 CURVE SMOOTH",
"702 669 LINE SMOOTH",
"704 672 OFFCURVE",
"704 675 OFFCURVE",
"701 678 CURVE",
"680 696 OFFCURVE",
"656 711 OFFCURVE",
"630 720 CURVE SMOOTH",
"626 721 OFFCURVE",
"623 721 OFFCURVE",
"621 718 CURVE SMOOTH"
);
},
{
closed = 1;
nodes = (
"615 735 OFFCURVE",
"624 737 OFFCURVE",
"635 733 CURVE SMOOTH",
"668 721 OFFCURVE",
"693 707 OFFCURVE",
"711 689 CURVE SMOOTH",
"719 681 OFFCURVE",
"721 672 OFFCURVE",
"715 662 CURVE",
"667 586 LINE SMOOTH",
"660 574 OFFCURVE",
"650 573 OFFCURVE",
"638 582 CURVE SMOOTH",
"631 587 OFFCURVE",
"607 602 OFFCURVE",
"566 626 CURVE SMOOTH",
"555 633 OFFCURVE",
"554 642 OFFCURVE",
"561 653 CURVE SMOOTH",
"609 726 LINE SMOOTH"
);
},
{
closed = 1;
nodes = (
"792 361 OFFCURVE",
"783 357 OFFCURVE",
"772 357 CURVE SMOOTH",
"761 357 OFFCURVE",
"751 360 OFFCURVE",
"742 368 CURVE SMOOTH",
"733 376 OFFCURVE",
"731 385 OFFCURVE",
"736 393 CURVE SMOOTH",
"753 423 OFFCURVE",
"775 425 OFFCURVE",
"804 401 CURVE SMOOTH",
"815 392 OFFCURVE",
"813 380 OFFCURVE",
"799 367 CURVE SMOOTH"
);
},
{
closed = 1;
nodes = (
"764 368 OFFCURVE",
"778 367 OFFCURVE",
"790 378 CURVE SMOOTH",
"796 383 OFFCURVE",
"797 387 OFFCURVE",
"796 389 CURVE SMOOTH",
"795 391 OFFCURVE",
"790 394 OFFCURVE",
"783 398 CURVE SMOOTH",
"769 406 OFFCURVE",
"757 403 OFFCURVE",
"749 387 CURVE SMOOTH",
"748 384 OFFCURVE",
"748 382 OFFCURVE",
"749 381 CURVE SMOOTH"
);
},
{
closed = 1;
nodes = (
"911 378 OFFCURVE",
"888 452 OFFCURVE",
"848 503 CURVE SMOOTH",
"834 520 OFFCURVE",
"822 529 OFFCURVE",
"812 529 CURVE SMOOTH",
"792 530 OFFCURVE",
"774 516 OFFCURVE",
"757 489 CURVE",
"717 428 OFFCURVE",
"697 376 OFFCURVE",
"698 331 CURVE",
"699 305 OFFCURVE",
"706 285 OFFCURVE",
"719 272 CURVE SMOOTH",
"732 259 OFFCURVE",
"754 255 OFFCURVE",
"787 262 CURVE SMOOTH",
"820 269 OFFCURVE",
"841 285 OFFCURVE",
"853 312 CURVE SMOOTH",
"856 319 OFFCURVE",
"861 320 OFFCURVE",
"866 314 CURVE SMOOTH",
"880 297 OFFCURVE",
"887 285 OFFCURVE",
"887 276 CURVE SMOOTH",
"887 258 OFFCURVE",
"867 240 OFFCURVE",
"829 219 CURVE SMOOTH",
"714 158 OFFCURVE",
"587 119 OFFCURVE",
"449 102 CURVE SMOOTH",
"311 85 OFFCURVE",
"207 101 OFFCURVE",
"139 150 CURVE SMOOTH",
"95 182 OFFCURVE",
"91 230 OFFCURVE",
"127 295 CURVE SMOOTH",
"134 308 OFFCURVE",
"136 316 OFFCURVE",
"132 319 CURVE SMOOTH",
"128 322 OFFCURVE",
"122 317 OFFCURVE",
"112 304 CURVE SMOOTH",
"102 291 OFFCURVE",
"93 269 OFFCURVE",
"84 236 CURVE SMOOTH",
"75 203 OFFCURVE",
"72 176 OFFCURVE",
"74 154 CURVE SMOOTH",
"78 114 OFFCURVE",
"89 81 OFFCURVE",
"110 57 CURVE SMOOTH",
"151 8 OFFCURVE",
"230 -17 OFFCURVE",
"348 -16 CURVE SMOOTH",
"411 -16 OFFCURVE",
"484 -6 OFFCURVE",
"569 13 CURVE SMOOTH",
"654 32 OFFCURVE",
"726 59 OFFCURVE",
"787 93 CURVE SMOOTH",
"848 127 OFFCURVE",
"887 166 OFFCURVE",
"906 209 CURVE SMOOTH",
"914 229 OFFCURVE",
"918 253 OFFCURVE",
"916 282 CURVE SMOOTH"
);
},
{
closed = 1;
nodes = (
"909 433 OFFCURVE",
"926 366 OFFCURVE",
"931 283 CURVE SMOOTH",
"933 252 OFFCURVE",
"929 227 OFFCURVE",
"921 208 CURVE SMOOTH",
"913 189 OFFCURVE",
"903 172 OFFCURVE",
"892 158 CURVE SMOOTH",
"869 130 OFFCURVE",
"831 101 OFFCURVE",
"779 72 CURVE SMOOTH",
"727 43 OFFCURVE",
"658 18 OFFCURVE",
"572 -1 CURVE SMOOTH",
"486 -20 OFFCURVE",
"404 -31 OFFCURVE",
"326 -31 CURVE SMOOTH",
"248 -31 OFFCURVE",
"186 -17 OFFCURVE",
"139 13 CURVE SMOOTH",
"92 43 OFFCURVE",
"65 87 OFFCURVE",
"59 147 CURVE SMOOTH",
"56 174 OFFCURVE",
"60 206 OFFCURVE",
"69 240 CURVE SMOOTH",
"78 274 OFFCURVE",
"90 300 OFFCURVE",
"103 317 CURVE SMOOTH",
"116 334 OFFCURVE",
"129 338 OFFCURVE",
"140 331 CURVE SMOOTH",
"151 324 OFFCURVE",
"151 310 OFFCURVE",
"140 289 CURVE SMOOTH",
"108 231 OFFCURVE",
"111 189 OFFCURVE",
"148 162 CURVE SMOOTH",
"213 115 OFFCURVE",
"313 99 OFFCURVE",
"449 116 CURVE SMOOTH",
"585 133 OFFCURVE",
"709 171 OFFCURVE",
"822 231 CURVE SMOOTH",
"853 248 OFFCURVE",
"870 263 OFFCURVE",
"872 276 CURVE",
"872 280 OFFCURVE",
"869 287 OFFCURVE",
"862 296 CURVE",
"843 264 OFFCURVE",
"814 247 OFFCURVE",
"775 245 CURVE SMOOTH",
"717 242 OFFCURVE",
"686 270 OFFCURVE",
"683 330 CURVE",
"682 378 OFFCURVE",
"702 433 OFFCURVE",
"744 497 CURVE",
"765 529 OFFCURVE",
"787 545 OFFCURVE",
"810 544 CURVE SMOOTH",
"833 543 OFFCURVE",
"856 523 OFFCURVE",
"878 484 CURVE"
);
}
);
width = 989;
},
{
layerId = "037FF2D3-C03F-44B0-90AB-89AFD43EFA27";
width = 600;
}
);
unicode = 1EEB0;
}
{
glyphname = u1EEB1;
layers = (
{
layerId = "7FE84AD5-D318-40C5-A81A-3CDC73FF77D2";
paths = (
{
closed = 1;
nodes = (
"1009 526 OFFCURVE",
"963 504 OFFCURVE",
"903 459 CURVE SMOOTH",
"843 414 OFFCURVE",
"792 366 OFFCURVE",
"748 315 CURVE SMOOTH",
"746 313 OFFCURVE",
"738 313 OFFCURVE",
"723 313 CURVE SMOOTH",
"679 315 OFFCURVE",
"647 322 OFFCURVE",
"626 334 CURVE SMOOTH",
"625 335 OFFCURVE",
"624 335 OFFCURVE",
"623 336 CURVE SMOOTH",
"588 396 LINE SMOOTH",
"582 406 OFFCURVE",
"578 411 OFFCURVE",
"575 411 CURVE SMOOTH",
"573 411 LINE",
"571 410 OFFCURVE",
"570 407 OFFCURVE",
"568 402 CURVE SMOOTH",
"530 307 LINE SMOOTH",
"527 300 OFFCURVE",
"530 292 OFFCURVE",
"537 283 CURVE SMOOTH",
"568 243 OFFCURVE",
"587 195 OFFCURVE",
"593 137 CURVE SMOOTH",
"593 136 OFFCURVE",
"592 134 OFFCURVE",
"592 133 CURVE SMOOTH",
"585 115 OFFCURVE",
"565 95 OFFCURVE",
"530 72 CURVE SMOOTH",
"468 30 OFFCURVE",
"396 9 OFFCURVE",
"314 9 CURVE SMOOTH",
"202 9 OFFCURVE",
"139 52 OFFCURVE",
"128 138 CURVE SMOOTH",
"121 194 OFFCURVE",
"135 255 OFFCURVE",
"170 322 CURVE SMOOTH",
"175 330 OFFCURVE",
"175 336 OFFCURVE",
"172 338 CURVE SMOOTH",
"169 340 OFFCURVE",
"165 338 OFFCURVE",
"160 332 CURVE SMOOTH",
"155 326 OFFCURVE",
"146 311 OFFCURVE",
"132 287 CURVE SMOOTH",
"103 238 OFFCURVE",
"84 182 OFFCURVE",
"76 120 CURVE SMOOTH",
"66 40 OFFCURVE",
"87 -22 OFFCURVE",
"139 -67 CURVE SMOOTH",
"177 -100 OFFCURVE",
"232 -114 OFFCURVE",
"304 -109 CURVE SMOOTH",
"408 -102 OFFCURVE",
"495 -63 OFFCURVE",
"564 7 CURVE SMOOTH",
"593 36 OFFCURVE",
"614 102 OFFCURVE",
"628 203 CURVE SMOOTH",
"629 208 OFFCURVE",
"631 210 OFFCURVE",
"636 209 CURVE SMOOTH",
"695 197 OFFCURVE",
"762 194 OFFCURVE",
"835 200 CURVE SMOOTH",
"959 210 OFFCURVE",
"1047 242 OFFCURVE",
"1098 298 CURVE SMOOTH",
"1107 308 OFFCURVE",
"1120 329 OFFCURVE",
"1136 360 CURVE SMOOTH",
"1152 391 OFFCURVE",
"1157 416 OFFCURVE",
"1151 434 CURVE SMOOTH",
"1129 497 OFFCURVE",
"1093 528 OFFCURVE",
"1044 527 CURVE SMOOTH"
);
},
{
closed = 1;
nodes = (
"1100 543 OFFCURVE",
"1140 507 OFFCURVE",
"1164 438 CURVE SMOOTH",
"1172 417 OFFCURVE",
"1167 390 OFFCURVE",
"1150 356 CURVE SMOOTH",
"1133 322 OFFCURVE",
"1119 300 OFFCURVE",
"1109 289 CURVE SMOOTH",
"1055 230 OFFCURVE",
"964 196 OFFCURVE",
"836 186 CURVE SMOOTH",
"765 180 OFFCURVE",
"700 183 OFFCURVE",
"641 193 CURVE",
"627 93 OFFCURVE",
"604 28 OFFCURVE",
"574 -3 CURVE SMOOTH",
"502 -76 OFFCURVE",
"413 -117 OFFCURVE",
"305 -124 CURVE SMOOTH",
"229 -129 OFFCURVE",
"172 -114 OFFCURVE",
"130 -78 CURVE SMOOTH",
"74 -29 OFFCURVE",
"51 35 OFFCURVE",
"61 116 CURVE SMOOTH",
"71 197 OFFCURVE",
"99 269 OFFCURVE",
"143 333 CURVE SMOOTH",
"156 352 OFFCURVE",
"168 357 OFFCURVE",
"179 350 CURVE SMOOTH",
"190 343 OFFCURVE",
"191 331 OFFCURVE",
"182 315 CURVE SMOOTH",
"148 251 OFFCURVE",
"136 193 OFFCURVE",
"143 140 CURVE SMOOTH",
"153 62 OFFCURVE",
"210 23 OFFCURVE",
"314 23 CURVE SMOOTH",
"393 23 OFFCURVE",
"463 44 OFFCURVE",
"523 84 CURVE SMOOTH",
"554 105 OFFCURVE",
"571 122 OFFCURVE",
"578 137 CURVE",
"572 191 OFFCURVE",
"554 236 OFFCURVE",
"525 274 CURVE SMOOTH",
"515 288 OFFCURVE",
"512 301 OFFCURVE",
"517 313 CURVE SMOOTH",
"554 408 LINE SMOOTH",
"557 415 OFFCURVE",
"561 420 OFFCURVE",
"566 423 CURVE SMOOTH",
"577 430 OFFCURVE",
"589 423 OFFCURVE",
"601 403 CURVE",
"635 346 LINE",
"654 336 OFFCURVE",
"689 330 OFFCURVE",
"739 328 CURVE",
"783 379 OFFCURVE",
"835 426 OFFCURVE",
"896 472 CURVE SMOOTH",
"957 518 OFFCURVE",
"1006 541 OFFCURVE",
"1044 542 CURVE SMOOTH"
);
},
{
closed = 1;
nodes = (
"1096 381 OFFCURVE",
"1102 372 OFFCURVE",
"1094 366 CURVE",
"1033 328 OFFCURVE",
"935 310 OFFCURVE",
"799 311 CURVE SMOOTH",
"791 311 OFFCURVE",
"790 315 OFFCURVE",
"795 324 CURVE",
"908 405 OFFCURVE",
"1001 427 OFFCURVE",
"1073 392 CURVE SMOOTH"
);
},
{
closed = 1;
nodes = (
"1015 411 OFFCURVE",
"929 395 OFFCURVE",
"822 325 CURVE",
"936 326 OFFCURVE",
"1021 342 OFFCURVE",
"1077 373 CURVE"
);
}
);
width = 1226;
},
{
layerId = "037FF2D3-C03F-44B0-90AB-89AFD43EFA27";
width = 600;
}
);
unicode = 1EEB1;
}
{
glyphname = u1EEB2;
layers = (
{
layerId = "7FE84AD5-D318-40C5-A81A-3CDC73FF77D2";
paths = (
{
closed = 1;
nodes = (
"479 683 LINE SMOOTH",
"476 679 OFFCURVE",
"473 678 OFFCURVE",
"469 681 CURVE SMOOTH",
"453 693 OFFCURVE",
"435 702 OFFCURVE",
"415 709 CURVE SMOOTH",
"411 710 OFFCURVE",
"409 710 OFFCURVE",
"407 707 CURVE SMOOTH",
"358 635 LINE SMOOTH",
"356 632 OFFCURVE",
"357 630 OFFCURVE",
"360 628 CURVE SMOOTH",
"402 603 OFFCURVE",
"424 590 OFFCURVE",
"429 586 CURVE SMOOTH",
"434 582 OFFCURVE",
"436 580 OFFCURVE",
"437 580 CURVE SMOOTH",
"438 580 OFFCURVE",
"438 581 OFFCURVE",
"440 583 CURVE SMOOTH",
"474 637 LINE SMOOTH",
"477 641 OFFCURVE",
"480 641 OFFCURVE",
"484 639 CURVE SMOOTH",
"513 621 OFFCURVE",
"530 611 OFFCURVE",
"534 608 CURVE SMOOTH",
"538 605 OFFCURVE",
"540 603 OFFCURVE",
"541 603 CURVE SMOOTH",
"542 603 OFFCURVE",
"542 604 OFFCURVE",
"544 606 CURVE SMOOTH",
"592 681 LINE SMOOTH",
"594 684 OFFCURVE",
"593 687 OFFCURVE",
"590 690 CURVE",
"569 708 OFFCURVE",
"545 722 OFFCURVE",
"519 731 CURVE SMOOTH",
"515 732 OFFCURVE",
"513 732 OFFCURVE",
"511 729 CURVE SMOOTH"
);
},
{
closed = 1;
nodes = (
"505 747 OFFCURVE",
"513 749 OFFCURVE",
"524 745 CURVE SMOOTH",
"557 733 OFFCURVE",
"582 719 OFFCURVE",
"600 701 CURVE SMOOTH",
"608 693 OFFCURVE",
"610 683 OFFCURVE",
"604 673 CURVE SMOOTH",
"557 598 LINE SMOOTH",
"554 593 OFFCURVE",
"549 590 OFFCURVE",
"544 589 CURVE SMOOTH",
"539 588 OFFCURVE",
"533 590 OFFCURVE",
"528 594 CURVE SMOOTH",
"523 598 OFFCURVE",
"507 608 OFFCURVE",
"482 623 CURVE",
"453 575 LINE SMOOTH",
"450 570 OFFCURVE",
"445 567 OFFCURVE",
"439 566 CURVE SMOOTH",
"433 565 OFFCURVE",
"428 567 OFFCURVE",
"422 572 CURVE SMOOTH",
"416 577 OFFCURVE",
"393 592 OFFCURVE",
"352 616 CURVE SMOOTH",
"341 623 OFFCURVE",
"340 632 OFFCURVE",
"347 643 CURVE SMOOTH",
"395 715 LINE",
"405 730 OFFCURVE",
"431 724 OFFCURVE",
"472 697 CURVE",
"499 738 LINE SMOOTH"
);
},
{
closed = 1;
nodes = (
"453 391 OFFCURVE",
"465 398 OFFCURVE",
"478 398 CURVE SMOOTH",
"491 398 OFFCURVE",
"505 390 OFFCURVE",
"521 372 CURVE",
"526 367 OFFCURVE",
"524 361 OFFCURVE",
"513 355 CURVE SMOOTH",
"486 341 OFFCURVE",
"463 345 OFFCURVE",
"444 366 CURVE SMOOTH",
"441 369 OFFCURVE",
"441 372 OFFCURVE",
"443 375 CURVE SMOOTH"
);
},
{
closed = 1;
nodes = (
"494 378 OFFCURVE",
"486 384 OFFCURVE",
"479 384 CURVE SMOOTH",
"472 384 OFFCURVE",
"465 380 OFFCURVE",
"459 372 CURVE",
"466 366 OFFCURVE",
"473 362 OFFCURVE",
"482 362 CURVE SMOOTH",
"491 362 OFFCURVE",
"498 363 OFFCURVE",
"505 368 CURVE"
);
},
{
closed = 1;
nodes = (
"477 512 OFFCURVE",
"442 473 OFFCURVE",
"411 392 CURVE SMOOTH",
"380 311 OFFCURVE",
"389 259 OFFCURVE",
"439 237 CURVE SMOOTH",
"482 218 OFFCURVE",
"524 229 OFFCURVE",
"567 269 CURVE SMOOTH",
"570 272 OFFCURVE",
"573 271 OFFCURVE",
"576 269 CURVE SMOOTH",
"593 258 OFFCURVE",
"601 242 OFFCURVE",
"600 221 CURVE SMOOTH",
"599 200 OFFCURVE",
"569 169 OFFCURVE",
"508 127 CURVE SMOOTH",
"447 85 OFFCURVE",
"382 63 OFFCURVE",
"313 60 CURVE SMOOTH",
"244 57 OFFCURVE",
"194 71 OFFCURVE",
"162 100 CURVE SMOOTH",
"130 129 OFFCURVE",
"114 164 OFFCURVE",
"114 206 CURVE SMOOTH",
"114 248 OFFCURVE",
"135 300 OFFCURVE",
"178 364 CURVE SMOOTH",
"183 371 OFFCURVE",
"185 376 OFFCURVE",
"184 377 CURVE SMOOTH",
"178 386 OFFCURVE",
"170 384 OFFCURVE",
"163 371 CURVE SMOOTH",
"84 239 OFFCURVE",
"57 140 OFFCURVE",
"82 73 CURVE SMOOTH",
"116 -20 OFFCURVE",
"191 -65 OFFCURVE",
"308 -60 CURVE SMOOTH",
"378 -57 OFFCURVE",
"447 -32 OFFCURVE",
"517 16 CURVE SMOOTH",
"567 51 OFFCURVE",
"601 106 OFFCURVE",
"618 183 CURVE SMOOTH",
"626 219 OFFCURVE",
"627 258 OFFCURVE",
"621 300 CURVE SMOOTH",
"609 382 OFFCURVE",
"588 442 OFFCURVE",
"559 480 CURVE SMOOTH",
"544 500 OFFCURVE",
"529 511 OFFCURVE",
"512 511 CURVE SMOOTH"
);
},
{
closed = 1;
nodes = (
"375 250 OFFCURVE",
"363 307 OFFCURVE",
"397 395 CURVE SMOOTH",
"431 483 OFFCURVE",
"469 527 OFFCURVE",
"511 526 CURVE SMOOTH",
"532 526 OFFCURVE",
"553 513 OFFCURVE",
"571 489 CURVE SMOOTH",
"601 449 OFFCURVE",
"622 391 OFFCURVE",
"634 315 CURVE SMOOTH",
"646 239 OFFCURVE",
"637 170 OFFCURVE",
"609 107 CURVE SMOOTH",
"589 63 OFFCURVE",
"561 28 OFFCURVE",
"525 4 CURVE SMOOTH",
"453 -45 OFFCURVE",
"381 -71 OFFCURVE",
"309 -74 CURVE SMOOTH",
"185 -79 OFFCURVE",
"104 -31 OFFCURVE",
"68 68 CURVE SMOOTH",
"42 140 OFFCURVE",
"70 244 OFFCURVE",
"151 379 CURVE SMOOTH",
"161 395 OFFCURVE",
"172 401 OFFCURVE",
"186 394 CURVE",
"193 390 OFFCURVE",
"198 384 OFFCURVE",
"198 377 CURVE SMOOTH",
"198 370 OFFCURVE",
"196 362 OFFCURVE",
"190 355 CURVE",
"149 294 OFFCURVE",
"129 245 OFFCURVE",
"129 207 CURVE SMOOTH",
"129 169 OFFCURVE",
"144 138 OFFCURVE",
"173 111 CURVE SMOOTH",
"202 84 OFFCURVE",
"250 72 OFFCURVE",
"320 75 CURVE SMOOTH",
"390 78 OFFCURVE",
"461 107 OFFCURVE",
"533 163 CURVE SMOOTH",
"568 190 OFFCURVE",
"586 210 OFFCURVE",
"586 223 CURVE SMOOTH",
"586 236 OFFCURVE",
"582 246 OFFCURVE",
"573 254 CURVE",
"527 213 OFFCURVE",
"481 203 OFFCURVE",
"434 224 CURVE SMOOTH"
);
}
);
width = 697;
},
{
layerId = "037FF2D3-C03F-44B0-90AB-89AFD43EFA27";
width = 600;
}
);
unicode = 1EEB2;
}
{
glyphname = u1EEB3;
layers = (
{
layerId = "7FE84AD5-D318-40C5-A81A-3CDC73FF77D2";
paths = (
{
closed = 1;
nodes = (
"370 317 LINE SMOOTH",
"369 312 OFFCURVE",
"369 307 OFFCURVE",
"372 304 CURVE SMOOTH",
"424 250 OFFCURVE",
"453 208 OFFCURVE",
"460 175 CURVE SMOOTH",
"460 175 OFFCURVE",
"460 174 OFFCURVE",
"460 172 CURVE SMOOTH",
"460 171 OFFCURVE",
"459 169 OFFCURVE",
"458 166 CURVE SMOOTH",
"440 119 OFFCURVE",
"391 71 OFFCURVE",
"312 23 CURVE SMOOTH",
"266 -5 OFFCURVE",
"228 -22 OFFCURVE",
"199 -29 CURVE SMOOTH",
"170 -36 OFFCURVE",
"133 -33 OFFCURVE",
"88 -19 CURVE",
"81 -17 OFFCURVE",
"76 -18 OFFCURVE",
"74 -22 CURVE",
"71 -25 OFFCURVE",
"75 -29 OFFCURVE",
"83 -33 CURVE SMOOTH",
"116 -49 OFFCURVE",
"160 -70 OFFCURVE",
"219 -95 CURVE SMOOTH",
"233 -101 OFFCURVE",
"250 -102 OFFCURVE",
"271 -96 CURVE SMOOTH",
"329 -81 OFFCURVE",
"379 -47 OFFCURVE",
"419 5 CURVE SMOOTH",
"488 95 OFFCURVE",
"508 195 OFFCURVE",
"478 305 CURVE",
"460 366 OFFCURVE",
"438 408 OFFCURVE",
"411 430 CURVE SMOOTH",
"407 433 OFFCURVE",
"404 435 OFFCURVE",
"401 435 CURVE",
"400 434 OFFCURVE",
"400 433 OFFCURVE",
"399 430 CURVE SMOOTH"
);
},
{
closed = 1;
nodes = (
"391 461 OFFCURVE",
"408 458 OFFCURVE",
"436 425 CURVE SMOOTH",
"458 399 OFFCURVE",
"476 360 OFFCURVE",
"491 309 CURVE",
"523 195 OFFCURVE",
"502 90 OFFCURVE",
"430 -4 CURVE SMOOTH",
"388 -59 OFFCURVE",
"337 -94 OFFCURVE",
"275 -110 CURVE SMOOTH",
"251 -116 OFFCURVE",
"227 -114 OFFCURVE",
"204 -104 CURVE SMOOTH",
"149 -80 OFFCURVE",
"106 -60 OFFCURVE",
"76 -45 CURVE SMOOTH",
"60 -38 OFFCURVE",
"55 -28 OFFCURVE",
"61 -16 CURVE SMOOTH",
"67 -4 OFFCURVE",
"77 0 OFFCURVE",
"92 -5 CURVE SMOOTH",
"134 -18 OFFCURVE",
"169 -22 OFFCURVE",
"196 -15 CURVE SMOOTH",
"223 -8 OFFCURVE",
"259 9 OFFCURVE",
"304 36 CURVE SMOOTH",
"380 82 OFFCURVE",
"427 126 OFFCURVE",
"444 170 CURVE",
"445 173 LINE",
"438 203 OFFCURVE",
"410 243 OFFCURVE",
"361 294 CURVE SMOOTH",
"354 301 OFFCURVE",
"352 311 OFFCURVE",
"355 321 CURVE SMOOTH",
"384 434 LINE SMOOTH"
);
}
);
width = 563;
},
{
layerId = "037FF2D3-C03F-44B0-90AB-89AFD43EFA27";
width = 600;
}
);
unicode = 1EEB3;
}
{
glyphname = u1EEB4;
layers = (
{
components = (
{
name = u1EEAE;
}
);
layerId = "7FE84AD5-D318-40C5-A81A-3CDC73FF77D2";
paths = (
{
closed = 1;
nodes = (
"653 795 LINE SMOOTH",
"651 793 OFFCURVE",
"652 791 OFFCURVE",
"655 789 CURVE SMOOTH",
"697 764 OFFCURVE",
"719 750 OFFCURVE",
"724 746 CURVE SMOOTH",
"729 742 OFFCURVE",
"731 741 OFFCURVE",
"732 741 CURVE SMOOTH",
"733 741 OFFCURVE",
"733 742 OFFCURVE",
"735 744 CURVE SMOOTH",
"783 819 LINE SMOOTH",
"785 822 OFFCURVE",
"784 825 OFFCURVE",
"781 828 CURVE",
"760 846 OFFCURVE",
"736 861 OFFCURVE",
"710 870 CURVE SMOOTH",
"706 871 OFFCURVE",
"704 871 OFFCURVE",
"702 868 CURVE SMOOTH"
);
},
{
closed = 1;
nodes = (
"696 884 OFFCURVE",
"704 887 OFFCURVE",
"715 883 CURVE SMOOTH",
"748 871 OFFCURVE",
"774 857 OFFCURVE",
"792 839 CURVE SMOOTH",
"800 831 OFFCURVE",
"801 822 OFFCURVE",
"795 812 CURVE",
"748 736 LINE SMOOTH",
"741 724 OFFCURVE",
"731 723 OFFCURVE",
"719 732 CURVE SMOOTH",
"712 737 OFFCURVE",
"688 752 OFFCURVE",
"647 776 CURVE SMOOTH",
"636 783 OFFCURVE",
"634 792 OFFCURVE",
"642 803 CURVE",
"690 875 LINE SMOOTH"
);
},
{
closed = 1;
nodes = (
"749 689 LINE SMOOTH",
"746 685 OFFCURVE",
"743 685 OFFCURVE",
"737 689 CURVE SMOOTH",
"706 709 OFFCURVE",
"688 715 OFFCURVE",
"683 708 CURVE SMOOTH",
"635 636 LINE SMOOTH",
"633 633 OFFCURVE",
"633 632 OFFCURVE",
"636 630 CURVE SMOOTH",
"678 605 OFFCURVE",
"701 591 OFFCURVE",
"705 587 CURVE SMOOTH",
"709 584 OFFCURVE",
"712 582 OFFCURVE",
"713 582 CURVE SMOOTH",
"714 582 OFFCURVE",
"715 583 OFFCURVE",
"717 585 CURVE SMOOTH",
"748 634 LINE SMOOTH",
"751 638 OFFCURVE",
"754 639 OFFCURVE",
"759 636 CURVE SMOOTH",
"781 623 OFFCURVE",
"795 614 OFFCURVE",
"800 610 CURVE SMOOTH",
"805 606 OFFCURVE",
"807 604 OFFCURVE",
"808 604 CURVE SMOOTH",
"809 604 OFFCURVE",
"810 605 OFFCURVE",
"811 607 CURVE SMOOTH",
"858 683 LINE",
"860 687 OFFCURVE",
"857 693 OFFCURVE",
"847 700 CURVE SMOOTH",
"837 707 OFFCURVE",
"830 713 OFFCURVE",
"824 716 CURVE SMOOTH",
"797 732 OFFCURVE",
"781 737 OFFCURVE",
"777 731 CURVE SMOOTH"
);
},
{
closed = 1;
nodes = (
"772 749 OFFCURVE",
"780 751 OFFCURVE",
"791 747 CURVE SMOOTH",
"824 735 OFFCURVE",
"849 721 OFFCURVE",
"867 703 CURVE SMOOTH",
"875 695 OFFCURVE",
"877 685 OFFCURVE",
"871 675 CURVE",
"823 600 LINE",
"815 588 OFFCURVE",
"806 587 OFFCURVE",
"795 595 CURVE SMOOTH",
"789 600 OFFCURVE",
"777 608 OFFCURVE",
"756 620 CURVE",
"729 577 LINE SMOOTH",
"726 572 OFFCURVE",
"722 569 OFFCURVE",
"716 568 CURVE SMOOTH",
"710 567 OFFCURVE",
"705 569 OFFCURVE",
"699 574 CURVE SMOOTH",
"693 579 OFFCURVE",
"669 593 OFFCURVE",
"628 617 CURVE SMOOTH",
"617 624 OFFCURVE",
"616 633 OFFCURVE",
"623 644 CURVE SMOOTH",
"671 716 LINE",
"681 730 OFFCURVE",
"705 727 OFFCURVE",
"741 704 CURVE",
"766 740 LINE SMOOTH"
);
}
);
width = 1001;
},
{
layerId = "037FF2D3-C03F-44B0-90AB-89AFD43EFA27";
width = 600;
}
);
unicode = 1EEB4;
}
{
glyphname = u1EEB5;
layers = (
{
layerId = "7FE84AD5-D318-40C5-A81A-3CDC73FF77D2";
paths = (
{
closed = 1;
nodes = (
"467 459 LINE SMOOTH",
"464 455 OFFCURVE",
"461 455 OFFCURVE",
"457 458 CURVE SMOOTH",
"441 470 OFFCURVE",
"427 477 OFFCURVE",
"416 481 CURVE SMOOTH",
"405 485 OFFCURVE",
"398 486 OFFCURVE",
"397 486 CURVE SMOOTH",
"396 486 OFFCURVE",
"395 484 OFFCURVE",
"394 483 CURVE SMOOTH",
"346 411 LINE SMOOTH",
"344 408 OFFCURVE",
"344 407 OFFCURVE",
"347 405 CURVE SMOOTH",
"389 380 OFFCURVE",
"412 366 OFFCURVE",
"417 362 CURVE SMOOTH",
"422 358 OFFCURVE",
"424 357 OFFCURVE",
"425 357 CURVE SMOOTH",
"426 357 OFFCURVE",
"426 358 OFFCURVE",
"428 360 CURVE SMOOTH",
"461 413 LINE SMOOTH",
"464 417 OFFCURVE",
"467 418 OFFCURVE",
"471 416 CURVE SMOOTH",
"500 398 OFFCURVE",
"517 387 OFFCURVE",
"521 384 CURVE SMOOTH",
"525 381 OFFCURVE",
"527 379 OFFCURVE",
"528 379 CURVE SMOOTH",
"529 379 OFFCURVE",
"530 380 OFFCURVE",
"532 382 CURVE SMOOTH",
"579 458 LINE SMOOTH",
"581 461 OFFCURVE",
"581 463 OFFCURVE",
"578 466 CURVE",
"557 484 OFFCURVE",
"533 499 OFFCURVE",
"507 508 CURVE SMOOTH",
"503 509 OFFCURVE",
"500 508 OFFCURVE",
"498 505 CURVE SMOOTH"
);
},
{
closed = 1;
nodes = (
"493 523 OFFCURVE",
"501 525 OFFCURVE",
"512 521 CURVE SMOOTH",
"545 509 OFFCURVE",
"570 495 OFFCURVE",
"588 477 CURVE SMOOTH",
"596 469 OFFCURVE",
"598 460 OFFCURVE",
"592 450 CURVE",
"544 374 LINE SMOOTH",
"541 369 OFFCURVE",
"536 366 OFFCURVE",
"531 365 CURVE SMOOTH",
"526 364 OFFCURVE",
"520 366 OFFCURVE",
"515 370 CURVE SMOOTH",
"510 374 OFFCURVE",
"495 384 OFFCURVE",
"470 399 CURVE",
"440 352 LINE SMOOTH",
"437 347 OFFCURVE",
"433 344 OFFCURVE",
"427 343 CURVE SMOOTH",
"421 342 OFFCURVE",
"416 344 OFFCURVE",
"410 349 CURVE SMOOTH",
"404 354 OFFCURVE",
"381 368 OFFCURVE",
"340 392 CURVE SMOOTH",
"329 399 OFFCURVE",
"327 408 OFFCURVE",
"334 419 CURVE SMOOTH",
"383 491 LINE SMOOTH",
"389 500 OFFCURVE",
"397 503 OFFCURVE",
"405 500 CURVE SMOOTH",
"426 493 OFFCURVE",
"443 485 OFFCURVE",
"459 474 CURVE",
"487 514 LINE SMOOTH"
);
},
{
closed = 1;
nodes = (
"157 9 OFFCURVE",
"263 -21 OFFCURVE",
"418 -13 CURVE SMOOTH",
"573 -5 OFFCURVE",
"706 34 OFFCURVE",
"814 102 CURVE SMOOTH",
"834 115 OFFCURVE",
"847 139 OFFCURVE",
"853 174 CURVE SMOOTH",
"865 249 OFFCURVE",
"855 312 OFFCURVE",
"822 363 CURVE SMOOTH",
"816 372 OFFCURVE",
"812 377 OFFCURVE",
"809 378 CURVE",
"808 377 OFFCURVE",
"806 375 OFFCURVE",
"805 371 CURVE SMOOTH",
"775 282 LINE SMOOTH",
"773 275 OFFCURVE",
"775 269 OFFCURVE",
"781 264 CURVE SMOOTH",
"804 244 OFFCURVE",
"818 221 OFFCURVE",
"824 195 CURVE SMOOTH",
"825 191 OFFCURVE",
"824 189 OFFCURVE",
"821 187 CURVE SMOOTH",
"716 128 OFFCURVE",
"583 99 OFFCURVE",
"423 99 CURVE",
"231 99 OFFCURVE",
"128 139 OFFCURVE",
"115 220 CURVE SMOOTH",
"111 244 OFFCURVE",
"122 270 OFFCURVE",
"147 297 CURVE SMOOTH",
"153 303 OFFCURVE",
"154 308 OFFCURVE",
"151 312 CURVE SMOOTH",
"148 316 OFFCURVE",
"144 314 OFFCURVE",
"138 307 CURVE SMOOTH",
"112 278 OFFCURVE",
"95 252 OFFCURVE",
"86 227 CURVE SMOOTH",
"65 166 OFFCURVE",
"70 116 OFFCURVE",
"101 78 CURVE SMOOTH"
);
},
{
closed = 1;
nodes = (
"55 112 OFFCURVE",
"49 167 OFFCURVE",
"72 232 CURVE SMOOTH",
"81 258 OFFCURVE",
"100 286 OFFCURVE",
"126 316 CURVE SMOOTH",
"138 329 OFFCURVE",
"150 331 OFFCURVE",
"161 322 CURVE",
"171 312 OFFCURVE",
"170 301 OFFCURVE",
"158 288 CURVE SMOOTH",
"136 264 OFFCURVE",
"127 242 OFFCURVE",
"130 222 CURVE SMOOTH",
"142 149 OFFCURVE",
"240 113 OFFCURVE",
"423 113 CURVE SMOOTH",
"578 113 OFFCURVE",
"706 141 OFFCURVE",
"809 197 CURVE",
"803 218 OFFCURVE",
"789 237 OFFCURVE",
"768 256 CURVE SMOOTH",
"760 264 OFFCURVE",
"757 274 OFFCURVE",
"761 287 CURVE SMOOTH",
"791 375 LINE SMOOTH",
"794 382 OFFCURVE",
"797 387 OFFCURVE",
"801 390 CURVE SMOOTH",
"811 397 OFFCURVE",
"824 388 OFFCURVE",
"839 365 CURVE SMOOTH",
"872 315 OFFCURVE",
"881 250 OFFCURVE",
"868 172 CURVE SMOOTH",
"861 132 OFFCURVE",
"846 104 OFFCURVE",
"822 89 CURVE SMOOTH",
"712 19 OFFCURVE",
"576 -20 OFFCURVE",
"417 -28 CURVE SMOOTH",
"258 -36 OFFCURVE",
"149 -4 OFFCURVE",
"90 69 CURVE SMOOTH"
);
}
);
width = 931;
},
{
layerId = "037FF2D3-C03F-44B0-90AB-89AFD43EFA27";
width = 600;
}
);
unicode = 1EEB5;
}
{
glyphname = u1EEB6;
layers = (
{
layerId = "7FE84AD5-D318-40C5-A81A-3CDC73FF77D2";
paths = (
{
closed = 1;
nodes = (
"370 569 LINE SMOOTH",
"368 567 OFFCURVE",
"369 565 OFFCURVE",
"372 563 CURVE SMOOTH",
"414 538 OFFCURVE",
"437 524 OFFCURVE",
"442 520 CURVE SMOOTH",
"447 516 OFFCURVE",
"450 516 OFFCURVE",
"452 519 CURVE",
"500 594 LINE",
"503 601 OFFCURVE",
"491 611 OFFCURVE",
"465 626 CURVE SMOOTH",
"438 642 OFFCURVE",
"423 648 OFFCURVE",
"419 642 CURVE SMOOTH"
);
},
{
closed = 1;
nodes = (
"413 659 OFFCURVE",
"421 662 OFFCURVE",
"432 658 CURVE SMOOTH",
"465 646 OFFCURVE",
"491 631 OFFCURVE",
"509 613 CURVE SMOOTH",
"517 605 OFFCURVE",
"518 596 OFFCURVE",
"512 586 CURVE",
"465 510 LINE SMOOTH",
"462 505 OFFCURVE",
"457 502 OFFCURVE",
"451 501 CURVE SMOOTH",
"445 500 OFFCURVE",
"440 502 OFFCURVE",
"434 507 CURVE SMOOTH",
"428 512 OFFCURVE",
"405 527 OFFCURVE",
"364 551 CURVE SMOOTH",
"353 558 OFFCURVE",
"351 566 OFFCURVE",
"359 577 CURVE SMOOTH",
"407 650 LINE SMOOTH"
);
},
{
closed = 1;
nodes = (
"466 464 LINE SMOOTH",
"463 460 OFFCURVE",
"460 459 OFFCURVE",
"454 463 CURVE SMOOTH",
"423 483 OFFCURVE",
"405 490 OFFCURVE",
"400 483 CURVE SMOOTH",
"352 411 LINE SMOOTH",
"350 408 OFFCURVE",
"350 406 OFFCURVE",
"353 404 CURVE SMOOTH",
"395 379 OFFCURVE",
"418 366 OFFCURVE",
"423 362 CURVE SMOOTH",
"428 358 OFFCURVE",
"429 356 OFFCURVE",
"430 356 CURVE SMOOTH",
"431 356 OFFCURVE",
"432 357 OFFCURVE",
"434 359 CURVE SMOOTH",
"465 409 LINE SMOOTH",
"468 413 OFFCURVE",
"471 413 OFFCURVE",
"475 411 CURVE SMOOTH",
"500 396 OFFCURVE",
"514 387 OFFCURVE",
"518 384 CURVE SMOOTH",
"522 381 OFFCURVE",
"525 379 OFFCURVE",
"525 379 CURVE SMOOTH",
"525 379 OFFCURVE",
"527 380 OFFCURVE",
"528 382 CURVE SMOOTH",
"575 458 LINE SMOOTH",
"577 461 OFFCURVE",
"577 463 OFFCURVE",
"574 466 CURVE",
"553 484 OFFCURVE",
"529 499 OFFCURVE",
"503 508 CURVE SMOOTH",
"499 509 OFFCURVE",
"496 508 OFFCURVE",
"494 505 CURVE SMOOTH"
);
},
{
closed = 1;
nodes = (
"489 523 OFFCURVE",
"497 525 OFFCURVE",
"508 521 CURVE SMOOTH",
"541 509 OFFCURVE",
"566 495 OFFCURVE",
"584 477 CURVE SMOOTH",
"592 469 OFFCURVE",
"594 460 OFFCURVE",
"588 450 CURVE",
"540 374 LINE",
"532 363 OFFCURVE",
"523 361 OFFCURVE",
"512 369 CURVE SMOOTH",
"506 374 OFFCURVE",
"494 383 OFFCURVE",
"473 395 CURVE",
"446 351 LINE SMOOTH",
"443 346 OFFCURVE",
"439 343 OFFCURVE",
"433 342 CURVE SMOOTH",
"427 341 OFFCURVE",
"422 343 OFFCURVE",
"416 348 CURVE SMOOTH",
"410 353 OFFCURVE",
"386 368 OFFCURVE",
"345 392 CURVE SMOOTH",
"334 399 OFFCURVE",
"333 407 OFFCURVE",
"340 418 CURVE SMOOTH",
"388 491 LINE",
"398 505 OFFCURVE",
"422 501 OFFCURVE",
"458 478 CURVE",
"483 514 LINE SMOOTH"
);
},
{
closed = 1;
nodes = (
"157 9 OFFCURVE",
"263 -21 OFFCURVE",
"418 -13 CURVE SMOOTH",
"573 -5 OFFCURVE",
"706 34 OFFCURVE",
"814 102 CURVE SMOOTH",
"834 115 OFFCURVE",
"847 139 OFFCURVE",
"853 174 CURVE SMOOTH",
"865 249 OFFCURVE",
"855 312 OFFCURVE",
"822 363 CURVE SMOOTH",
"816 372 OFFCURVE",
"812 377 OFFCURVE",
"809 378 CURVE",
"808 377 OFFCURVE",
"806 375 OFFCURVE",
"805 371 CURVE SMOOTH",
"775 282 LINE SMOOTH",
"773 275 OFFCURVE",
"775 269 OFFCURVE",
"781 264 CURVE SMOOTH",
"804 244 OFFCURVE",
"818 221 OFFCURVE",
"824 195 CURVE SMOOTH",
"825 191 OFFCURVE",
"824 189 OFFCURVE",
"821 187 CURVE SMOOTH",
"716 128 OFFCURVE",
"583 99 OFFCURVE",
"423 99 CURVE",
"231 99 OFFCURVE",
"128 139 OFFCURVE",
"115 220 CURVE SMOOTH",
"111 244 OFFCURVE",
"122 270 OFFCURVE",
"147 297 CURVE SMOOTH",
"153 303 OFFCURVE",
"154 308 OFFCURVE",
"151 312 CURVE SMOOTH",
"148 316 OFFCURVE",
"144 314 OFFCURVE",
"138 307 CURVE SMOOTH",
"112 278 OFFCURVE",
"95 252 OFFCURVE",
"86 227 CURVE SMOOTH",
"65 166 OFFCURVE",
"70 116 OFFCURVE",
"101 78 CURVE SMOOTH"
);
},
{
closed = 1;
nodes = (
"55 112 OFFCURVE",
"49 167 OFFCURVE",
"72 232 CURVE SMOOTH",
"81 258 OFFCURVE",
"100 286 OFFCURVE",
"126 316 CURVE SMOOTH",
"138 329 OFFCURVE",
"150 331 OFFCURVE",
"161 322 CURVE",
"171 312 OFFCURVE",
"170 301 OFFCURVE",
"158 288 CURVE SMOOTH",
"136 264 OFFCURVE",
"127 242 OFFCURVE",
"130 222 CURVE SMOOTH",
"142 149 OFFCURVE",
"240 113 OFFCURVE",
"423 113 CURVE SMOOTH",
"578 113 OFFCURVE",
"706 141 OFFCURVE",
"809 197 CURVE",
"803 218 OFFCURVE",
"789 237 OFFCURVE",
"768 256 CURVE SMOOTH",
"760 264 OFFCURVE",
"757 274 OFFCURVE",
"761 287 CURVE SMOOTH",
"791 375 LINE SMOOTH",
"794 382 OFFCURVE",
"797 387 OFFCURVE",
"801 390 CURVE SMOOTH",
"811 397 OFFCURVE",
"824 388 OFFCURVE",
"839 365 CURVE SMOOTH",
"872 315 OFFCURVE",
"881 250 OFFCURVE",
"868 172 CURVE SMOOTH",
"861 132 OFFCURVE",
"846 104 OFFCURVE",
"822 89 CURVE SMOOTH",
"712 19 OFFCURVE",
"576 -20 OFFCURVE",
"417 -28 CURVE SMOOTH",
"258 -36 OFFCURVE",
"149 -4 OFFCURVE",
"90 69 CURVE SMOOTH"
);
}
);
width = 931;
},
{
layerId = "037FF2D3-C03F-44B0-90AB-89AFD43EFA27";
width = 600;
}
);
unicode = 1EEB6;
}
{
glyphname = u1EEB7;
layers = (
{
components = (
{
name = u1EEA7;
}
);
layerId = "7FE84AD5-D318-40C5-A81A-3CDC73FF77D2";
paths = (
{
closed = 1;
nodes = (
"277 740 LINE SMOOTH",
"275 737 OFFCURVE",
"275 736 OFFCURVE",
"278 734 CURVE SMOOTH",
"320 709 OFFCURVE",
"343 694 OFFCURVE",
"348 690 CURVE SMOOTH",
"353 686 OFFCURVE",
"357 686 OFFCURVE",
"359 689 CURVE",
"406 764 LINE SMOOTH",
"408 767 OFFCURVE",
"408 770 OFFCURVE",
"405 773 CURVE",
"384 791 OFFCURVE",
"360 805 OFFCURVE",
"334 814 CURVE SMOOTH",
"330 815 OFFCURVE",
"327 815 OFFCURVE",
"325 812 CURVE SMOOTH"
);
},
{
closed = 1;
nodes = (
"319 829 OFFCURVE",
"328 832 OFFCURVE",
"339 828 CURVE SMOOTH",
"372 816 OFFCURVE",
"397 802 OFFCURVE",
"415 784 CURVE SMOOTH",
"423 776 OFFCURVE",
"425 766 OFFCURVE",
"419 756 CURVE",
"371 681 LINE SMOOTH",
"368 676 OFFCURVE",
"364 673 OFFCURVE",
"358 672 CURVE SMOOTH",
"352 671 OFFCURVE",
"347 673 OFFCURVE",
"341 678 CURVE SMOOTH",
"335 683 OFFCURVE",
"312 697 OFFCURVE",
"271 721 CURVE SMOOTH",
"260 728 OFFCURVE",
"258 737 OFFCURVE",
"265 748 CURVE SMOOTH",
"313 820 LINE SMOOTH"
);
}
);
width = 822;
},
{
layerId = "037FF2D3-C03F-44B0-90AB-89AFD43EFA27";
width = 600;
}
);
unicode = 1EEB7;
}
{
glyphname = u1EEB8;
layers = (
{
components = (
{
name = u1EEA3;
}
);
layerId = "7FE84AD5-D318-40C5-A81A-3CDC73FF77D2";
paths = (
{
closed = 1;
nodes = (
"140 572 LINE SMOOTH",
"138 569 OFFCURVE",
"139 568 OFFCURVE",
"142 566 CURVE SMOOTH",
"184 541 OFFCURVE",
"206 527 OFFCURVE",
"211 523 CURVE SMOOTH",
"216 519 OFFCURVE",
"218 518 OFFCURVE",
"219 518 CURVE SMOOTH",
"220 518 OFFCURVE",
"220 519 OFFCURVE",
"222 521 CURVE SMOOTH",
"270 596 LINE",
"273 603 OFFCURVE",
"262 613 OFFCURVE",
"237 627 CURVE SMOOTH",
"212 642 OFFCURVE",
"198 649 OFFCURVE",
"195 648 CURVE SMOOTH",
"191 647 OFFCURVE",
"189 646 OFFCURVE",
"188 645 CURVE SMOOTH"
);
},
{
closed = 1;
nodes = (
"183 661 OFFCURVE",
"191 664 OFFCURVE",
"202 660 CURVE SMOOTH",
"233 649 OFFCURVE",
"258 635 OFFCURVE",
"278 616 CURVE",
"286 608 OFFCURVE",
"288 598 OFFCURVE",
"282 588 CURVE",
"234 513 LINE SMOOTH",
"231 508 OFFCURVE",
"227 505 OFFCURVE",
"221 504 CURVE SMOOTH",
"215 503 OFFCURVE",
"210 505 OFFCURVE",
"204 510 CURVE SMOOTH",
"198 515 OFFCURVE",
"175 529 OFFCURVE",
"134 553 CURVE SMOOTH",
"123 560 OFFCURVE",
"121 569 OFFCURVE",
"128 580 CURVE SMOOTH",
"177 652 LINE SMOOTH"
);
}
);
width = 438;
},
{
layerId = "037FF2D3-C03F-44B0-90AB-89AFD43EFA27";
width = 600;
}
);
unicode = 1EEB8;
}
{
glyphname = u1EEB9;
layers = (
{
components = (
{
name = u1EEB1;
}
);
layerId = "7FE84AD5-D318-40C5-A81A-3CDC73FF77D2";
paths = (
{
closed = 1;
nodes = (
"756 655 LINE SMOOTH",
"754 652 OFFCURVE",
"754 650 OFFCURVE",
"757 648 CURVE SMOOTH",
"799 623 OFFCURVE",
"822 609 OFFCURVE",
"827 605 CURVE SMOOTH",
"832 601 OFFCURVE",
"833 601 OFFCURVE",
"834 601 CURVE SMOOTH",
"835 601 OFFCURVE",
"836 602 OFFCURVE",
"838 604 CURVE SMOOTH",
"885 679 LINE SMOOTH",
"887 682 OFFCURVE",
"887 685 OFFCURVE",
"884 688 CURVE",
"863 706 OFFCURVE",
"839 720 OFFCURVE",
"813 729 CURVE SMOOTH",
"809 730 OFFCURVE",
"806 730 OFFCURVE",
"804 727 CURVE SMOOTH"
);
},
{
closed = 1;
nodes = (
"798 744 OFFCURVE",
"807 747 OFFCURVE",
"818 743 CURVE SMOOTH",
"849 732 OFFCURVE",
"874 717 OFFCURVE",
"894 698 CURVE",
"902 690 OFFCURVE",
"904 681 OFFCURVE",
"898 671 CURVE",
"850 595 LINE",
"842 584 OFFCURVE",
"832 583 OFFCURVE",
"820 592 CURVE SMOOTH",
"814 597 OFFCURVE",
"791 612 OFFCURVE",
"750 636 CURVE SMOOTH",
"739 643 OFFCURVE",
"737 652 OFFCURVE",
"744 663 CURVE SMOOTH",
"792 735 LINE SMOOTH"
);
}
);
width = 1226;
},
{
layerId = "037FF2D3-C03F-44B0-90AB-89AFD43EFA27";
width = 600;
}
);
unicode = 1EEB9;
}
{
glyphname = u1EEBA;
layers = (
{
components = (
{
name = u1EEA8;
}
);
layerId = "7FE84AD5-D318-40C5-A81A-3CDC73FF77D2";
paths = (
{
closed = 1;
nodes = (
"501 475 LINE SMOOTH",
"499 472 OFFCURVE",
"500 470 OFFCURVE",
"503 468 CURVE SMOOTH",
"545 443 OFFCURVE",
"567 429 OFFCURVE",
"572 425 CURVE SMOOTH",
"577 421 OFFCURVE",
"579 420 OFFCURVE",
"580 420 CURVE SMOOTH",
"581 420 OFFCURVE",
"581 421 OFFCURVE",
"583 423 CURVE SMOOTH",
"631 499 LINE SMOOTH",
"633 502 OFFCURVE",
"632 504 OFFCURVE",
"629 507 CURVE",
"608 525 OFFCURVE",
"585 540 OFFCURVE",
"559 549 CURVE SMOOTH",
"555 550 OFFCURVE",
"552 550 OFFCURVE",
"550 547 CURVE SMOOTH"
);
},
{
closed = 1;
nodes = (
"544 564 OFFCURVE",
"552 566 OFFCURVE",
"563 562 CURVE SMOOTH",
"594 551 OFFCURVE",
"620 537 OFFCURVE",
"640 518 CURVE",
"648 510 OFFCURVE",
"650 501 OFFCURVE",
"644 491 CURVE SMOOTH",
"596 415 LINE",
"588 404 OFFCURVE",
"577 403 OFFCURVE",
"565 412 CURVE SMOOTH",
"559 417 OFFCURVE",
"536 432 OFFCURVE",
"495 456 CURVE SMOOTH",
"484 463 OFFCURVE",
"483 471 OFFCURVE",
"490 482 CURVE SMOOTH",
"538 555 LINE SMOOTH"
);
}
);
width = 824;
},
{
layerId = "037FF2D3-C03F-44B0-90AB-89AFD43EFA27";
width = 600;
}
);
unicode = 1EEBA;
}
{
glyphname = u1EEBB;
layers = (
{
components = (
{
name = u1EEAF;
}
);
layerId = "7FE84AD5-D318-40C5-A81A-3CDC73FF77D2";
paths = (
{
closed = 1;
nodes = (
"116 855 LINE SMOOTH",
"114 852 OFFCURVE",
"114 851 OFFCURVE",
"117 849 CURVE SMOOTH",
"159 824 OFFCURVE",
"182 810 OFFCURVE",
"187 806 CURVE SMOOTH",
"192 802 OFFCURVE",
"193 801 OFFCURVE",
"194 801 CURVE SMOOTH",
"195 801 OFFCURVE",
"196 802 OFFCURVE",
"198 804 CURVE SMOOTH",
"245 879 LINE SMOOTH",
"247 882 OFFCURVE",
"247 885 OFFCURVE",
"244 888 CURVE",
"223 906 OFFCURVE",
"199 921 OFFCURVE",
"173 930 CURVE SMOOTH",
"169 931 OFFCURVE",
"166 931 OFFCURVE",
"164 928 CURVE SMOOTH"
);
},
{
closed = 1;
nodes = (
"158 945 OFFCURVE",
"167 947 OFFCURVE",
"178 943 CURVE SMOOTH",
"211 931 OFFCURVE",
"236 917 OFFCURVE",
"254 899 CURVE SMOOTH",
"262 891 OFFCURVE",
"264 882 OFFCURVE",
"258 872 CURVE SMOOTH",
"210 796 LINE SMOOTH",
"207 791 OFFCURVE",
"203 788 OFFCURVE",
"197 787 CURVE SMOOTH",
"191 786 OFFCURVE",
"186 788 OFFCURVE",
"180 793 CURVE SMOOTH",
"174 798 OFFCURVE",
"150 812 OFFCURVE",
"109 836 CURVE SMOOTH",
"98 843 OFFCURVE",
"97 852 OFFCURVE",
"104 863 CURVE SMOOTH",
"152 936 LINE SMOOTH"
);
}
);
width = 808;
},
{
layerId = "037FF2D3-C03F-44B0-90AB-89AFD43EFA27";
width = 600;
}
);
unicode = 1EEBB;
}
{
glyphname = u1EEF0;
layers = (
{
components = (
{
name = aMem.init.AboveHaa;
transform = "{1, 0, 0, 1, 836, 0}";
}
);
layerId = "7FE84AD5-D318-40C5-A81A-3CDC73FF77D2";
paths = (
{
closed = 1;
nodes = (
"380 -21 OFFCURVE",
"238 -14 OFFCURVE",
"86 0 CURVE",
"80 0 OFFCURVE",
"76 5 OFFCURVE",
"73 15 CURVE",
"60 59 LINE",
"54 82 OFFCURVE",
"63 92 OFFCURVE",
"86 90 CURVE SMOOTH",
"258 75 OFFCURVE",
"399 67 OFFCURVE",
"511 67 CURVE SMOOTH",
"671 67 OFFCURVE",
"815 83 OFFCURVE",
"944 116 CURVE SMOOTH",
"1008 132 OFFCURVE",
"1042 141 OFFCURVE",
"1045 142 CURVE SMOOTH",
"1048 143 OFFCURVE",
"1049 144 OFFCURVE",
"1050 144 CURVE SMOOTH",
"1055 146 OFFCURVE",
"1056 148 OFFCURVE",
"1051 150 CURVE SMOOTH",
"1022 164 OFFCURVE",
"985 174 OFFCURVE",
"943 181 CURVE SMOOTH",
"901 188 OFFCURVE",
"862 190 OFFCURVE",
"827 188 CURVE SMOOTH",
"821 188 OFFCURVE",
"819 190 OFFCURVE",
"820 195 CURVE SMOOTH",
"824 209 OFFCURVE",
"832 222 OFFCURVE",
"843 237 CURVE SMOOTH",
"854 252 OFFCURVE",
"865 261 OFFCURVE",
"877 264 CURVE SMOOTH",
"904 271 OFFCURVE",
"939 266 OFFCURVE",
"981 250 CURVE SMOOTH",
"1044 225 OFFCURVE",
"1117 208 OFFCURVE",
"1199 197 CURVE SMOOTH",
"1281 186 OFFCURVE",
"1345 183 OFFCURVE",
"1391 188 CURVE SMOOTH",
"1398 189 OFFCURVE",
"1402 187 OFFCURVE",
"1404 182 CURVE SMOOTH",
"1406 177 OFFCURVE",
"1405 171 OFFCURVE",
"1403 167 CURVE SMOOTH",
"1373 114 LINE SMOOTH",
"1370 108 OFFCURVE",
"1364 105 OFFCURVE",
"1356 106 CURVE SMOOTH",
"1233 113 OFFCURVE",
"1133 102 OFFCURVE",
"1056 74 CURVE SMOOTH",
"989 50 OFFCURVE",
"954 38 OFFCURVE",
"949 36 CURVE SMOOTH",
"832 -2 OFFCURVE",
"686 -21 OFFCURVE",
"511 -21 CURVE SMOOTH"
);
}
);
width = 1462;
},
{
layerId = "037FF2D3-C03F-44B0-90AB-89AFD43EFA27";
width = 600;
}
);
unicode = 1EEF0;
}
{
glyphname = u1EEF1;
layers = (
{
layerId = "7FE84AD5-D318-40C5-A81A-3CDC73FF77D2";
paths = (
{
closed = 1;
nodes = (
"771 -34 OFFCURVE",
"647 -24 OFFCURVE",
"518 1 CURVE SMOOTH",
"437 16 OFFCURVE",
"390 51 OFFCURVE",
"377 109 CURVE SMOOTH",
"372 131 OFFCURVE",
"369 143 OFFCURVE",
"369 143 CURVE SMOOTH",
"367 148 OFFCURVE",
"365 148 OFFCURVE",
"363 142 CURVE SMOOTH",
"342 86 OFFCURVE",
"316 51 OFFCURVE",
"283 38 CURVE SMOOTH",
"242 21 OFFCURVE",
"185 15 OFFCURVE",
"114 20 CURVE SMOOTH",
"59 24 OFFCURVE",
"45 67 OFFCURVE",
"72 151 CURVE SMOOTH",
"75 160 OFFCURVE",
"80 166 OFFCURVE",
"87 167 CURVE SMOOTH",
"94 168 OFFCURVE",
"98 164 OFFCURVE",
"101 154 CURVE SMOOTH",
"107 135 OFFCURVE",
"115 124 OFFCURVE",
"128 121 CURVE SMOOTH",
"192 107 OFFCURVE",
"250 110 OFFCURVE",
"302 131 CURVE SMOOTH",
"329 142 OFFCURVE",
"347 161 OFFCURVE",
"354 187 CURVE SMOOTH",
"355 192 OFFCURVE",
"350 227 OFFCURVE",
"340 294 CURVE SMOOTH",
"330 361 OFFCURVE",
"324 403 OFFCURVE",
"322 418 CURVE SMOOTH",
"320 433 OFFCURVE",
"321 444 OFFCURVE",
"325 452 CURVE SMOOTH",
"336 475 OFFCURVE",
"344 491 OFFCURVE",
"348 502 CURVE SMOOTH",
"350 507 OFFCURVE",
"354 510 OFFCURVE",
"359 509 CURVE SMOOTH",
"364 508 OFFCURVE",
"366 505 OFFCURVE",
"367 499 CURVE SMOOTH",
"373 451 OFFCURVE",
"391 340 OFFCURVE",
"421 165 CURVE SMOOTH",
"426 134 OFFCURVE",
"461 108 OFFCURVE",
"525 90 CURVE SMOOTH",
"601 68 OFFCURVE",
"719 59 OFFCURVE",
"879 60 CURVE SMOOTH",
"1093 62 OFFCURVE",
"1281 96 OFFCURVE",
"1445 163 CURVE",
"1356 214 OFFCURVE",
"1276 227 OFFCURVE",
"1202 204 CURVE SMOOTH",
"1197 202 OFFCURVE",
"1192 203 OFFCURVE",
"1189 206 CURVE SMOOTH",
"1186 209 OFFCURVE",
"1185 213 OFFCURVE",
"1186 218 CURVE SMOOTH",
"1191 239 OFFCURVE",
"1204 260 OFFCURVE",
"1226 281 CURVE SMOOTH",
"1248 302 OFFCURVE",
"1271 313 OFFCURVE",
"1296 313 CURVE SMOOTH",
"1321 313 OFFCURVE",
"1380 294 OFFCURVE",
"1471 256 CURVE SMOOTH",
"1504 242 OFFCURVE",
"1547 231 OFFCURVE",
"1598 221 CURVE SMOOTH",
"1649 211 OFFCURVE",
"1701 208 OFFCURVE",
"1755 212 CURVE SMOOTH",
"1770 213 OFFCURVE",
"1775 207 OFFCURVE",
"1769 194 CURVE SMOOTH",
"1741 133 LINE SMOOTH",
"1737 125 OFFCURVE",
"1730 122 OFFCURVE",
"1719 124 CURVE SMOOTH",
"1630 139 OFFCURVE",
"1558 135 OFFCURVE",
"1505 113 CURVE SMOOTH",
"1457 93 OFFCURVE",
"1391 68 OFFCURVE",
"1308 36 CURVE SMOOTH",
"1219 2 OFFCURVE",
"1080 -20 OFFCURVE",
"893 -28 CURVE SMOOTH"
);
}
);
width = 1829;
},
{
layerId = "037FF2D3-C03F-44B0-90AB-89AFD43EFA27";
width = 600;
}
);
unicode = 1EEF1;
}
{
glyphname = commareversed;
layers = (
{
layerId = "7FE84AD5-D318-40C5-A81A-3CDC73FF77D2";
paths = (
{
closed = 1;
nodes = (
"186 -216.952 OFFCURVE",
"165 -191.952 OFFCURVE",
"141 -154.952 CURVE SMOOTH",
"117 -117.952 OFFCURVE",
"104 -78.952 OFFCURVE",
"100 -38.952 CURVE SMOOTH",
"93 49.048 OFFCURVE",
"109 108.048 OFFCURVE",
"151 141.048 CURVE SMOOTH",
"166 152.048 OFFCURVE",
"186 158.048 OFFCURVE",
"211 159.048 CURVE SMOOTH",
"232 160.048 OFFCURVE",
"251 152.048 OFFCURVE",
"267 137.048 CURVE SMOOTH",
"283 122.048 OFFCURVE",
"291 104.048 OFFCURVE",
"291 83.048 CURVE SMOOTH",
"291 62.048 OFFCURVE",
"284 45.048 OFFCURVE",
"269 30.048 CURVE SMOOTH",
"254 15.048 OFFCURVE",
"236 7.048 OFFCURVE",
"215 7.048 CURVE SMOOTH",
"191 7.048 OFFCURVE",
"171 16.048 OFFCURVE",
"156 35.048 CURVE SMOOTH",
"151 40.048 OFFCURVE",
"148 39.048 OFFCURVE",
"145 31.048 CURVE SMOOTH",
"119 -40.952 OFFCURVE",
"147 -119.952 OFFCURVE",
"229 -204.952 CURVE SMOOTH",
"238 -213.952 OFFCURVE",
"240 -221.952 OFFCURVE",
"233 -229.952 CURVE SMOOTH",
"226 -237.952 OFFCURVE",
"217 -237.952 OFFCURVE",
"206 -230.952 CURVE SMOOTH"
);
}
);
width = 369;
},
{
layerId = "037FF2D3-C03F-44B0-90AB-89AFD43EFA27";
paths = (
{
closed = 1;
nodes = (
"207 -249.952 OFFCURVE",
"217 -251.952 OFFCURVE",
"225 -249.952 CURVE SMOOTH",
"241 -245.952 OFFCURVE",
"249 -236.952 OFFCURVE",
"251 -222.952 CURVE",
"252 -212.952 OFFCURVE",
"248 -202.952 OFFCURVE",
"240 -194.952 CURVE SMOOTH",
"166 -117.952 OFFCURVE",
"137 -46.952 OFFCURVE",
"155 16.048 CURVE",
"172 1.048 OFFCURVE",
"193 -6.952 OFFCURVE",
"217 -6.952 CURVE SMOOTH",
"241 -6.952 OFFCURVE",
"261 2.048 OFFCURVE",
"279 20.048 CURVE SMOOTH",
"297 38.048 OFFCURVE",
"305 58.048 OFFCURVE",
"305 83.048 CURVE SMOOTH",
"305 108.048 OFFCURVE",
"295 130.048 OFFCURVE",
"276 148.048 CURVE",
"257 166.048 OFFCURVE",
"235 175.048 OFFCURVE",
"208 174.048 CURVE SMOOTH",
"181 173.048 OFFCURVE",
"160 166.048 OFFCURVE",
"143 153.048 CURVE SMOOTH",
"97 117.048 OFFCURVE",
"78 53.048 OFFCURVE",
"85 -39.952 CURVE",
"89 -81.952 OFFCURVE",
"103 -122.952 OFFCURVE",
"128 -161.952 CURVE SMOOTH",
"153 -200.952 OFFCURVE",
"176 -227.952 OFFCURVE",
"197 -242.952 CURVE"
);
}
);
width = 369;
}
);
unicode = 2E41;
}
{
glyphname = period;
layers = (
{
layerId = "7FE84AD5-D318-40C5-A81A-3CDC73FF77D2";
paths = (
{
closed = 1;
nodes = (
"125 221 OFFCURVE",
"134 222 OFFCURVE",
"148 212 CURVE SMOOTH",
"236 151 LINE SMOOTH",
"246 144 OFFCURVE",
"247 131 OFFCURVE",
"239 111 CURVE SMOOTH",
"200 18 LINE SMOOTH",
"193 1 OFFCURVE",
"180 -1 OFFCURVE",
"162 13 CURVE SMOOTH",
"87 70 LINE SMOOTH",
"74 80 OFFCURVE",
"70 90 OFFCURVE",
"75 101 CURVE SMOOTH",
"120 208 LINE SMOOTH"
);
}
);
width = 317;
},
{
layerId = "037FF2D3-C03F-44B0-90AB-89AFD43EFA27";
paths = (
{
closed = 1;
nodes = (
"110 223 OFFCURVE",
"116 229 OFFCURVE",
"125 232 CURVE SMOOTH",
"134 235 OFFCURVE",
"145 233 OFFCURVE",
"157 224 CURVE SMOOTH",
"244 163 LINE SMOOTH",
"260 151 OFFCURVE",
"263 132 OFFCURVE",
"252 105 CURVE",
"213 12 LINE SMOOTH",
"208 1 OFFCURVE",
"200 -6 OFFCURVE",
"190 -10 CURVE SMOOTH",
"180 -14 OFFCURVE",
"168 -10 OFFCURVE",
"153 1 CURVE SMOOTH",
"78 58 LINE SMOOTH",
"60 72 OFFCURVE",
"55 89 OFFCURVE",
"62 107 CURVE SMOOTH",
"106 214 LINE SMOOTH"
);
}
);
width = 317;
}
);
unicode = 002E;
}
{
glyphname = slash;
layers = (
{
layerId = "7FE84AD5-D318-40C5-A81A-3CDC73FF77D2";
paths = (
{
closed = 1;
nodes = (
"309 702 OFFCURVE",
"312 699 OFFCURVE",
"314 693 CURVE",
"71 -164 LINE SMOOTH",
"70 -168 OFFCURVE",
"66 -172 OFFCURVE",
"58 -178 CURVE SMOOTH",
"51 -183 OFFCURVE",
"43 -186 OFFCURVE",
"33 -186 CURVE SMOOTH",
"29 -186 OFFCURVE",
"25 -185 OFFCURVE",
"22 -184 CURVE SMOOTH",
"19 -183 OFFCURVE",
"17 -182 OFFCURVE",
"16 -181 CURVE SMOOTH",
"15 -179 LINE",
"263 688 LINE SMOOTH",
"263 689 OFFCURVE",
"265 691 OFFCURVE",
"268 693 CURVE SMOOTH",
"271 695 OFFCURVE",
"276 697 OFFCURVE",
"282 699 CURVE SMOOTH",
"288 701 OFFCURVE",
"295 702 OFFCURVE",
"302 702 CURVE SMOOTH"
);
}
);
width = 344;
},
{
layerId = "037FF2D3-C03F-44B0-90AB-89AFD43EFA27";
paths = (
{
closed = 1;
nodes = (
"325 711 OFFCURVE",
"332 709 OFFCURVE",
"333 704 CURVE",
"81 -182 LINE",
"80 -187 OFFCURVE",
"74 -192 OFFCURVE",
"66 -196 CURVE SMOOTH",
"58 -200 OFFCURVE",
"47 -203 OFFCURVE",
"32 -203 CURVE SMOOTH",
"28 -203 OFFCURVE",
"24 -202 OFFCURVE",
"21 -201 CURVE SMOOTH",
"18 -200 OFFCURVE",
"16 -199 OFFCURVE",
"15 -198 CURVE SMOOTH",
"14 -196 LINE",
"267 690 LINE",
"270 695 OFFCURVE",
"275 700 OFFCURVE",
"283 705 CURVE SMOOTH",
"291 710 OFFCURVE",
"301 711 OFFCURVE",
"314 711 CURVE SMOOTH"
);
}
);
width = 344;
}
);
unicode = 002F;
}
{
glyphname = backslash;
layers = (
{
layerId = "7FE84AD5-D318-40C5-A81A-3CDC73FF77D2";
paths = (
{
closed = 1;
nodes = (
"36 702 OFFCURVE",
"32 699 OFFCURVE",
"30 693 CURVE",
"274 -164 LINE SMOOTH",
"275 -168 OFFCURVE",
"279 -172 OFFCURVE",
"287 -178 CURVE SMOOTH",
"294 -183 OFFCURVE",
"302 -186 OFFCURVE",
"312 -186 CURVE SMOOTH",
"316 -186 OFFCURVE",
"320 -185 OFFCURVE",
"323 -184 CURVE SMOOTH",
"326 -183 OFFCURVE",
"327 -182 OFFCURVE",
"328 -181 CURVE SMOOTH",
"330 -179 LINE",
"82 688 LINE SMOOTH",
"82 689 OFFCURVE",
"80 691 OFFCURVE",
"77 693 CURVE SMOOTH",
"74 695 OFFCURVE",
"69 697 OFFCURVE",
"63 699 CURVE SMOOTH",
"57 701 OFFCURVE",
"50 702 OFFCURVE",
"43 702 CURVE SMOOTH"
);
}
);
width = 344;
},
{
layerId = "037FF2D3-C03F-44B0-90AB-89AFD43EFA27";
paths = (
{
closed = 1;
nodes = (
"19 711 OFFCURVE",
"13 709 OFFCURVE",
"12 704 CURVE",
"264 -182 LINE",
"265 -187 OFFCURVE",
"270 -192 OFFCURVE",
"278 -196 CURVE SMOOTH",
"286 -200 OFFCURVE",
"298 -203 OFFCURVE",
"313 -203 CURVE SMOOTH",
"317 -203 OFFCURVE",
"321 -202 OFFCURVE",
"324 -201 CURVE SMOOTH",
"327 -200 OFFCURVE",
"328 -199 OFFCURVE",
"329 -198 CURVE SMOOTH",
"331 -196 LINE",
"78 690 LINE",
"75 695 OFFCURVE",
"70 700 OFFCURVE",
"62 705 CURVE SMOOTH",
"54 710 OFFCURVE",
"43 711 OFFCURVE",
"30 711 CURVE SMOOTH"
);
}
);
width = 344;
}
);
unicode = 005C;
}
{
glyphname = bracketleft;
layers = (
{
layerId = "7FE84AD5-D318-40C5-A81A-3CDC73FF77D2";
paths = (
{
closed = 1;
nodes = (
"314 716 LINE",
"317 710 LINE SMOOTH",
"317 709 OFFCURVE",
"317 708 OFFCURVE",
"317 707 CURVE SMOOTH",
"317 700 OFFCURVE",
"315 695 OFFCURVE",
"309 692 CURVE SMOOTH",
"308 692 OFFCURVE",
"308 691 OFFCURVE",
"308 691 CURVE SMOOTH",
"283 683 OFFCURVE",
"244 676 OFFCURVE",
"193 669 CURVE",
"193 -339 LINE",
"259 -349 LINE",
"280 -353 OFFCURVE",
"297 -357 OFFCURVE",
"308 -361 CURVE",
"315 -365 OFFCURVE",
"317 -370 OFFCURVE",
"317 -377 CURVE SMOOTH",
"317 -379 OFFCURVE",
"317 -381 OFFCURVE",
"316 -382 CURVE SMOOTH",
"315 -385 LINE SMOOTH",
"314 -386 LINE",
"227 -381 LINE",
"206 -380 OFFCURVE",
"185 -380 OFFCURVE",
"165 -380 CURVE",
"154 -379 OFFCURVE",
"148 -371 OFFCURVE",
"146 -357 CURVE",
"146 688 LINE SMOOTH",
"146 698 OFFCURVE",
"150 704 OFFCURVE",
"156 708 CURVE SMOOTH",
"159 710 OFFCURVE",
"161 710 OFFCURVE",
"165 710 CURVE SMOOTH"
);
}
);
width = 361;
},
{
layerId = "037FF2D3-C03F-44B0-90AB-89AFD43EFA27";
paths = (
{
closed = 1;
nodes = (
"206 713 OFFCURVE",
"273 719 OFFCURVE",
"326 729 CURVE",
"329 729 OFFCURVE",
"331 727 OFFCURVE",
"332 723 CURVE SMOOTH",
"332 722 OFFCURVE",
"332 721 OFFCURVE",
"332 720 CURVE SMOOTH",
"332 715 OFFCURVE",
"329 707 OFFCURVE",
"323 695 CURVE SMOOTH",
"323 694 OFFCURVE",
"322 694 OFFCURVE",
"322 694 CURVE SMOOTH",
"309 687 OFFCURVE",
"280 680 OFFCURVE",
"232 672 CURVE SMOOTH",
"223 670 OFFCURVE",
"216 669 OFFCURVE",
"212 668 CURVE",
"212 -338 LINE",
"217 -339 OFFCURVE",
"225 -341 OFFCURVE",
"238 -343 CURVE SMOOTH",
"277 -350 OFFCURVE",
"305 -356 OFFCURVE",
"322 -364 CURVE SMOOTH",
"326 -366 OFFCURVE",
"329 -371 OFFCURVE",
"331 -379 CURVE SMOOTH",
"332 -383 OFFCURVE",
"332 -387 OFFCURVE",
"332 -390 CURVE SMOOTH",
"332 -395 OFFCURVE",
"330 -397 OFFCURVE",
"326 -398 CURVE",
"272 -388 OFFCURVE",
"205 -383 OFFCURVE",
"126 -383 CURVE",
"116 -382 OFFCURVE",
"110 -376 OFFCURVE",
"108 -365 CURVE SMOOTH",
"108 -363 OFFCURVE",
"107 -362 OFFCURVE",
"107 -360 CURVE SMOOTH",
"107 690 LINE SMOOTH",
"107 700 OFFCURVE",
"113 708 OFFCURVE",
"122 712 CURVE SMOOTH",
"124 713 OFFCURVE",
"125 713 OFFCURVE",
"126 713 CURVE SMOOTH"
);
}
);
width = 361;
}
);
unicode = 005B;
}
{
glyphname = bracketright;
layers = (
{
layerId = "7FE84AD5-D318-40C5-A81A-3CDC73FF77D2";
paths = (
{
closed = 1;
nodes = (
"47 716 LINE",
"44 710 LINE SMOOTH",
"44 709 OFFCURVE",
"44 708 OFFCURVE",
"44 707 CURVE SMOOTH",
"44 700 OFFCURVE",
"46 695 OFFCURVE",
"52 692 CURVE SMOOTH",
"53 692 OFFCURVE",
"54 691 OFFCURVE",
"54 691 CURVE SMOOTH",
"79 683 OFFCURVE",
"117 676 OFFCURVE",
"168 669 CURVE",
"168 -339 LINE",
"103 -349 LINE",
"82 -353 OFFCURVE",
"65 -357 OFFCURVE",
"54 -361 CURVE",
"47 -365 OFFCURVE",
"44 -370 OFFCURVE",
"44 -377 CURVE SMOOTH",
"44 -379 OFFCURVE",
"44 -381 OFFCURVE",
"45 -382 CURVE SMOOTH",
"46 -385 LINE SMOOTH",
"47 -386 LINE",
"135 -381 LINE",
"156 -380 OFFCURVE",
"176 -380 OFFCURVE",
"196 -380 CURVE",
"207 -379 OFFCURVE",
"213 -371 OFFCURVE",
"215 -357 CURVE",
"215 688 LINE SMOOTH",
"215 698 OFFCURVE",
"212 704 OFFCURVE",
"206 708 CURVE SMOOTH",
"203 710 OFFCURVE",
"200 710 OFFCURVE",
"196 710 CURVE SMOOTH"
);
}
);
width = 361;
},
{
layerId = "037FF2D3-C03F-44B0-90AB-89AFD43EFA27";
paths = (
{
closed = 1;
nodes = (
"155 713 OFFCURVE",
"88 719 OFFCURVE",
"35 729 CURVE",
"32 729 OFFCURVE",
"31 727 OFFCURVE",
"30 723 CURVE SMOOTH",
"30 722 OFFCURVE",
"29 721 OFFCURVE",
"29 720 CURVE SMOOTH",
"29 715 OFFCURVE",
"32 707 OFFCURVE",
"38 695 CURVE SMOOTH",
"38 694 OFFCURVE",
"39 694 OFFCURVE",
"39 694 CURVE SMOOTH",
"52 687 OFFCURVE",
"81 680 OFFCURVE",
"129 672 CURVE SMOOTH",
"138 670 OFFCURVE",
"145 669 OFFCURVE",
"149 668 CURVE",
"149 -338 LINE",
"144 -339 OFFCURVE",
"136 -341 OFFCURVE",
"123 -343 CURVE SMOOTH",
"84 -350 OFFCURVE",
"56 -356 OFFCURVE",
"39 -364 CURVE SMOOTH",
"35 -366 OFFCURVE",
"33 -371 OFFCURVE",
"31 -379 CURVE SMOOTH",
"30 -383 OFFCURVE",
"29 -387 OFFCURVE",
"29 -390 CURVE SMOOTH",
"29 -395 OFFCURVE",
"31 -397 OFFCURVE",
"35 -398 CURVE",
"89 -388 OFFCURVE",
"156 -383 OFFCURVE",
"235 -383 CURVE",
"245 -382 OFFCURVE",
"251 -376 OFFCURVE",
"253 -365 CURVE SMOOTH",
"253 -363 OFFCURVE",
"254 -362 OFFCURVE",
"254 -360 CURVE SMOOTH",
"254 690 LINE SMOOTH",
"254 700 OFFCURVE",
"249 708 OFFCURVE",
"240 712 CURVE SMOOTH",
"238 713 OFFCURVE",
"236 713 OFFCURVE",
"235 713 CURVE SMOOTH"
);
}
);
width = 361;
}
);
unicode = 005D;
}
{
glyphname = "dotStopabove-ar";
layers = (
{
anchors = (
{
name = TashkilTashkilAbove;
position = "{93, 1060}";
},
{
name = _MarkAbove;
position = "{111, 801}";
},
{
name = _TashkilAbove;
position = "{109, 801}";
},
{
name = _TashkilTashkilAbove;
position = "{111, 801}";
}
);
layerId = "7FE84AD5-D318-40C5-A81A-3CDC73FF77D2";
paths = (
{
closed = 1;
nodes = (
"209 968 OFFCURVE",
"219 944 OFFCURVE",
"219 913 CURVE SMOOTH",
"219 883 OFFCURVE",
"208 856 OFFCURVE",
"187 835 CURVE SMOOTH",
"166 814 OFFCURVE",
"139 803 OFFCURVE",
"109 803 CURVE SMOOTH",
"79 803 OFFCURVE",
"52 814 OFFCURVE",
"31 835 CURVE SMOOTH",
"10 856 OFFCURVE",
"-1 883 OFFCURVE",
"-1 913 CURVE SMOOTH",
"-1 943 OFFCURVE",
"10 969 OFFCURVE",
"31 990 CURVE SMOOTH",
"52 1011 OFFCURVE",
"79 1022 OFFCURVE",
"109 1022 CURVE SMOOTH",
"140 1022 OFFCURVE",
"167 1011 OFFCURVE",
"188 989 CURVE SMOOTH"
);
}
);
width = 0;
},
{
anchors = (
{
name = TashkilTashkilAbove;
position = "{93, 1060}";
},
{
name = _MarkAbove;
position = "{111, 801}";
},
{
name = _TashkilAbove;
position = "{109, 801}";
},
{
name = _TashkilTashkilAbove;
position = "{111, 801}";
}
);
layerId = "037FF2D3-C03F-44B0-90AB-89AFD43EFA27";
paths = (
{
closed = 1;
nodes = (
"49 1019 OFFCURVE",
"77 1030 OFFCURVE",
"110 1030 CURVE SMOOTH",
"143 1030 OFFCURVE",
"170 1018 OFFCURVE",
"192 995 CURVE SMOOTH",
"214 972 OFFCURVE",
"226 945 OFFCURVE",
"226 913 CURVE SMOOTH",
"226 881 OFFCURVE",
"214 853 OFFCURVE",
"192 830 CURVE",
"169 807 OFFCURVE",
"141 796 OFFCURVE",
"109 796 CURVE SMOOTH",
"77 796 OFFCURVE",
"49 808 OFFCURVE",
"26 830 CURVE",
"3 853 OFFCURVE",
"-8 881 OFFCURVE",
"-8 913 CURVE SMOOTH",
"-8 945 OFFCURVE",
"3 973 OFFCURVE",
"26 996 CURVE"
);
}
);
width = 0;
}
);
unicode = 06EC;
}
{
glyphname = "endofayah-ar";
layers = (
{
layerId = "7FE84AD5-D318-40C5-A81A-3CDC73FF77D2";
paths = (
{
closed = 1;
nodes = (
"982 476 OFFCURVE",
"982 468 OFFCURVE",
"979 455 CURVE SMOOTH",
"976 442 OFFCURVE",
"968 432 OFFCURVE",
"953 426 CURVE",
"932 419 OFFCURVE",
"912 423 OFFCURVE",
"893 436 CURVE",
"885 442 OFFCURVE",
"884 446 OFFCURVE",
"890 448 CURVE SMOOTH",
"903 453 OFFCURVE",
"910 460 OFFCURVE",
"911 468 CURVE",
"910 481 OFFCURVE",
"901 492 OFFCURVE",
"884 502 CURVE",
"790 510 OFFCURVE",
"720 493 OFFCURVE",
"674 452 CURVE",
"686 434 OFFCURVE",
"685 421 OFFCURVE",
"668 413 CURVE",
"659 410 OFFCURVE",
"651 410 OFFCURVE",
"647 415 CURVE SMOOTH",
"643 420 OFFCURVE",
"641 424 OFFCURVE",
"640 429 CURVE",
"639 424 OFFCURVE",
"636 420 OFFCURVE",
"632 415 CURVE SMOOTH",
"628 410 OFFCURVE",
"620 410 OFFCURVE",
"611 413 CURVE",
"594 421 OFFCURVE",
"593 434 OFFCURVE",
"605 452 CURVE",
"559 493 OFFCURVE",
"489 510 OFFCURVE",
"395 502 CURVE",
"378 492 OFFCURVE",
"369 481 OFFCURVE",
"368 468 CURVE",
"369 460 OFFCURVE",
"376 453 OFFCURVE",
"389 448 CURVE SMOOTH",
"395 446 OFFCURVE",
"394 442 OFFCURVE",
"386 436 CURVE",
"367 423 OFFCURVE",
"347 419 OFFCURVE",
"326 426 CURVE",
"311 432 OFFCURVE",
"302 442 OFFCURVE",
"299 455 CURVE SMOOTH",
"296 468 OFFCURVE",
"296 476 OFFCURVE",
"299 482 CURVE",
"262 469 OFFCURVE",
"227 450 OFFCURVE",
"193 425 CURVE",
"112 364 OFFCURVE",
"71 278 OFFCURVE",
"71 166 CURVE SMOOTH",
"71 54 OFFCURVE",
"112 -32 OFFCURVE",
"193 -94 CURVE",
"227 -119 OFFCURVE",
"262 -137 OFFCURVE",
"299 -150 CURVE",
"296 -145 OFFCURVE",
"296 -136 OFFCURVE",
"299 -123 CURVE SMOOTH",
"302 -110 OFFCURVE",
"311 -100 OFFCURVE",
"326 -94 CURVE",
"347 -88 OFFCURVE",
"367 -91 OFFCURVE",
"386 -104 CURVE",
"393 -110 OFFCURVE",
"393 -114 OFFCURVE",
"384 -117 CURVE",
"374 -119 OFFCURVE",
"369 -126 OFFCURVE",
"368 -136 CURVE",
"369 -149 OFFCURVE",
"378 -160 OFFCURVE",
"395 -170 CURVE",
"490 -177 OFFCURVE",
"559 -161 OFFCURVE",
"605 -120 CURVE",
"593 -102 OFFCURVE",
"594 -89 OFFCURVE",
"611 -81 CURVE",
"620 -78 OFFCURVE",
"628 -78 OFFCURVE",
"632 -83 CURVE SMOOTH",
"636 -88 OFFCURVE",
"639 -92 OFFCURVE",
"640 -97 CURVE",
"641 -92 OFFCURVE",
"643 -88 OFFCURVE",
"647 -83 CURVE SMOOTH",
"651 -78 OFFCURVE",
"659 -78 OFFCURVE",
"668 -81 CURVE",
"685 -89 OFFCURVE",
"686 -102 OFFCURVE",
"674 -120 CURVE",
"720 -161 OFFCURVE",
"790 -177 OFFCURVE",
"885 -170 CURVE",
"902 -160 OFFCURVE",
"910 -149 OFFCURVE",
"911 -136 CURVE",
"910 -126 OFFCURVE",
"906 -119 OFFCURVE",
"896 -117 CURVE",
"887 -114 OFFCURVE",
"887 -110 OFFCURVE",
"894 -104 CURVE",
"913 -91 OFFCURVE",
"932 -88 OFFCURVE",
"953 -94 CURVE",
"968 -100 OFFCURVE",
"977 -110 OFFCURVE",
"980 -123 CURVE SMOOTH",
"983 -136 OFFCURVE",
"983 -145 OFFCURVE",
"980 -150 CURVE",
"1017 -137 OFFCURVE",
"1052 -119 OFFCURVE",
"1086 -94 CURVE",
"1167 -32 OFFCURVE",
"1208 54 OFFCURVE",
"1208 166 CURVE SMOOTH",
"1208 278 OFFCURVE",
"1167 364 OFFCURVE",
"1086 425 CURVE",
"1052 450 OFFCURVE",
"1016 469 OFFCURVE",
"979 482 CURVE"
);
},
{
closed = 1;
nodes = (
"577 -158 OFFCURVE",
"553 -194 OFFCURVE",
"554 -231 CURVE",
"555 -264 OFFCURVE",
"584 -301 OFFCURVE",
"640 -343 CURVE",
"696 -301 OFFCURVE",
"725 -264 OFFCURVE",
"726 -231 CURVE",
"727 -194 OFFCURVE",
"702 -158 OFFCURVE",
"654 -123 CURVE SMOOTH",
"646 -117 OFFCURVE",
"641 -111 OFFCURVE",
"640 -104 CURVE",
"639 -111 OFFCURVE",
"633 -117 OFFCURVE",
"625 -123 CURVE SMOOTH"
);
},
{
closed = 1;
nodes = (
"833 -254 OFFCURVE",
"837 -246 OFFCURVE",
"844 -239 CURVE SMOOTH",
"851 -233 OFFCURVE",
"859 -229 OFFCURVE",
"868 -229 CURVE SMOOTH",
"875 -229 OFFCURVE",
"884 -232 OFFCURVE",
"892 -239 CURVE SMOOTH",
"898 -244 OFFCURVE",
"902 -252 OFFCURVE",
"902 -263 CURVE SMOOTH",
"902 -272 OFFCURVE",
"899 -280 OFFCURVE",
"892 -287 CURVE SMOOTH",
"886 -293 OFFCURVE",
"878 -297 OFFCURVE",
"868 -297 CURVE SMOOTH",
"859 -297 OFFCURVE",
"851 -294 OFFCURVE",
"844 -287 CURVE SMOOTH",
"838 -281 OFFCURVE",
"835 -273 OFFCURVE",
"834 -263 CURVE SMOOTH"
);
},
{
closed = 1;
nodes = (
"376 -254 OFFCURVE",
"380 -246 OFFCURVE",
"387 -239 CURVE SMOOTH",
"394 -233 OFFCURVE",
"402 -229 OFFCURVE",
"411 -229 CURVE SMOOTH",
"418 -229 OFFCURVE",
"427 -232 OFFCURVE",
"435 -239 CURVE SMOOTH",
"441 -244 OFFCURVE",
"444 -252 OFFCURVE",
"444 -263 CURVE SMOOTH",
"444 -272 OFFCURVE",
"442 -280 OFFCURVE",
"435 -287 CURVE SMOOTH",
"429 -293 OFFCURVE",
"421 -297 OFFCURVE",
"411 -297 CURVE SMOOTH",
"402 -297 OFFCURVE",
"394 -294 OFFCURVE",
"387 -287 CURVE SMOOTH",
"381 -281 OFFCURVE",
"378 -273 OFFCURVE",
"377 -263 CURVE SMOOTH"
);
},
{
closed = 1;
nodes = (
"833 603 OFFCURVE",
"837 611 OFFCURVE",
"844 618 CURVE SMOOTH",
"851 624 OFFCURVE",
"859 628 OFFCURVE",
"868 628 CURVE SMOOTH",
"875 628 OFFCURVE",
"884 625 OFFCURVE",
"892 618 CURVE SMOOTH",
"898 613 OFFCURVE",
"902 605 OFFCURVE",
"902 594 CURVE SMOOTH",
"902 585 OFFCURVE",
"899 577 OFFCURVE",
"892 570 CURVE SMOOTH",
"886 564 OFFCURVE",
"878 561 OFFCURVE",
"868 561 CURVE SMOOTH",
"859 561 OFFCURVE",
"851 563 OFFCURVE",
"844 570 CURVE SMOOTH",
"838 576 OFFCURVE",
"835 584 OFFCURVE",
"834 594 CURVE SMOOTH"
);
},
{
closed = 1;
nodes = (
"376 603 OFFCURVE",
"380 611 OFFCURVE",
"387 618 CURVE SMOOTH",
"394 624 OFFCURVE",
"402 628 OFFCURVE",
"411 628 CURVE SMOOTH",
"418 628 OFFCURVE",
"427 625 OFFCURVE",
"435 618 CURVE SMOOTH",
"441 613 OFFCURVE",
"444 605 OFFCURVE",
"444 594 CURVE SMOOTH",
"444 585 OFFCURVE",
"442 577 OFFCURVE",
"435 570 CURVE SMOOTH",
"429 564 OFFCURVE",
"421 561 OFFCURVE",
"411 561 CURVE SMOOTH",
"402 561 OFFCURVE",
"394 563 OFFCURVE",
"387 570 CURVE SMOOTH",
"381 576 OFFCURVE",
"378 584 OFFCURVE",
"377 594 CURVE SMOOTH"
);
},
{
closed = 1;
nodes = (
"635 -369 OFFCURVE",
"613 -353 OFFCURVE",
"574 -325 CURVE SMOOTH",
"535 -297 OFFCURVE",
"511 -273 OFFCURVE",
"503 -252 CURVE SMOOTH",
"495 -231 OFFCURVE",
"495 -211 OFFCURVE",
"504 -193 CURVE",
"479 -196 OFFCURVE",
"456 -197 OFFCURVE",
"433 -197 CURVE SMOOTH",
"336 -196 OFFCURVE",
"251 -169 OFFCURVE",
"178 -114 CURVE SMOOTH",
"89 -47 OFFCURVE",
"44 46 OFFCURVE",
"44 166 CURVE SMOOTH",
"44 286 OFFCURVE",
"89 379 OFFCURVE",
"178 446 CURVE",
"252 500 OFFCURVE",
"337 528 OFFCURVE",
"433 529 CURVE SMOOTH",
"456 529 OFFCURVE",
"479 527 OFFCURVE",
"504 524 CURVE",
"495 543 OFFCURVE",
"495 563 OFFCURVE",
"503 584 CURVE SMOOTH",
"511 605 OFFCURVE",
"535 629 OFFCURVE",
"574 657 CURVE SMOOTH",
"613 685 OFFCURVE",
"635 701 OFFCURVE",
"640 705 CURVE",
"645 701 OFFCURVE",
"667 685 OFFCURVE",
"706 657 CURVE SMOOTH",
"745 629 OFFCURVE",
"768 605 OFFCURVE",
"776 584 CURVE SMOOTH",
"784 563 OFFCURVE",
"784 543 OFFCURVE",
"775 524 CURVE",
"800 527 OFFCURVE",
"824 529 OFFCURVE",
"847 529 CURVE SMOOTH",
"943 528 OFFCURVE",
"1028 500 OFFCURVE",
"1102 446 CURVE",
"1191 379 OFFCURVE",
"1235 286 OFFCURVE",
"1235 166 CURVE SMOOTH",
"1235 46 OFFCURVE",
"1191 -47 OFFCURVE",
"1102 -114 CURVE SMOOTH",
"1029 -169 OFFCURVE",
"944 -196 OFFCURVE",
"847 -197 CURVE SMOOTH",
"824 -197 OFFCURVE",
"800 -196 OFFCURVE",
"775 -193 CURVE",
"784 -211 OFFCURVE",
"784 -231 OFFCURVE",
"776 -252 CURVE SMOOTH",
"768 -273 OFFCURVE",
"744 -297 OFFCURVE",
"705 -325 CURVE SMOOTH",
"666 -353 OFFCURVE",
"645 -369 OFFCURVE",
"640 -373 CURVE"
);
},
{
closed = 1;
nodes = (
"641 443 OFFCURVE",
"646 449 OFFCURVE",
"654 455 CURVE SMOOTH",
"702 490 OFFCURVE",
"726 527 OFFCURVE",
"726 563 CURVE",
"725 597 OFFCURVE",
"696 634 OFFCURVE",
"640 675 CURVE",
"584 634 OFFCURVE",
"555 597 OFFCURVE",
"554 563 CURVE",
"554 526 OFFCURVE",
"577 490 OFFCURVE",
"625 455 CURVE SMOOTH",
"633 449 OFFCURVE",
"639 443 OFFCURVE",
"640 436 CURVE"
);
}
);
width = 1279;
},
{
layerId = "037FF2D3-C03F-44B0-90AB-89AFD43EFA27";
paths = (
{
closed = 1;
nodes = (
"1129 -81 OFFCURVE",
"1199 20 OFFCURVE",
"1199 166 CURVE SMOOTH",
"1199 275 OFFCURVE",
"1160 358 OFFCURVE",
"1082 418 CURVE",
"1053 439 OFFCURVE",
"1022 457 OFFCURVE",
"990 469 CURVE",
"989 441 OFFCURVE",
"977 424 OFFCURVE",
"954 417 CURVE SMOOTH",
"931 410 OFFCURVE",
"909 415 OFFCURVE",
"888 429 CURVE",
"873 441 OFFCURVE",
"873 450 OFFCURVE",
"887 456 CURVE",
"896 459 OFFCURVE",
"901 463 OFFCURVE",
"902 468 CURVE",
"901 477 OFFCURVE",
"893 486 OFFCURVE",
"881 494 CURVE",
"794 501 OFFCURVE",
"730 485 OFFCURVE",
"686 450 CURVE",
"697 430 OFFCURVE",
"692 416 OFFCURVE",
"672 405 CURVE",
"659 399 OFFCURVE",
"648 402 OFFCURVE",
"640 411 CURVE",
"632 402 OFFCURVE",
"619 400 OFFCURVE",
"603 408 CURVE SMOOTH",
"587 416 OFFCURVE",
"584 430 OFFCURVE",
"594 450 CURVE",
"550 486 OFFCURVE",
"484 501 OFFCURVE",
"397 494 CURVE",
"384 486 OFFCURVE",
"378 477 OFFCURVE",
"377 468 CURVE",
"378 463 OFFCURVE",
"381 460 OFFCURVE",
"387 458 CURVE SMOOTH",
"406 451 OFFCURVE",
"407 441 OFFCURVE",
"391 429 CURVE",
"369 414 OFFCURVE",
"346 410 OFFCURVE",
"323 418 CURVE",
"301 427 OFFCURVE",
"290 444 OFFCURVE",
"289 469 CURVE",
"257 456 OFFCURVE",
"227 439 OFFCURVE",
"198 418 CURVE",
"119 358 OFFCURVE",
"80 275 OFFCURVE",
"80 166 CURVE SMOOTH",
"80 57 OFFCURVE",
"120 -27 OFFCURVE",
"198 -87 CURVE",
"227 -108 OFFCURVE",
"257 -125 OFFCURVE",
"289 -137 CURVE",
"290 -110 OFFCURVE",
"302 -92 OFFCURVE",
"324 -85 CURVE",
"349 -78 OFFCURVE",
"371 -82 OFFCURVE",
"391 -97 CURVE",
"395 -100 OFFCURVE",
"398 -105 OFFCURVE",
"400 -111 CURVE SMOOTH",
"402 -117 OFFCURVE",
"397 -122 OFFCURVE",
"386 -125 CURVE",
"381 -127 OFFCURVE",
"378 -131 OFFCURVE",
"377 -136 CURVE",
"379 -146 OFFCURVE",
"385 -154 OFFCURVE",
"397 -162 CURVE",
"484 -168 OFFCURVE",
"550 -153 OFFCURVE",
"594 -118 CURVE",
"583 -98 OFFCURVE",
"587 -84 OFFCURVE",
"607 -73 CURVE",
"620 -67 OFFCURVE",
"632 -70 OFFCURVE",
"640 -79 CURVE",
"648 -70 OFFCURVE",
"661 -68 OFFCURVE",
"677 -76 CURVE SMOOTH",
"693 -84 OFFCURVE",
"696 -98 OFFCURVE",
"686 -118 CURVE",
"730 -153 OFFCURVE",
"795 -168 OFFCURVE",
"882 -162 CURVE",
"894 -154 OFFCURVE",
"901 -145 OFFCURVE",
"902 -136 CURVE",
"901 -130 OFFCURVE",
"899 -127 OFFCURVE",
"894 -126 CURVE SMOOTH",
"889 -125 OFFCURVE",
"885 -121 OFFCURVE",
"881 -116 CURVE SMOOTH",
"877 -111 OFFCURVE",
"879 -104 OFFCURVE",
"889 -97 CURVE",
"911 -82 OFFCURVE",
"933 -78 OFFCURVE",
"956 -86 CURVE",
"978 -95 OFFCURVE",
"989 -112 OFFCURVE",
"990 -137 CURVE"
);
},
{
closed = 1;
nodes = (
"584 -164 OFFCURVE",
"562 -196 OFFCURVE",
"562 -230 CURVE",
"564 -259 OFFCURVE",
"590 -293 OFFCURVE",
"640 -332 CURVE",
"690 -293 OFFCURVE",
"715 -259 OFFCURVE",
"717 -230 CURVE",
"717 -196 OFFCURVE",
"694 -163 OFFCURVE",
"649 -130 CURVE SMOOTH",
"645 -127 OFFCURVE",
"643 -125 OFFCURVE",
"640 -122 CURVE",
"637 -125 OFFCURVE",
"634 -127 OFFCURVE",
"630 -130 CURVE SMOOTH"
);
},
{
closed = 1;
nodes = (
"890 -301 OFFCURVE",
"880 -305 OFFCURVE",
"868 -305 CURVE SMOOTH",
"856 -305 OFFCURVE",
"847 -302 OFFCURVE",
"839 -294 CURVE SMOOTH",
"831 -286 OFFCURVE",
"827 -276 OFFCURVE",
"826 -264 CURVE SMOOTH",
"825 -252 OFFCURVE",
"830 -242 OFFCURVE",
"838 -234 CURVE SMOOTH",
"857 -216 OFFCURVE",
"876 -215 OFFCURVE",
"897 -232 CURVE",
"905 -239 OFFCURVE",
"910 -249 OFFCURVE",
"910 -262 CURVE SMOOTH",
"910 -275 OFFCURVE",
"906 -285 OFFCURVE",
"898 -293 CURVE"
);
},
{
closed = 1;
nodes = (
"432 -301 OFFCURVE",
"423 -305 OFFCURVE",
"411 -305 CURVE SMOOTH",
"399 -305 OFFCURVE",
"389 -302 OFFCURVE",
"381 -294 CURVE SMOOTH",
"373 -286 OFFCURVE",
"370 -276 OFFCURVE",
"369 -264 CURVE SMOOTH",
"368 -252 OFFCURVE",
"372 -242 OFFCURVE",
"380 -234 CURVE SMOOTH",
"399 -216 OFFCURVE",
"419 -215 OFFCURVE",
"440 -232 CURVE",
"448 -239 OFFCURVE",
"452 -249 OFFCURVE",
"452 -262 CURVE SMOOTH",
"452 -275 OFFCURVE",
"448 -285 OFFCURVE",
"440 -293 CURVE"
);
},
{
closed = 1;
nodes = (
"890 556 OFFCURVE",
"880 552 OFFCURVE",
"868 552 CURVE SMOOTH",
"856 552 OFFCURVE",
"847 556 OFFCURVE",
"839 564 CURVE SMOOTH",
"831 572 OFFCURVE",
"827 582 OFFCURVE",
"826 594 CURVE SMOOTH",
"825 606 OFFCURVE",
"830 616 OFFCURVE",
"838 624 CURVE SMOOTH",
"857 642 OFFCURVE",
"876 642 OFFCURVE",
"897 625 CURVE",
"905 618 OFFCURVE",
"910 608 OFFCURVE",
"910 595 CURVE SMOOTH",
"910 582 OFFCURVE",
"906 572 OFFCURVE",
"898 564 CURVE"
);
},
{
closed = 1;
nodes = (
"432 556 OFFCURVE",
"423 552 OFFCURVE",
"411 552 CURVE SMOOTH",
"399 552 OFFCURVE",
"389 556 OFFCURVE",
"381 564 CURVE SMOOTH",
"373 572 OFFCURVE",
"370 582 OFFCURVE",
"369 594 CURVE SMOOTH",
"368 606 OFFCURVE",
"372 616 OFFCURVE",
"380 624 CURVE SMOOTH",
"399 642 OFFCURVE",
"419 642 OFFCURVE",
"440 625 CURVE",
"448 618 OFFCURVE",
"452 608 OFFCURVE",
"452 595 CURVE SMOOTH",
"452 582 OFFCURVE",
"448 572 OFFCURVE",
"440 564 CURVE"
);
},
{
closed = 1;
nodes = (
"793 -220 OFFCURVE",
"790 -238 OFFCURVE",
"782 -259 CURVE SMOOTH",
"774 -280 OFFCURVE",
"750 -303 OFFCURVE",
"711 -331 CURVE SMOOTH",
"672 -359 OFFCURVE",
"650 -374 OFFCURVE",
"646 -378 CURVE SMOOTH",
"642 -382 OFFCURVE",
"637 -382 OFFCURVE",
"633 -378 CURVE SMOOTH",
"629 -374 OFFCURVE",
"607 -359 OFFCURVE",
"568 -331 CURVE SMOOTH",
"529 -303 OFFCURVE",
"505 -279 OFFCURVE",
"497 -258 CURVE SMOOTH",
"489 -237 OFFCURVE",
"487 -220 OFFCURVE",
"491 -203 CURVE",
"470 -205 OFFCURVE",
"452 -206 OFFCURVE",
"433 -206 CURVE SMOOTH",
"334 -205 OFFCURVE",
"248 -177 OFFCURVE",
"173 -121 CURVE SMOOTH",
"82 -53 OFFCURVE",
"36 43 OFFCURVE",
"36 166 CURVE SMOOTH",
"36 289 OFFCURVE",
"82 384 OFFCURVE",
"173 453 CURVE",
"248 508 OFFCURVE",
"335 536 OFFCURVE",
"433 537 CURVE SMOOTH",
"452 537 OFFCURVE",
"471 536 OFFCURVE",
"491 534 CURVE",
"486 551 OFFCURVE",
"489 570 OFFCURVE",
"497 591 CURVE SMOOTH",
"505 612 OFFCURVE",
"529 635 OFFCURVE",
"568 663 CURVE SMOOTH",
"607 691 OFFCURVE",
"629 706 OFFCURVE",
"633 710 CURVE SMOOTH",
"637 714 OFFCURVE",
"642 714 OFFCURVE",
"646 710 CURVE SMOOTH",
"650 706 OFFCURVE",
"673 691 OFFCURVE",
"712 663 CURVE SMOOTH",
"751 635 OFFCURVE",
"775 611 OFFCURVE",
"783 590 CURVE SMOOTH",
"791 569 OFFCURVE",
"792 551 OFFCURVE",
"788 534 CURVE",
"809 536 OFFCURVE",
"828 537 OFFCURVE",
"847 537 CURVE SMOOTH",
"945 536 OFFCURVE",
"1031 508 OFFCURVE",
"1106 453 CURVE",
"1197 384 OFFCURVE",
"1244 288 OFFCURVE",
"1244 166 CURVE SMOOTH",
"1244 44 OFFCURVE",
"1197 -53 OFFCURVE",
"1106 -121 CURVE SMOOTH",
"1031 -177 OFFCURVE",
"945 -205 OFFCURVE",
"847 -206 CURVE SMOOTH",
"828 -206 OFFCURVE",
"808 -205 OFFCURVE",
"788 -203 CURVE"
);
},
{
closed = 1;
nodes = (
"643 457 OFFCURVE",
"645 460 OFFCURVE",
"649 462 CURVE",
"694 496 OFFCURVE",
"717 529 OFFCURVE",
"717 563 CURVE",
"715 593 OFFCURVE",
"690 627 OFFCURVE",
"640 664 CURVE",
"590 626 OFFCURVE",
"564 593 OFFCURVE",
"562 563 CURVE",
"562 528 OFFCURVE",
"585 495 OFFCURVE",
"630 462 CURVE SMOOTH",
"634 459 OFFCURVE",
"637 457 OFFCURVE",
"640 454 CURVE"
);
}
);
width = 1279;
}
);
unicode = 06DD;
}
{
glyphname = "fiveFarsi-ar";
layers = (
{
layerId = "7FE84AD5-D318-40C5-A81A-3CDC73FF77D2";
paths = (
{
closed = 1;
nodes = (
"333 434 OFFCURVE",
"396 359 OFFCURVE",
"425 301 CURVE SMOOTH",
"464 223 OFFCURVE",
"481 164 OFFCURVE",
"476 125 CURVE SMOOTH",
"463 15 OFFCURVE",
"430 -45 OFFCURVE",
"376 -54 CURVE SMOOTH",
"336 -61 OFFCURVE",
"308 -51 OFFCURVE",
"292 -25 CURVE",
"261 -61 OFFCURVE",
"227 -78 OFFCURVE",
"188 -75 CURVE SMOOTH",
"120 -69 OFFCURVE",
"91 -14 OFFCURVE",
"102 91 CURVE SMOOTH",
"110 167 OFFCURVE",
"152 255 OFFCURVE",
"227 358 CURVE",
"220 363 OFFCURVE",
"212 368 OFFCURVE",
"204 372 CURVE SMOOTH",
"197 376 OFFCURVE",
"194 384 OFFCURVE",
"196 399 CURVE SMOOTH",
"213 520 LINE SMOOTH",
"215 536 OFFCURVE",
"223 538 OFFCURVE",
"235 526 CURVE SMOOTH"
);
},
{
closed = 1;
nodes = (
"210 286 OFFCURVE",
"183 238 OFFCURVE",
"168 200 CURVE SMOOTH",
"143 136 OFFCURVE",
"141 92 OFFCURVE",
"161 69 CURVE SMOOTH",
"201 24 OFFCURVE",
"253 32 OFFCURVE",
"317 94 CURVE SMOOTH",
"323 100 OFFCURVE",
"328 103 OFFCURVE",
"333 101 CURVE",
"337 99 OFFCURVE",
"340 95 OFFCURVE",
"341 89 CURVE",
"338 84 OFFCURVE",
"337 78 OFFCURVE",
"338 71 CURVE",
"350 63 OFFCURVE",
"364 60 OFFCURVE",
"381 62 CURVE SMOOTH",
"404 65 OFFCURVE",
"421 80 OFFCURVE",
"431 107 CURVE SMOOTH",
"435 117 OFFCURVE",
"433 127 OFFCURVE",
"427 139 CURVE SMOOTH",
"385 222 OFFCURVE",
"327 290 OFFCURVE",
"251 342 CURVE"
);
}
);
width = 585;
},
{
layerId = "037FF2D3-C03F-44B0-90AB-89AFD43EFA27";
paths = (
{
closed = 1;
nodes = (
"342 438 OFFCURVE",
"406 362 OFFCURVE",
"433 307 CURVE SMOOTH",
"471 230 OFFCURVE",
"487 169 OFFCURVE",
"482 124 CURVE SMOOTH",
"468 8 OFFCURVE",
"434 -56 OFFCURVE",
"378 -66 CURVE SMOOTH",
"340 -73 OFFCURVE",
"311 -65 OFFCURVE",
"291 -44 CURVE",
"260 -76 OFFCURVE",
"225 -90 OFFCURVE",
"187 -87 CURVE SMOOTH",
"116 -81 OFFCURVE",
"86 -22 OFFCURVE",
"97 92 CURVE SMOOTH",
"104 167 OFFCURVE",
"144 253 OFFCURVE",
"215 350 CURVE",
"211 353 OFFCURVE",
"205 356 OFFCURVE",
"198 361 CURVE SMOOTH",
"186 368 OFFCURVE",
"181 381 OFFCURVE",
"184 401 CURVE SMOOTH",
"201 522 LINE SMOOTH",
"202 530 OFFCURVE",
"204 536 OFFCURVE",
"208 540 CURVE SMOOTH",
"217 550 OFFCURVE",
"229 548 OFFCURVE",
"243 535 CURVE SMOOTH"
);
},
{
closed = 1;
nodes = (
"211 274 OFFCURVE",
"186 231 OFFCURVE",
"172 196 CURVE SMOOTH",
"148 134 OFFCURVE",
"146 94 OFFCURVE",
"166 75 CURVE SMOOTH",
"204 39 OFFCURVE",
"252 47 OFFCURVE",
"309 100 CURVE SMOOTH",
"319 110 OFFCURVE",
"329 114 OFFCURVE",
"336 111 CURVE SMOOTH",
"343 108 OFFCURVE",
"347 101 OFFCURVE",
"349 88 CURVE",
"347 84 OFFCURVE",
"345 81 OFFCURVE",
"345 80 CURVE",
"358 75 OFFCURVE",
"369 74 OFFCURVE",
"379 75 CURVE SMOOTH",
"402 77 OFFCURVE",
"419 89 OFFCURVE",
"427 111 CURVE SMOOTH",
"429 117 OFFCURVE",
"428 125 OFFCURVE",
"424 134 CURVE SMOOTH",
"389 211 OFFCURVE",
"331 275 OFFCURVE",
"247 325 CURVE"
);
}
);
width = 585;
}
);
unicode = 06F5;
}
{
glyphname = "fourFarsi-ar";
layers = (
{
layerId = "7FE84AD5-D318-40C5-A81A-3CDC73FF77D2";
paths = (
{
closed = 1;
nodes = (
"202 473 OFFCURVE",
"221 438 OFFCURVE",
"232 410 CURVE SMOOTH",
"237 399 OFFCURVE",
"242 399 OFFCURVE",
"246 410 CURVE SMOOTH",
"286 503 OFFCURVE",
"343 553 OFFCURVE",
"419 558 CURVE SMOOTH",
"463 561 OFFCURVE",
"503 528 OFFCURVE",
"538 462 CURVE SMOOTH",
"545 448 OFFCURVE",
"547 439 OFFCURVE",
"544 434 CURVE SMOOTH",
"539 427 OFFCURVE",
"533 427 OFFCURVE",
"523 434 CURVE SMOOTH",
"481 465 OFFCURVE",
"446 480 OFFCURVE",
"420 480 CURVE SMOOTH",
"337 479 OFFCURVE",
"287 445 OFFCURVE",
"267 379 CURVE",
"307 345 OFFCURVE",
"346 327 OFFCURVE",
"384 325 CURVE SMOOTH",
"440 322 OFFCURVE",
"479 329 OFFCURVE",
"500 347 CURVE SMOOTH",
"513 358 OFFCURVE",
"522 361 OFFCURVE",
"528 356 CURVE SMOOTH",
"535 349 OFFCURVE",
"534 339 OFFCURVE",
"525 325 CURVE SMOOTH",
"491 271 OFFCURVE",
"442 243 OFFCURVE",
"379 238 CURVE SMOOTH",
"341 235 OFFCURVE",
"308 240 OFFCURVE",
"282 253 CURVE",
"308 131 OFFCURVE",
"312 21 OFFCURVE",
"292 -77 CURVE SMOOTH",
"291 -84 OFFCURVE",
"288 -89 OFFCURVE",
"282 -91 CURVE SMOOTH",
"276 -93 OFFCURVE",
"271 -93 OFFCURVE",
"267 -89 CURVE SMOOTH",
"263 -85 OFFCURVE",
"260 -80 OFFCURVE",
"260 -73 CURVE SMOOTH",
"253 95 OFFCURVE",
"207 244 OFFCURVE",
"124 372 CURVE SMOOTH",
"112 391 OFFCURVE",
"108 406 OFFCURVE",
"111 419 CURVE SMOOTH",
"136 524 LINE SMOOTH",
"142 549 OFFCURVE",
"155 546 OFFCURVE",
"175 515 CURVE SMOOTH"
);
}
);
width = 585;
},
{
layerId = "037FF2D3-C03F-44B0-90AB-89AFD43EFA27";
paths = (
{
closed = 1;
nodes = (
"226 453 OFFCURVE",
"209 485 OFFCURVE",
"188 521 CURVE SMOOTH",
"156 576 OFFCURVE",
"134 578 OFFCURVE",
"122 527 CURVE SMOOTH",
"97 423 LINE SMOOTH",
"93 406 OFFCURVE",
"98 386 OFFCURVE",
"112 364 CURVE SMOOTH",
"194 237 OFFCURVE",
"241 91 OFFCURVE",
"252 -73 CURVE SMOOTH",
"253 -83 OFFCURVE",
"256 -91 OFFCURVE",
"262 -98 CURVE SMOOTH",
"268 -105 OFFCURVE",
"276 -106 OFFCURVE",
"286 -100 CURVE SMOOTH",
"296 -94 OFFCURVE",
"302 -85 OFFCURVE",
"304 -76 CURVE SMOOTH",
"323 13 OFFCURVE",
"320 116 OFFCURVE",
"298 233 CURVE",
"322 226 OFFCURVE",
"349 224 OFFCURVE",
"380 226 CURVE SMOOTH",
"447 231 OFFCURVE",
"499 262 OFFCURVE",
"535 319 CURVE SMOOTH",
"548 339 OFFCURVE",
"548 354 OFFCURVE",
"537 365 CURVE SMOOTH",
"526 376 OFFCURVE",
"511 373 OFFCURVE",
"492 357 CURVE SMOOTH",
"473 341 OFFCURVE",
"437 334 OFFCURVE",
"385 337 CURVE SMOOTH",
"351 339 OFFCURVE",
"316 354 OFFCURVE",
"281 383 CURVE",
"301 440 OFFCURVE",
"347 468 OFFCURVE",
"420 468 CURVE SMOOTH",
"444 468 OFFCURVE",
"476 453 OFFCURVE",
"516 424 CURVE SMOOTH",
"530 414 OFFCURVE",
"542 413 OFFCURVE",
"553 424 CURVE SMOOTH",
"561 432 OFFCURVE",
"559 447 OFFCURVE",
"548 468 CURVE SMOOTH",
"510 539 OFFCURVE",
"467 573 OFFCURVE",
"418 570 CURVE SMOOTH",
"339 565 OFFCURVE",
"279 516 OFFCURVE",
"237 424 CURVE"
);
}
);
width = 585;
}
);
unicode = 06F4;
}
{
glyphname = "fullstop-ar";
layers = (
{
layerId = "7FE84AD5-D318-40C5-A81A-3CDC73FF77D2";
paths = (
{
closed = 1;
nodes = (
"420 90 OFFCURVE",
"422 85 OFFCURVE",
"414 77 CURVE SMOOTH",
"356 14 LINE SMOOTH",
"347 5 OFFCURVE",
"334 0 OFFCURVE",
"316 0 CURVE SMOOTH",
"84 0 LINE SMOOTH",
"72 0 OFFCURVE",
"70 5 OFFCURVE",
"78 13 CURVE SMOOTH",
"136 76 LINE SMOOTH",
"145 85 OFFCURVE",
"158 90 OFFCURVE",
"176 90 CURVE SMOOTH",
"408 90 LINE SMOOTH"
);
}
);
width = 491;
},
{
layerId = "037FF2D3-C03F-44B0-90AB-89AFD43EFA27";
paths = (
{
closed = 1;
nodes = (
"416 104 OFFCURVE",
"423 103 OFFCURVE",
"427 99 CURVE SMOOTH",
"436 90 OFFCURVE",
"436 79 OFFCURVE",
"425 67 CURVE SMOOTH",
"367 4 LINE",
"355 -8 OFFCURVE",
"337 -15 OFFCURVE",
"316 -15 CURVE",
"84 -15 LINE",
"76 -14 OFFCURVE",
"69 -12 OFFCURVE",
"65 -8 CURVE SMOOTH",
"56 1 OFFCURVE",
"56 11 OFFCURVE",
"67 23 CURVE SMOOTH",
"125 86 LINE",
"137 98 OFFCURVE",
"155 105 OFFCURVE",
"176 105 CURVE",
"408 105 LINE"
);
}
);
width = 491;
}
);
unicode = 06D4;
}
{
glyphname = "hahabove-ar";
layers = (
{
anchors = (
{
name = TashkilTashkilAbove;
position = "{179, 1069}";
},
{
name = _MarkAbove;
position = "{180, 801}";
},
{
name = _TashkilAbove;
position = "{182, 801}";
},
{
name = _TashkilAboveDot;
position = "{182, 801}";
}
);
layerId = "7FE84AD5-D318-40C5-A81A-3CDC73FF77D2";
paths = (
{
closed = 1;
nodes = (
"275 991 OFFCURVE",
"280 980 OFFCURVE",
"273 962 CURVE SMOOTH",
"269 952 OFFCURVE",
"262 942 OFFCURVE",
"254 934 CURVE SMOOTH",
"230 910 OFFCURVE",
"212 893 OFFCURVE",
"199 883 CURVE SMOOTH",
"189 874 OFFCURVE",
"177 868 OFFCURVE",
"164 866 CURVE SMOOTH",
"142 863 OFFCURVE",
"117 865 OFFCURVE",
"87 872 CURVE SMOOTH",
"81 873 OFFCURVE",
"79 877 OFFCURVE",
"80 883 CURVE",
"81 887 OFFCURVE",
"83 890 OFFCURVE",
"87 890 CURVE SMOOTH",
"139 894 OFFCURVE",
"181 909 OFFCURVE",
"214 935 CURVE",
"193 944 OFFCURVE",
"176 948 OFFCURVE",
"159 949 CURVE SMOOTH",
"141 950 OFFCURVE",
"123 946 OFFCURVE",
"107 939 CURVE SMOOTH",
"102 937 OFFCURVE",
"99 937 OFFCURVE",
"96 941 CURVE SMOOTH",
"92 947 OFFCURVE",
"91 952 OFFCURVE",
"95 957 CURVE SMOOTH",
"111 977 OFFCURVE",
"126 991 OFFCURVE",
"139 1001 CURVE SMOOTH",
"154 1013 OFFCURVE",
"174 1016 OFFCURVE",
"199 1010 CURVE SMOOTH",
"260 995 LINE SMOOTH"
);
}
);
width = 0;
},
{
anchors = (
{
name = TashkilTashkilAbove;
position = "{179, 1069}";
},
{
name = _MarkAbove;
position = "{180, 801}";
},
{
name = _TashkilAbove;
position = "{182, 801}";
},
{
name = _TashkilAboveDot;
position = "{182, 801}";
}
);
layerId = "037FF2D3-C03F-44B0-90AB-89AFD43EFA27";
paths = (
{
closed = 1;
nodes = (
"283 997 OFFCURVE",
"289 983 OFFCURVE",
"280 960 CURVE SMOOTH",
"275 949 OFFCURVE",
"264 935 OFFCURVE",
"248 918 CURVE SMOOTH",
"232 901 OFFCURVE",
"217 888 OFFCURVE",
"205 878 CURVE SMOOTH",
"179 857 OFFCURVE",
"138 852 OFFCURVE",
"85 865 CURVE SMOOTH",
"77 867 OFFCURVE",
"73 872 OFFCURVE",
"73 881 CURVE SMOOTH",
"73 890 OFFCURVE",
"77 896 OFFCURVE",
"87 897 CURVE",
"132 901 OFFCURVE",
"169 913 OFFCURVE",
"199 933 CURVE",
"166 944 OFFCURVE",
"137 944 OFFCURVE",
"110 932 CURVE",
"101 928 OFFCURVE",
"95 930 OFFCURVE",
"89 938 CURVE SMOOTH",
"83 946 OFFCURVE",
"83 954 OFFCURVE",
"89 961 CURVE SMOOTH",
"106 982 OFFCURVE",
"122 998 OFFCURVE",
"137 1010 CURVE SMOOTH",
"152 1022 OFFCURVE",
"174 1025 OFFCURVE",
"201 1018 CURVE SMOOTH",
"262 1002 LINE SMOOTH"
);
}
);
width = 0;
}
);
unicode = 06E1;
}
{
glyphname = "hizb-ar";
layers = (
{
layerId = "7FE84AD5-D318-40C5-A81A-3CDC73FF77D2";
paths = (
{
closed = 1;
nodes = (
"485 380 OFFCURVE",
"506 385 OFFCURVE",
"525 366 CURVE SMOOTH",
"544 347 OFFCURVE",
"540 325 OFFCURVE",
"512 302 CURVE SMOOTH",
"367 183 LINE",
"554 201 LINE SMOOTH",
"590 205 OFFCURVE",
"608 193 OFFCURVE",
"608 166 CURVE SMOOTH",
"608 139 OFFCURVE",
"590 127 OFFCURVE",
"554 131 CURVE SMOOTH",
"367 149 LINE",
"512 30 LINE SMOOTH",
"540 7 OFFCURVE",
"545 -15 OFFCURVE",
"526 -34 CURVE SMOOTH",
"507 -53 OFFCURVE",
"485 -49 OFFCURVE",
"462 -20 CURVE SMOOTH",
"343 125 LINE",
"361 -62 LINE SMOOTH",
"365 -98 OFFCURVE",
"353 -116 OFFCURVE",
"326 -116 CURVE SMOOTH",
"299 -116 OFFCURVE",
"287 -98 OFFCURVE",
"291 -62 CURVE SMOOTH",
"309 125 LINE",
"190 -20 LINE SMOOTH",
"167 -48 OFFCURVE",
"145 -53 OFFCURVE",
"126 -34 CURVE SMOOTH",
"107 -15 OFFCURVE",
"113 7 OFFCURVE",
"141 30 CURVE SMOOTH",
"286 149 LINE",
"99 131 LINE SMOOTH",
"63 127 OFFCURVE",
"44 139 OFFCURVE",
"44 166 CURVE SMOOTH",
"44 193 OFFCURVE",
"63 205 OFFCURVE",
"99 201 CURVE SMOOTH",
"286 183 LINE",
"141 302 LINE SMOOTH",
"113 325 OFFCURVE",
"108 347 OFFCURVE",
"127 366 CURVE SMOOTH",
"146 385 OFFCURVE",
"167 380 OFFCURVE",
"190 352 CURVE SMOOTH",
"309 207 LINE",
"291 394 LINE SMOOTH",
"287 430 OFFCURVE",
"299 448 OFFCURVE",
"326 448 CURVE SMOOTH",
"353 448 OFFCURVE",
"365 430 OFFCURVE",
"361 394 CURVE SMOOTH",
"343 206 LINE",
"462 352 LINE SMOOTH"
);
}
);
width = 652;
},
{
layerId = "037FF2D3-C03F-44B0-90AB-89AFD43EFA27";
paths = (
{
closed = 1;
nodes = (
"363 463 OFFCURVE",
"379 439 OFFCURVE",
"375 392 CURVE",
"362 253 LINE",
"451 361 LINE",
"481 397 OFFCURVE",
"510 402 OFFCURVE",
"536 376 CURVE",
"562 349 OFFCURVE",
"557 321 OFFCURVE",
"521 291 CURVE",
"413 202 LINE",
"552 216 LINE",
"599 220 OFFCURVE",
"623 204 OFFCURVE",
"623 167 CURVE",
"623 130 OFFCURVE",
"599 113 OFFCURVE",
"552 117 CURVE",
"413 130 LINE",
"521 42 LINE",
"557 12 OFFCURVE",
"562 -17 OFFCURVE",
"536 -43 CURVE",
"509 -69 OFFCURVE",
"481 -64 OFFCURVE",
"451 -28 CURVE",
"362 79 LINE",
"375 -60 LINE",
"379 -107 OFFCURVE",
"363 -130 OFFCURVE",
"326 -130 CURVE",
"289 -130 OFFCURVE",
"272 -107 OFFCURVE",
"276 -60 CURVE",
"290 79 LINE",
"201 -28 LINE",
"171 -64 OFFCURVE",
"142 -69 OFFCURVE",
"116 -43 CURVE",
"90 -17 OFFCURVE",
"95 12 OFFCURVE",
"131 42 CURVE",
"239 130 LINE",
"100 117 LINE",
"53 113 OFFCURVE",
"29 130 OFFCURVE",
"29 167 CURVE",
"29 204 OFFCURVE",
"53 220 OFFCURVE",
"100 216 CURVE",
"239 202 LINE",
"131 291 LINE",
"95 321 OFFCURVE",
"90 349 OFFCURVE",
"116 376 CURVE",
"142 402 OFFCURVE",
"171 397 OFFCURVE",
"201 361 CURVE",
"290 253 LINE",
"276 392 LINE",
"272 439 OFFCURVE",
"289 463 OFFCURVE",
"326 463 CURVE"
);
}
);
width = 652;
}
);
unicode = 06DE;
}
{
glyphname = "jeemabove-ar";
layers = (
{
anchors = (
{
name = _MarkAbove;
position = "{195, 1270}";
}
);
layerId = "7FE84AD5-D318-40C5-A81A-3CDC73FF77D2";
paths = (
{
closed = 1;
nodes = (
"181 1559 OFFCURVE",
"183 1559 OFFCURVE",
"185 1558 CURVE SMOOTH",
"200 1553 OFFCURVE",
"214 1545 OFFCURVE",
"226 1534 CURVE SMOOTH",
"228 1532 OFFCURVE",
"228 1531 OFFCURVE",
"227 1529 CURVE SMOOTH",
"199 1485 LINE SMOOTH",
"198 1483 OFFCURVE",
"196 1484 OFFCURVE",
"193 1486 CURVE SMOOTH",
"190 1488 OFFCURVE",
"177 1496 OFFCURVE",
"153 1511 CURVE SMOOTH",
"151 1512 OFFCURVE",
"151 1514 OFFCURVE",
"152 1515 CURVE SMOOTH",
"180 1557 LINE SMOOTH"
);
},
{
closed = 1;
nodes = (
"315 1712 LINE SMOOTH",
"313 1709 OFFCURVE",
"312 1708 OFFCURVE",
"309 1708 CURVE SMOOTH",
"217 1696 OFFCURVE",
"152 1677 OFFCURVE",
"115 1653 CURVE SMOOTH",
"42 1605 OFFCURVE",
"14 1548 OFFCURVE",
"30 1481 CURVE SMOOTH",
"39 1444 OFFCURVE",
"67 1416 OFFCURVE",
"114 1395 CURVE SMOOTH",
"139 1384 OFFCURVE",
"180 1376 OFFCURVE",
"235 1373 CURVE SMOOTH",
"290 1370 OFFCURVE",
"341 1370 OFFCURVE",
"388 1374 CURVE SMOOTH",
"394 1375 OFFCURVE",
"398 1374 OFFCURVE",
"400 1372 CURVE SMOOTH",
"402 1370 OFFCURVE",
"402 1368 OFFCURVE",
"400 1365 CURVE SMOOTH",
"398 1362 OFFCURVE",
"396 1360 OFFCURVE",
"393 1359 CURVE SMOOTH",
"370 1352 OFFCURVE",
"350 1345 OFFCURVE",
"337 1337 CURVE SMOOTH",
"317 1325 OFFCURVE",
"306 1319 OFFCURVE",
"301 1319 CURVE SMOOTH",
"188 1309 OFFCURVE",
"106 1322 OFFCURVE",
"56 1359 CURVE SMOOTH",
"6 1396 OFFCURVE",
"-11 1453 OFFCURVE",
"7 1531 CURVE SMOOTH",
"25 1609 OFFCURVE",
"71 1667 OFFCURVE",
"147 1703 CURVE",
"95 1716 OFFCURVE",
"56 1714 OFFCURVE",
"30 1699 CURVE SMOOTH",
"28 1698 OFFCURVE",
"25 1698 OFFCURVE",
"23 1698 CURVE SMOOTH",
"21 1698 OFFCURVE",
"20 1699 OFFCURVE",
"20 1701 CURVE SMOOTH",
"20 1710 OFFCURVE",
"22 1720 OFFCURVE",
"26 1730 CURVE SMOOTH",
"33 1750 OFFCURVE",
"52 1761 OFFCURVE",
"82 1763 CURVE SMOOTH",
"97 1764 OFFCURVE",
"120 1760 OFFCURVE",
"153 1754 CURVE SMOOTH",
"186 1748 OFFCURVE",
"213 1745 OFFCURVE",
"235 1745 CURVE SMOOTH",
"257 1745 OFFCURVE",
"285 1748 OFFCURVE",
"318 1754 CURVE SMOOTH",
"329 1756 OFFCURVE",
"333 1753 OFFCURVE",
"329 1744 CURVE SMOOTH"
);
}
);
width = 0;
},
{
anchors = (
{
name = _MarkAbove;
position = "{195, 1270}";
}
);
layerId = "037FF2D3-C03F-44B0-90AB-89AFD43EFA27";
paths = (
{
closed = 1;
nodes = (
"178 1565 OFFCURVE",
"185 1565 OFFCURVE",
"196 1561 CURVE SMOOTH",
"207 1557 OFFCURVE",
"218 1550 OFFCURVE",
"230 1539 CURVE",
"234 1534 OFFCURVE",
"235 1530 OFFCURVE",
"233 1525 CURVE",
"205 1481 LINE SMOOTH",
"201 1475 OFFCURVE",
"197 1474 OFFCURVE",
"192 1478 CURVE SMOOTH",
"187 1482 OFFCURVE",
"172 1491 OFFCURVE",
"149 1505 CURVE SMOOTH",
"144 1508 OFFCURVE",
"143 1512 OFFCURVE",
"146 1518 CURVE",
"174 1561 LINE"
);
},
{
closed = 1;
nodes = (
"322 1709 LINE SMOOTH",
"320 1703 OFFCURVE",
"316 1701 OFFCURVE",
"310 1700 CURVE SMOOTH",
"219 1688 OFFCURVE",
"155 1669 OFFCURVE",
"119 1646 CURVE",
"50 1600 OFFCURVE",
"23 1546 OFFCURVE",
"38 1483 CURVE",
"47 1448 OFFCURVE",
"73 1421 OFFCURVE",
"117 1401 CURVE",
"142 1390 OFFCURVE",
"182 1383 OFFCURVE",
"236 1380 CURVE SMOOTH",
"290 1377 OFFCURVE",
"341 1377 OFFCURVE",
"388 1381 CURVE SMOOTH",
"396 1382 OFFCURVE",
"402 1380 OFFCURVE",
"406 1376 CURVE SMOOTH",
"410 1372 OFFCURVE",
"409 1367 OFFCURVE",
"406 1362 CURVE SMOOTH",
"403 1357 OFFCURVE",
"400 1354 OFFCURVE",
"395 1353 CURVE SMOOTH",
"372 1346 OFFCURVE",
"352 1337 OFFCURVE",
"335 1327 CURVE SMOOTH",
"318 1317 OFFCURVE",
"307 1313 OFFCURVE",
"301 1312 CURVE SMOOTH",
"186 1302 OFFCURVE",
"103 1316 OFFCURVE",
"51 1354 CURVE SMOOTH",
"-1 1392 OFFCURVE",
"-18 1452 OFFCURVE",
"0 1533 CURVE",
"17 1607 OFFCURVE",
"59 1663 OFFCURVE",
"125 1700 CURVE",
"85 1707 OFFCURVE",
"55 1704 OFFCURVE",
"34 1692 CURVE SMOOTH",
"30 1690 OFFCURVE",
"25 1689 OFFCURVE",
"21 1690 CURVE",
"15 1692 OFFCURVE",
"13 1697 OFFCURVE",
"13 1705 CURVE SMOOTH",
"13 1713 OFFCURVE",
"15 1721 OFFCURVE",
"19 1732 CURVE SMOOTH",
"28 1755 OFFCURVE",
"48 1768 OFFCURVE",
"81 1770 CURVE",
"97 1771 OFFCURVE",
"121 1767 OFFCURVE",
"154 1761 CURVE SMOOTH",
"187 1755 OFFCURVE",
"214 1752 OFFCURVE",
"236 1752 CURVE SMOOTH",
"258 1752 OFFCURVE",
"278 1755 OFFCURVE",
"297 1758 CURVE SMOOTH",
"316 1761 OFFCURVE",
"328 1761 OFFCURVE",
"334 1759 CURVE SMOOTH",
"340 1757 OFFCURVE",
"340 1751 OFFCURVE",
"336 1741 CURVE SMOOTH"
);
}
);
width = 0;
}
);
unicode = 06DA;
}
{
glyphname = "lamAlefabove-ar";
layers = (
{
anchors = (
{
name = _MarkAbove;
position = "{190, 1270}";
}
);
layerId = "7FE84AD5-D318-40C5-A81A-3CDC73FF77D2";
paths = (
{
closed = 1;
nodes = (
"253 1519 OFFCURVE",
"262 1600 OFFCURVE",
"254 1705 CURVE SMOOTH",
"253 1720 OFFCURVE",
"254 1729 OFFCURVE",
"256 1733 CURVE SMOOTH",
"264 1748 OFFCURVE",
"270 1757 OFFCURVE",
"271 1759 CURVE SMOOTH",
"272 1761 OFFCURVE",
"274 1762 OFFCURVE",
"276 1762 CURVE SMOOTH",
"278 1762 OFFCURVE",
"280 1760 OFFCURVE",
"281 1758 CURVE SMOOTH",
"287 1736 OFFCURVE",
"292 1721 OFFCURVE",
"298 1715 CURVE SMOOTH",
"304 1709 OFFCURVE",
"304 1702 OFFCURVE",
"299 1697 CURVE SMOOTH",
"283 1681 LINE",
"286 1586 OFFCURVE",
"271 1505 OFFCURVE",
"238 1440 CURVE",
"249 1412 OFFCURVE",
"256 1387 OFFCURVE",
"257 1365 CURVE",
"258 1343 OFFCURVE",
"253 1330 OFFCURVE",
"240 1327 CURVE SMOOTH",
"204 1318 OFFCURVE",
"165 1317 OFFCURVE",
"122 1324 CURVE SMOOTH",
"117 1325 OFFCURVE",
"115 1326 OFFCURVE",
"114 1328 CURVE",
"107 1345 OFFCURVE",
"108 1358 OFFCURVE",
"117 1370 CURVE SMOOTH",
"120 1374 OFFCURVE",
"123 1376 OFFCURVE",
"125 1375 CURVE SMOOTH",
"132 1374 OFFCURVE",
"139 1374 OFFCURVE",
"146 1373 CURVE SMOOTH",
"146 1374 LINE SMOOTH",
"173 1389 OFFCURVE",
"196 1410 OFFCURVE",
"213 1436 CURVE",
"174 1518 OFFCURVE",
"126 1586 OFFCURVE",
"69 1640 CURVE",
"61 1625 LINE",
"56 1622 OFFCURVE",
"51 1622 OFFCURVE",
"47 1627 CURVE",
"7 1670 LINE",
"1 1677 OFFCURVE",
"-1 1684 OFFCURVE",
"0 1692 CURVE SMOOTH",
"8 1743 LINE SMOOTH",
"9 1748 OFFCURVE",
"10 1751 OFFCURVE",
"13 1751 CURVE SMOOTH",
"21 1752 OFFCURVE",
"43 1731 OFFCURVE",
"78 1688 CURVE SMOOTH",
"147 1605 OFFCURVE",
"197 1530 OFFCURVE",
"228 1463 CURVE"
);
},
{
closed = 1;
nodes = (
"213 1398 OFFCURVE",
"201 1385 OFFCURVE",
"188 1372 CURVE SMOOTH",
"188 1371 LINE",
"209 1371 OFFCURVE",
"223 1372 OFFCURVE",
"232 1376 CURVE",
"231 1387 OFFCURVE",
"228 1399 OFFCURVE",
"223 1413 CURVE"
);
}
);
width = 0;
},
{
anchors = (
{
name = _MarkAbove;
position = "{190, 1270}";
}
);
layerId = "037FF2D3-C03F-44B0-90AB-89AFD43EFA27";
paths = (
{
closed = 1;
nodes = (
"248 1535 OFFCURVE",
"254 1611 OFFCURVE",
"247 1705 CURVE SMOOTH",
"246 1722 OFFCURVE",
"247 1732 OFFCURVE",
"250 1737 CURVE SMOOTH",
"258 1752 OFFCURVE",
"263 1760 OFFCURVE",
"265 1763 CURVE SMOOTH",
"269 1768 OFFCURVE",
"273 1770 OFFCURVE",
"278 1769 CURVE SMOOTH",
"283 1768 OFFCURVE",
"286 1765 OFFCURVE",
"288 1760 CURVE",
"294 1739 OFFCURVE",
"299 1724 OFFCURVE",
"306 1717 CURVE SMOOTH",
"313 1709 OFFCURVE",
"312 1701 OFFCURVE",
"304 1692 CURVE SMOOTH",
"290 1678 LINE",
"293 1584 OFFCURVE",
"278 1504 OFFCURVE",
"246 1439 CURVE",
"256 1411 OFFCURVE",
"263 1386 OFFCURVE",
"264 1362 CURVE SMOOTH",
"265 1338 OFFCURVE",
"258 1325 OFFCURVE",
"242 1320 CURVE",
"205 1311 OFFCURVE",
"164 1309 OFFCURVE",
"121 1316 CURVE SMOOTH",
"114 1317 OFFCURVE",
"109 1321 OFFCURVE",
"107 1325 CURVE SMOOTH",
"100 1344 OFFCURVE",
"101 1361 OFFCURVE",
"111 1375 CURVE",
"116 1381 OFFCURVE",
"121 1383 OFFCURVE",
"127 1382 CURVE SMOOTH",
"133 1381 OFFCURVE",
"138 1381 OFFCURVE",
"144 1380 CURVE",
"169 1394 OFFCURVE",
"189 1413 OFFCURVE",
"205 1436 CURVE",
"169 1512 OFFCURVE",
"123 1576 OFFCURVE",
"71 1628 CURVE",
"68 1623 OFFCURVE",
"66 1619 OFFCURVE",
"65 1618 CURVE SMOOTH",
"56 1613 OFFCURVE",
"49 1615 OFFCURVE",
"42 1622 CURVE SMOOTH",
"1 1665 LINE",
"-6 1673 OFFCURVE",
"-8 1683 OFFCURVE",
"-7 1693 CURVE SMOOTH",
"0 1744 LINE SMOOTH",
"2 1752 OFFCURVE",
"6 1757 OFFCURVE",
"12 1758 CURVE",
"21 1759 OFFCURVE",
"36 1748 OFFCURVE",
"56 1726 CURVE SMOOTH",
"134 1637 OFFCURVE",
"191 1556 OFFCURVE",
"228 1481 CURVE"
);
},
{
closed = 1;
nodes = (
"215 1390 OFFCURVE",
"210 1385 OFFCURVE",
"205 1379 CURVE",
"212 1379 OFFCURVE",
"219 1380 OFFCURVE",
"224 1381 CURVE",
"223 1386 OFFCURVE",
"222 1391 OFFCURVE",
"220 1397 CURVE"
);
}
);
width = 0;
}
);
unicode = 06D9;
}
{
glyphname = "maddalong-ar";
layers = (
{
anchors = (
{
name = _AlefAbove;
position = "{0, 635}";
},
{
name = _MarkAbove;
position = "{0, 781}";
},
{
name = _TashkilAbove;
position = "{0, 810}";
},
{
name = _TashkilTashkilAbove;
position = "{0, 810}";
},
{
name = _TashkilTashkilAbove2;
position = "{0, 810}";
}
);
layerId = "7FE84AD5-D318-40C5-A81A-3CDC73FF77D2";
paths = (
{
closed = 1;
nodes = (
"167 902 OFFCURVE",
"173 898 OFFCURVE",
"176 890 CURVE SMOOTH",
"179 882 OFFCURVE",
"176 875 OFFCURVE",
"169 870 CURVE SMOOTH",
"112 832 OFFCURVE",
"19 815 OFFCURVE",
"-110 819 CURVE",
"-115 808 OFFCURVE",
"-119 800 OFFCURVE",
"-124 795 CURVE SMOOTH",
"-129 790 OFFCURVE",
"-133 789 OFFCURVE",
"-136 792 CURVE SMOOTH",
"-173 831 LINE",
"-180 838 OFFCURVE",
"-172 855 OFFCURVE",
"-148 882 CURVE SMOOTH",
"-143 887 OFFCURVE",
"-136 889 OFFCURVE",
"-126 887 CURVE SMOOTH",
"-31 872 OFFCURVE",
"63 876 OFFCURVE",
"157 899 CURVE SMOOTH"
);
}
);
width = 0;
},
{
anchors = (
{
name = _AlefAbove;
position = "{0, 635}";
},
{
name = _MarkAbove;
position = "{0, 781}";
},
{
name = _TashkilAbove;
position = "{0, 810}";
},
{
name = _TashkilTashkilAbove;
position = "{0, 810}";
},
{
name = _TashkilTashkilAbove2;
position = "{0, 810}";
}
);
layerId = "037FF2D3-C03F-44B0-90AB-89AFD43EFA27";
paths = (
{
closed = 1;
nodes = (
"169 910 OFFCURVE",
"178 905 OFFCURVE",
"183 893 CURVE SMOOTH",
"188 881 OFFCURVE",
"184 871 OFFCURVE",
"173 864 CURVE SMOOTH",
"115 826 OFFCURVE",
"23 809 OFFCURVE",
"-105 812 CURVE",
"-117 786 OFFCURVE",
"-130 778 OFFCURVE",
"-142 787 CURVE",
"-178 825 LINE SMOOTH",
"-185 832 OFFCURVE",
"-186 841 OFFCURVE",
"-180 851 CURVE SMOOTH",
"-174 861 OFFCURVE",
"-165 873 OFFCURVE",
"-153 887 CURVE SMOOTH",
"-146 894 OFFCURVE",
"-137 896 OFFCURVE",
"-125 894 CURVE SMOOTH",
"-31 879 OFFCURVE",
"62 883 OFFCURVE",
"155 906 CURVE SMOOTH"
);
}
);
width = 0;
}
);
unicode = 06E4;
}
{
glyphname = "meemStopabove-ar";
layers = (
{
anchors = (
{
name = _MarkAbove;
position = "{155, 801}";
},
{
name = _TashkilAbove;
position = "{156, 801}";
},
{
name = _TashkilAboveDot;
position = "{156, 801}";
},
{
name = _TashkilTashkilAbove;
position = "{220, 1050}";
},
{
name = _TashkilTashkilAbove2;
position = "{220, 1050}";
}
);
layerId = "7FE84AD5-D318-40C5-A81A-3CDC73FF77D2";
paths = (
{
closed = 1;
nodes = (
"68 1042 OFFCURVE",
"64 1045 OFFCURVE",
"70 1061 CURVE SMOOTH",
"77 1082 OFFCURVE",
"89 1100 OFFCURVE",
"102 1114 CURVE SMOOTH",
"115 1128 OFFCURVE",
"133 1128 OFFCURVE",
"156 1115 CURVE SMOOTH",
"174 1105 OFFCURVE",
"188 1089 OFFCURVE",
"198 1070 CURVE SMOOTH",
"201 1065 OFFCURVE",
"202 1059 OFFCURVE",
"201 1053 CURVE SMOOTH",
"196 1020 LINE SMOOTH",
"195 1013 OFFCURVE",
"189 1008 OFFCURVE",
"180 1007 CURVE SMOOTH",
"105 997 OFFCURVE",
"65 980 OFFCURVE",
"58 954 CURVE",
"86 879 OFFCURVE",
"101 825 OFFCURVE",
"103 792 CURVE SMOOTH",
"104 779 OFFCURVE",
"101 772 OFFCURVE",
"95 771 CURVE SMOOTH",
"88 770 OFFCURVE",
"84 776 OFFCURVE",
"81 787 CURVE SMOOTH",
"77 804 OFFCURVE",
"69 830 OFFCURVE",
"56 865 CURVE SMOOTH",
"42 901 OFFCURVE",
"36 933 OFFCURVE",
"38 959 CURVE",
"42 1008 OFFCURVE",
"74 1040 OFFCURVE",
"133 1053 CURVE",
"119 1069 OFFCURVE",
"102 1070 OFFCURVE",
"83 1054 CURVE SMOOTH"
);
}
);
width = 0;
},
{
anchors = (
{
name = _MarkAbove;
position = "{155, 801}";
},
{
name = _TashkilAbove;
position = "{156, 801}";
},
{
name = _TashkilAboveDot;
position = "{156, 801}";
},
{
name = _TashkilTashkilAbove;
position = "{220, 1050}";
},
{
name = _TashkilTashkilAbove2;
position = "{220, 1050}";
}
);
layerId = "037FF2D3-C03F-44B0-90AB-89AFD43EFA27";
paths = (
{
closed = 1;
nodes = (
"115 1067 OFFCURVE",
"103 1067 OFFCURVE",
"90 1058 CURVE SMOOTH",
"77 1049 OFFCURVE",
"69 1044 OFFCURVE",
"65 1045 CURVE",
"58 1047 OFFCURVE",
"58 1057 OFFCURVE",
"65 1077 CURVE SMOOTH",
"72 1097 OFFCURVE",
"83 1113 OFFCURVE",
"98 1125 CURVE SMOOTH",
"113 1137 OFFCURVE",
"134 1136 OFFCURVE",
"160 1121 CURVE",
"179 1110 OFFCURVE",
"194 1094 OFFCURVE",
"205 1074 CURVE SMOOTH",
"209 1067 OFFCURVE",
"209 1059 OFFCURVE",
"208 1052 CURVE SMOOTH",
"203 1019 LINE",
"201 1009 OFFCURVE",
"194 1002 OFFCURVE",
"181 1000 CURVE SMOOTH",
"112 991 OFFCURVE",
"73 976 OFFCURVE",
"65 954 CURVE",
"92 880 OFFCURVE",
"108 825 OFFCURVE",
"110 792 CURVE SMOOTH",
"111 775 OFFCURVE",
"106 766 OFFCURVE",
"96 764 CURVE",
"85 763 OFFCURVE",
"78 770 OFFCURVE",
"74 786 CURVE SMOOTH",
"70 802 OFFCURVE",
"61 828 OFFCURVE",
"48 864 CURVE SMOOTH",
"35 900 OFFCURVE",
"29 932 OFFCURVE",
"31 959 CURVE",
"36 1007 OFFCURVE",
"68 1040 OFFCURVE",
"127 1058 CURVE"
);
}
);
width = 0;
}
);
unicode = 06E2;
}
{
glyphname = "meemabove-ar";
layers = (
{
anchors = (
{
name = _MarkAbove;
position = "{209, 1270}";
}
);
layerId = "7FE84AD5-D318-40C5-A81A-3CDC73FF77D2";
paths = (
{
closed = 1;
nodes = (
"164 1360 OFFCURVE",
"112 1319 OFFCURVE",
"46 1304 CURVE SMOOTH",
"32 1301 OFFCURVE",
"23 1301 OFFCURVE",
"21 1306 CURVE SMOOTH",
"17 1315 OFFCURVE",
"22 1323 OFFCURVE",
"36 1330 CURVE SMOOTH",
"99 1361 OFFCURVE",
"146 1399 OFFCURVE",
"177 1445 CURVE",
"191 1526 OFFCURVE",
"216 1566 OFFCURVE",
"251 1565 CURVE SMOOTH",
"290 1564 OFFCURVE",
"310 1528 OFFCURVE",
"310 1456 CURVE",
"292 1418 LINE SMOOTH",
"290 1414 OFFCURVE",
"287 1413 OFFCURVE",
"282 1413 CURVE SMOOTH",
"249 1414 OFFCURVE",
"222 1418 OFFCURVE",
"201 1426 CURVE"
);
}
);
width = 0;
},
{
anchors = (
{
name = _MarkAbove;
position = "{209, 1270}";
}
);
layerId = "037FF2D3-C03F-44B0-90AB-89AFD43EFA27";
paths = (
{
closed = 1;
nodes = (
"166 1352 OFFCURVE",
"113 1312 OFFCURVE",
"47 1297 CURVE",
"28 1293 OFFCURVE",
"18 1295 OFFCURVE",
"14 1303 CURVE",
"9 1316 OFFCURVE",
"15 1327 OFFCURVE",
"33 1336 CURVE SMOOTH",
"94 1367 OFFCURVE",
"139 1404 OFFCURVE",
"170 1448 CURVE",
"185 1531 OFFCURVE",
"212 1573 OFFCURVE",
"250 1573 CURVE",
"295 1572 OFFCURVE",
"317 1533 OFFCURVE",
"317 1456 CURVE SMOOTH",
"317 1455 OFFCURVE",
"316 1454 OFFCURVE",
"316 1453 CURVE SMOOTH",
"299 1416 LINE",
"295 1409 OFFCURVE",
"289 1405 OFFCURVE",
"281 1405 CURVE SMOOTH",
"251 1406 OFFCURVE",
"225 1410 OFFCURVE",
"204 1417 CURVE"
);
}
);
width = 0;
}
);
unicode = 06D8;
}
{
glyphname = "noonabove-ar";
layers = (
{
anchors = (
{
name = TashkilTashkilAbove;
position = "{127, 1249}";
},
{
name = _MarkAbove;
position = "{141, 801}";
},
{
name = _NoonAbove;
position = "{142, 801}";
}
);
layerId = "7FE84AD5-D318-40C5-A81A-3CDC73FF77D2";
paths = (
{
closed = 1;
nodes = (
"130 1208 OFFCURVE",
"132 1208 OFFCURVE",
"134 1207 CURVE SMOOTH",
"149 1202 OFFCURVE",
"163 1194 OFFCURVE",
"175 1183 CURVE SMOOTH",
"177 1181 OFFCURVE",
"177 1180 OFFCURVE",
"176 1178 CURVE SMOOTH",
"148 1134 LINE SMOOTH",
"147 1132 OFFCURVE",
"145 1133 OFFCURVE",
"142 1135 CURVE SMOOTH",
"139 1137 OFFCURVE",
"126 1145 OFFCURVE",
"102 1160 CURVE SMOOTH",
"100 1161 OFFCURVE",
"100 1163 OFFCURVE",
"101 1164 CURVE SMOOTH",
"129 1206 LINE SMOOTH"
);
},
{
closed = 1;
nodes = (
"250 1094 OFFCURVE",
"262 1064 OFFCURVE",
"270 1028 CURVE SMOOTH",
"278 992 OFFCURVE",
"279 958 OFFCURVE",
"274 924 CURVE SMOOTH",
"271 906 OFFCURVE",
"265 890 OFFCURVE",
"257 877 CURVE SMOOTH",
"235 842 OFFCURVE",
"196 822 OFFCURVE",
"140 816 CURVE SMOOTH",
"100 812 OFFCURVE",
"70 819 OFFCURVE",
"49 839 CURVE SMOOTH",
"28 859 OFFCURVE",
"18 885 OFFCURVE",
"20 920 CURVE SMOOTH",
"22 955 OFFCURVE",
"34 988 OFFCURVE",
"56 1018 CURVE SMOOTH",
"59 1022 OFFCURVE",
"61 1023 OFFCURVE",
"64 1021 CURVE SMOOTH",
"67 1019 OFFCURVE",
"66 1016 OFFCURVE",
"63 1010 CURVE SMOOTH",
"39 970 OFFCURVE",
"35 937 OFFCURVE",
"50 912 CURVE SMOOTH",
"65 887 OFFCURVE",
"94 875 OFFCURVE",
"137 875 CURVE",
"187 876 OFFCURVE",
"228 892 OFFCURVE",
"259 925 CURVE SMOOTH",
"260 926 OFFCURVE",
"260 927 OFFCURVE",
"260 930 CURVE SMOOTH",
"260 948 OFFCURVE",
"254 972 OFFCURVE",
"243 1002 CURVE SMOOTH",
"232 1032 OFFCURVE",
"221 1055 OFFCURVE",
"212 1068 CURVE SMOOTH",
"209 1072 OFFCURVE",
"209 1075 OFFCURVE",
"210 1078 CURVE SMOOTH",
"228 1121 LINE SMOOTH",
"230 1126 OFFCURVE",
"232 1126 OFFCURVE",
"236 1119 CURVE"
);
}
);
width = 0;
},
{
anchors = (
{
name = TashkilTashkilAbove;
position = "{127, 1249}";
},
{
name = _MarkAbove;
position = "{141, 801}";
},
{
name = _NoonAbove;
position = "{142, 801}";
}
);
layerId = "037FF2D3-C03F-44B0-90AB-89AFD43EFA27";
paths = (
{
closed = 1;
nodes = (
"127 1214 OFFCURVE",
"131 1216 OFFCURVE",
"136 1214 CURVE SMOOTH",
"155 1207 OFFCURVE",
"169 1198 OFFCURVE",
"180 1188 CURVE",
"184 1183 OFFCURVE",
"185 1179 OFFCURVE",
"182 1174 CURVE SMOOTH",
"154 1130 LINE SMOOTH",
"150 1124 OFFCURVE",
"146 1123 OFFCURVE",
"141 1127 CURVE SMOOTH",
"136 1131 OFFCURVE",
"122 1140 OFFCURVE",
"98 1154 CURVE SMOOTH",
"93 1157 OFFCURVE",
"91 1161 OFFCURVE",
"94 1167 CURVE",
"123 1210 LINE"
);
},
{
closed = 1;
nodes = (
"257 1096 OFFCURVE",
"268 1065 OFFCURVE",
"277 1029 CURVE SMOOTH",
"286 993 OFFCURVE",
"287 961 OFFCURVE",
"283 934 CURVE SMOOTH",
"279 907 OFFCURVE",
"273 887 OFFCURVE",
"264 873 CURVE SMOOTH",
"240 836 OFFCURVE",
"199 815 OFFCURVE",
"141 809 CURVE",
"99 805 OFFCURVE",
"65 813 OFFCURVE",
"43 834 CURVE",
"21 855 OFFCURVE",
"11 885 OFFCURVE",
"13 921 CURVE SMOOTH",
"15 957 OFFCURVE",
"28 991 OFFCURVE",
"50 1022 CURVE SMOOTH",
"56 1030 OFFCURVE",
"61 1032 OFFCURVE",
"67 1027 CURVE SMOOTH",
"74 1022 OFFCURVE",
"75 1015 OFFCURVE",
"70 1006 CURVE SMOOTH",
"48 968 OFFCURVE",
"43 938 OFFCURVE",
"56 916 CURVE",
"70 894 OFFCURVE",
"99 883 OFFCURVE",
"143 883 CURVE SMOOTH",
"187 883 OFFCURVE",
"223 898 OFFCURVE",
"252 929 CURVE",
"252 930 LINE SMOOTH",
"252 947 OFFCURVE",
"247 971 OFFCURVE",
"236 1000 CURVE SMOOTH",
"225 1029 OFFCURVE",
"216 1051 OFFCURVE",
"207 1064 CURVE",
"203 1070 OFFCURVE",
"202 1076 OFFCURVE",
"204 1082 CURVE SMOOTH",
"221 1123 LINE SMOOTH",
"222 1126 OFFCURVE",
"224 1129 OFFCURVE",
"226 1130 CURVE SMOOTH",
"232 1134 OFFCURVE",
"238 1132 OFFCURVE",
"243 1123 CURVE SMOOTH",
"243 1122 LINE SMOOTH"
);
}
);
width = 0;
}
);
unicode = 06E8;
}
{
glyphname = "qafLamAlefMaksuraabove-ar";
layers = (
{
anchors = (
{
name = _MarkAbove;
position = "{244, 1270}";
}
);
layerId = "7FE84AD5-D318-40C5-A81A-3CDC73FF77D2";
paths = (
{
closed = 1;
nodes = (
"241 1493 OFFCURVE",
"272 1507 OFFCURVE",
"299 1534 CURVE",
"298 1545 OFFCURVE",
"296 1552 OFFCURVE",
"293 1557 CURVE SMOOTH",
"288 1564 OFFCURVE",
"285 1565 OFFCURVE",
"283 1560 CURVE SMOOTH",
"274 1538 OFFCURVE",
"261 1527 OFFCURVE",
"242 1526 CURVE SMOOTH",
"212 1525 OFFCURVE",
"196 1543 OFFCURVE",
"195 1579 CURVE SMOOTH",
"194 1598 OFFCURVE",
"201 1620 OFFCURVE",
"216 1644 CURVE SMOOTH",
"239 1682 OFFCURVE",
"265 1683 OFFCURVE",
"294 1647 CURVE SMOOTH",
"315 1621 OFFCURVE",
"325 1590 OFFCURVE",
"324 1554 CURVE SMOOTH",
"323 1533 OFFCURVE",
"317 1514 OFFCURVE",
"306 1496 CURVE SMOOTH",
"282 1458 OFFCURVE",
"249 1438 OFFCURVE",
"205 1438 CURVE SMOOTH",
"157 1438 OFFCURVE",
"128 1462 OFFCURVE",
"118 1510 CURVE",
"113 1481 OFFCURVE",
"104 1456 OFFCURVE",
"91 1435 CURVE SMOOTH",
"78 1415 OFFCURVE",
"58 1396 OFFCURVE",
"29 1378 CURVE",
"60 1373 OFFCURVE",
"99 1370 OFFCURVE",
"148 1369 CURVE SMOOTH",
"225 1367 OFFCURVE",
"291 1369 OFFCURVE",
"343 1374 CURVE SMOOTH",
"397 1380 OFFCURVE",
"442 1384 OFFCURVE",
"479 1387 CURVE SMOOTH",
"490 1388 OFFCURVE",
"493 1384 OFFCURVE",
"487 1375 CURVE SMOOTH",
"464 1341 LINE SMOOTH",
"460 1335 OFFCURVE",
"457 1332 OFFCURVE",
"452 1331 CURVE SMOOTH",
"413 1325 OFFCURVE",
"343 1321 OFFCURVE",
"240 1317 CURVE SMOOTH",
"146 1314 OFFCURVE",
"75 1316 OFFCURVE",
"27 1323 CURVE SMOOTH",
"12 1325 OFFCURVE",
"4 1332 OFFCURVE",
"1 1344 CURVE",
"-2 1362 OFFCURVE",
"2 1380 OFFCURVE",
"12 1397 CURVE SMOOTH",
"23 1416 OFFCURVE",
"35 1430 OFFCURVE",
"48 1439 CURVE SMOOTH",
"86 1466 OFFCURVE",
"105 1495 OFFCURVE",
"104 1527 CURVE SMOOTH",
"103 1546 OFFCURVE",
"101 1573 OFFCURVE",
"99 1608 CURVE SMOOTH",
"98 1617 OFFCURVE",
"97 1642 OFFCURVE",
"95 1681 CURVE SMOOTH",
"94 1694 OFFCURVE",
"95 1702 OFFCURVE",
"98 1706 CURVE SMOOTH",
"110 1724 LINE SMOOTH",
"122 1743 OFFCURVE",
"129 1740 OFFCURVE",
"130 1719 CURVE SMOOTH",
"135 1603 OFFCURVE",
"141 1537 OFFCURVE",
"147 1523 CURVE SMOOTH",
"156 1503 OFFCURVE",
"176 1493 OFFCURVE",
"205 1493 CURVE SMOOTH"
);
},
{
closed = 1;
nodes = (
"215 1801 OFFCURVE",
"217 1801 OFFCURVE",
"219 1800 CURVE SMOOTH",
"232 1796 OFFCURVE",
"244 1790 OFFCURVE",
"254 1782 CURVE",
"274 1812 LINE SMOOTH",
"275 1814 OFFCURVE",
"277 1814 OFFCURVE",
"279 1813 CURVE SMOOTH",
"285 1811 OFFCURVE",
"299 1804 OFFCURVE",
"320 1790 CURVE SMOOTH",
"322 1789 OFFCURVE",
"322 1786 OFFCURVE",
"321 1784 CURVE SMOOTH",
"293 1741 LINE SMOOTH",
"292 1739 OFFCURVE",
"291 1739 OFFCURVE",
"288 1742 CURVE SMOOTH",
"286 1744 OFFCURVE",
"275 1750 OFFCURVE",
"255 1762 CURVE",
"233 1728 LINE SMOOTH",
"232 1727 OFFCURVE",
"231 1727 OFFCURVE",
"228 1729 CURVE SMOOTH",
"220 1733 OFFCURVE",
"206 1741 OFFCURVE",
"187 1754 CURVE SMOOTH",
"186 1755 OFFCURVE",
"185 1756 OFFCURVE",
"186 1757 CURVE SMOOTH",
"214 1799 LINE SMOOTH"
);
}
);
width = 0;
},
{
anchors = (
{
name = _MarkAbove;
position = "{244, 1270}";
}
);
layerId = "037FF2D3-C03F-44B0-90AB-89AFD43EFA27";
paths = (
{
closed = 1;
nodes = (
"291 1544 OFFCURVE",
"290 1549 OFFCURVE",
"288 1552 CURVE",
"277 1531 OFFCURVE",
"262 1520 OFFCURVE",
"242 1519 CURVE SMOOTH",
"208 1518 OFFCURVE",
"190 1538 OFFCURVE",
"188 1579 CURVE",
"188 1600 OFFCURVE",
"193 1618 OFFCURVE",
"204 1636 CURVE SMOOTH",
"215 1654 OFFCURVE",
"222 1666 OFFCURVE",
"229 1671 CURVE SMOOTH",
"251 1689 OFFCURVE",
"275 1683 OFFCURVE",
"298 1654 CURVE SMOOTH",
"321 1625 OFFCURVE",
"333 1592 OFFCURVE",
"332 1554 CURVE",
"331 1532 OFFCURVE",
"324 1512 OFFCURVE",
"312 1492 CURVE SMOOTH",
"287 1451 OFFCURVE",
"252 1431 OFFCURVE",
"208 1431 CURVE SMOOTH",
"164 1431 OFFCURVE",
"135 1448 OFFCURVE",
"120 1481 CURVE",
"114 1462 OFFCURVE",
"106 1445 OFFCURVE",
"96 1429 CURVE SMOOTH",
"86 1413 OFFCURVE",
"70 1398 OFFCURVE",
"49 1383 CURVE",
"77 1380 OFFCURVE",
"119 1377 OFFCURVE",
"177 1376 CURVE SMOOTH",
"235 1375 OFFCURVE",
"291 1376 OFFCURVE",
"344 1382 CURVE SMOOTH",
"439 1391 OFFCURVE",
"488 1395 OFFCURVE",
"492 1392 CURVE",
"499 1387 OFFCURVE",
"499 1381 OFFCURVE",
"493 1371 CURVE SMOOTH",
"471 1337 LINE SMOOTH",
"466 1329 OFFCURVE",
"460 1325 OFFCURVE",
"453 1324 CURVE SMOOTH",
"414 1318 OFFCURVE",
"344 1313 OFFCURVE",
"246 1310 CURVE SMOOTH",
"148 1307 OFFCURVE",
"74 1308 OFFCURVE",
"26 1315 CURVE",
"7 1318 OFFCURVE",
"-3 1328 OFFCURVE",
"-6 1343 CURVE",
"-9 1363 OFFCURVE",
"-5 1383 OFFCURVE",
"7 1402 CURVE SMOOTH",
"19 1421 OFFCURVE",
"31 1435 OFFCURVE",
"44 1445 CURVE SMOOTH",
"79 1470 OFFCURVE",
"97 1498 OFFCURVE",
"96 1527 CURVE SMOOTH",
"95 1546 OFFCURVE",
"95 1567 OFFCURVE",
"93 1589 CURVE SMOOTH",
"88 1663 OFFCURVE",
"87 1703 OFFCURVE",
"92 1710 CURVE SMOOTH",
"104 1728 LINE SMOOTH",
"111 1738 OFFCURVE",
"117 1743 OFFCURVE",
"123 1744 CURVE SMOOTH",
"132 1745 OFFCURVE",
"136 1737 OFFCURVE",
"137 1721 CURVE SMOOTH",
"137 1720 OFFCURVE",
"137 1720 OFFCURVE",
"137 1720 CURVE SMOOTH",
"142 1605 OFFCURVE",
"149 1539 OFFCURVE",
"156 1524 CURVE SMOOTH",
"163 1509 OFFCURVE",
"181 1501 OFFCURVE",
"210 1501 CURVE SMOOTH",
"239 1501 OFFCURVE",
"267 1513 OFFCURVE",
"292 1537 CURVE"
);
},
{
closed = 1;
nodes = (
"215 1811 OFFCURVE",
"230 1807 OFFCURVE",
"252 1792 CURVE",
"269 1816 LINE SMOOTH",
"272 1821 OFFCURVE",
"276 1822 OFFCURVE",
"283 1820 CURVE SMOOTH",
"290 1818 OFFCURVE",
"303 1810 OFFCURVE",
"324 1796 CURVE",
"330 1791 OFFCURVE",
"331 1786 OFFCURVE",
"328 1780 CURVE SMOOTH",
"300 1737 LINE",
"295 1731 OFFCURVE",
"291 1730 OFFCURVE",
"286 1734 CURVE SMOOTH",
"281 1738 OFFCURVE",
"272 1744 OFFCURVE",
"258 1752 CURVE",
"240 1724 LINE SMOOTH",
"237 1719 OFFCURVE",
"234 1718 OFFCURVE",
"231 1719 CURVE SMOOTH",
"228 1720 OFFCURVE",
"226 1721 OFFCURVE",
"225 1721 CURVE SMOOTH",
"224 1721 OFFCURVE",
"222 1723 OFFCURVE",
"218 1725 CURVE SMOOTH",
"214 1727 OFFCURVE",
"202 1735 OFFCURVE",
"183 1748 CURVE",
"178 1752 OFFCURVE",
"177 1756 OFFCURVE",
"180 1761 CURVE",
"208 1804 LINE"
);
}
);
width = 0;
}
);
unicode = 06D7;
}
{
glyphname = "rhombusStopbelow-ar";
layers = (
{
anchors = (
{
name = _MarkBelow;
position = "{254, -371}";
}
);
layerId = "7FE84AD5-D318-40C5-A81A-3CDC73FF77D2";
paths = (
{
closed = 1;
nodes = (
"337 -624 LINE",
"254 -482 LINE",
"171 -624 LINE",
"254 -767 LINE"
);
},
{
closed = 1;
nodes = (
"131 -624 LINE",
"254 -415 LINE",
"377 -624 LINE",
"254 -835 LINE"
);
}
);
width = 0;
},
{
anchors = (
{
name = _MarkBelow;
position = "{254, -371}";
}
);
layerId = "037FF2D3-C03F-44B0-90AB-89AFD43EFA27";
paths = (
{
closed = 1;
nodes = (
"329 -624 LINE",
"254 -497 LINE",
"180 -624 LINE",
"254 -752 LINE"
);
},
{
closed = 1;
nodes = (
"125 -628 LINE SMOOTH",
"124 -625 OFFCURVE",
"124 -623 OFFCURVE",
"125 -620 CURVE SMOOTH",
"248 -411 LINE",
"252 -405 OFFCURVE",
"257 -405 OFFCURVE",
"261 -411 CURVE",
"384 -620 LINE SMOOTH",
"385 -623 OFFCURVE",
"385 -625 OFFCURVE",
"384 -628 CURVE SMOOTH",
"261 -839 LINE SMOOTH",
"257 -846 OFFCURVE",
"253 -846 OFFCURVE",
"248 -839 CURVE"
);
}
);
width = 0;
}
);
unicode = 06EA;
}
